<svg width="590" height="485" viewBox="0 0 590 485" fill="none" xmlns="http://www.w3.org/2000/svg">
<path d="M294.28 228C293.19 223.77 287.65 221.25 283.39 221.25C281.38 221.224 279.386 221.601 277.524 222.359C275.662 223.116 273.971 224.238 272.55 225.66C271.129 227.081 270.006 228.772 269.249 230.634C268.491 232.496 268.114 234.49 268.14 236.5C268.14 252.83 283.67 257.18 292.14 266.98C292.215 267.089 292.303 267.19 292.4 267.28C292.912 267.788 293.604 268.074 294.325 268.074C295.046 268.074 295.738 267.788 296.25 267.28C296.341 267.189 296.422 267.089 296.49 266.98C304.93 257.16 320.49 252.89 320.49 236.5C320.516 234.49 320.138 232.496 319.381 230.634C318.624 228.772 317.501 227.081 316.08 225.66C314.659 224.238 312.968 223.116 311.106 222.359C309.244 221.601 307.25 221.224 305.24 221.25C300.9 221.25 295.36 223.77 294.28 228ZM305.87 231.05C305.369 230.959 304.915 230.695 304.588 230.304C304.261 229.913 304.081 229.419 304.08 228.91C304.08 228.33 304.307 227.774 304.713 227.361C305.119 226.948 305.671 226.71 306.25 226.7C307.98 226.7 310.09 227.93 311.85 229.7C313.61 231.47 314.96 233.87 314.96 235.44C314.951 235.979 314.744 236.496 314.376 236.89C314.009 237.285 313.508 237.53 312.971 237.577C312.434 237.624 311.899 237.471 311.468 237.146C311.037 236.822 310.742 236.349 310.64 235.82C310.344 234.671 309.745 233.623 308.906 232.784C308.067 231.945 307.019 231.346 305.87 231.05Z" fill="#3D3D3D"/>
<path d="M276.84 257.63C276.82 257.106 276.603 256.608 276.232 256.237C275.861 255.867 275.364 255.65 274.84 255.63C274.315 255.647 273.816 255.864 273.445 256.235C273.074 256.606 272.857 257.105 272.84 257.63C272.84 258.16 273.051 258.669 273.426 259.044C273.801 259.419 274.309 259.63 274.84 259.63C275.365 259.612 275.863 259.396 276.235 259.025C276.606 258.653 276.822 258.155 276.84 257.63ZM313.59 239.26C313.555 238.187 313.112 237.168 312.353 236.41C311.593 235.652 310.573 235.212 309.5 235.18H298.27C298.428 233.395 298.953 231.663 299.81 230.09C300.667 228.507 301.188 226.764 301.34 224.97C301.461 223.362 301.114 221.754 300.34 220.34C299.66 219.34 298.29 218.84 296.25 218.84C295.601 219.612 295.182 220.551 295.04 221.55C294.79 222.81 294.46 224.14 294.04 225.55C293.703 226.852 293.05 228.05 292.14 229.04C291.67 229.53 290.85 230.5 289.68 231.94L288.95 232.94L287.95 234.25C287.683 234.59 287.313 235.04 286.84 235.6C286.445 236.094 286.021 236.565 285.57 237.01C285.19 237.38 284.78 237.76 284.34 238.14C283.956 238.486 283.525 238.776 283.06 239C282.708 239.176 282.323 239.275 281.93 239.29H280.93V259.7H281.93C282.265 259.709 282.599 259.743 282.93 259.8C283.317 259.86 283.667 259.93 283.98 260.01C284.29 260.08 284.69 260.2 285.19 260.36L286.31 260.72L287.44 261.12L288.37 261.46C291.86 262.81 295.543 263.597 299.28 263.79H303.14C307.22 263.79 309.26 262.013 309.26 258.46C309.257 257.86 309.204 257.261 309.1 256.67C309.772 256.29 310.305 255.705 310.62 255C310.978 254.268 311.166 253.464 311.17 252.65C311.173 251.879 310.977 251.122 310.6 250.45C311.137 249.976 311.565 249.392 311.857 248.738C312.148 248.084 312.296 247.376 312.29 246.66C312.275 246.057 312.167 245.46 311.97 244.89C311.81 244.334 311.537 243.817 311.17 243.37C311.837 243.37 312.407 242.87 312.88 241.87C313.305 241.062 313.547 240.171 313.59 239.26ZM317.67 239.26C317.681 241.11 317.138 242.921 316.11 244.46C316.301 245.177 316.395 245.917 316.39 246.66C316.398 248.27 315.981 249.853 315.18 251.25C315.244 251.704 315.277 252.161 315.28 252.62C315.308 254.677 314.63 256.681 313.36 258.3C313.439 259.593 313.237 260.888 312.77 262.096C312.302 263.304 311.579 264.397 310.65 265.3C308.665 267.07 306.066 267.993 303.41 267.87H299.3C297.262 267.871 295.231 267.629 293.25 267.15C291.25 266.67 288.96 265.98 286.34 265.06C284.919 264.492 283.445 264.067 281.94 263.79H272.76C271.676 263.787 270.637 263.355 269.871 262.589C269.104 261.822 268.673 260.784 268.67 259.7V239.26C268.67 238.723 268.776 238.192 268.981 237.696C269.187 237.2 269.489 236.75 269.868 236.371C270.248 235.992 270.699 235.692 271.195 235.487C271.692 235.283 272.223 235.178 272.76 235.18H281.5C283.147 233.689 284.613 232.011 285.87 230.18C287.103 228.586 288.24 227.226 289.28 226.1C289.904 225.313 290.296 224.368 290.41 223.37C290.66 222.08 290.98 220.74 291.41 219.37C291.764 218.065 292.453 216.875 293.41 215.92C293.786 215.542 294.233 215.243 294.726 215.04C295.219 214.837 295.747 214.735 296.28 214.74C297.942 214.701 299.591 215.043 301.1 215.74C302.501 216.438 303.628 217.586 304.3 219C305.128 220.866 305.512 222.9 305.42 224.94C305.382 227.07 304.859 229.163 303.89 231.06H309.5C311.651 231.093 313.705 231.96 315.23 233.479C316.754 234.998 317.629 237.049 317.67 239.2V239.26Z" fill="#3D3D3D"/>
<path d="M294.28 228C293.19 223.77 287.65 221.25 283.39 221.25C281.38 221.224 279.386 221.601 277.524 222.359C275.662 223.116 273.971 224.238 272.55 225.66C271.129 227.081 270.006 228.772 269.249 230.634C268.491 232.496 268.114 234.49 268.14 236.5C268.14 252.83 283.67 257.18 292.14 266.98C292.215 267.089 292.303 267.19 292.4 267.28C292.912 267.788 293.604 268.074 294.325 268.074C295.046 268.074 295.738 267.788 296.25 267.28C296.341 267.189 296.422 267.089 296.49 266.98C304.93 257.16 320.49 252.89 320.49 236.5C320.516 234.49 320.138 232.496 319.381 230.634C318.624 228.772 317.501 227.081 316.08 225.66C314.659 224.238 312.968 223.116 311.106 222.359C309.244 221.601 307.25 221.224 305.24 221.25C300.9 221.25 295.36 223.77 294.28 228ZM305.87 231.05C305.369 230.959 304.915 230.695 304.588 230.304C304.261 229.913 304.081 229.419 304.08 228.91C304.08 228.33 304.307 227.774 304.713 227.361C305.119 226.948 305.671 226.71 306.25 226.7C307.98 226.7 310.09 227.93 311.85 229.7C313.61 231.47 314.96 233.87 314.96 235.44C314.951 235.979 314.744 236.496 314.376 236.89C314.009 237.285 313.508 237.53 312.971 237.577C312.434 237.624 311.899 237.471 311.468 237.146C311.037 236.822 310.742 236.349 310.64 235.82C310.344 234.671 309.745 233.623 308.906 232.784C308.067 231.945 307.019 231.346 305.87 231.05Z" fill="#3D3D3D" fill-opacity="0.5"/>
<path opacity="0.7601" d="M240.099 154.957C240.621 154.904 241.103 154.655 241.45 154.262C241.796 153.868 241.982 153.358 241.968 152.834C241.917 152.311 241.67 151.827 241.276 151.48C240.882 151.133 240.37 150.949 239.845 150.965C239.316 150.998 238.822 151.241 238.471 151.639C238.121 152.037 237.943 152.558 237.976 153.087C238.027 153.61 238.274 154.094 238.669 154.441C239.063 154.788 239.574 154.972 240.099 154.957ZM260.761 190.468C261.829 190.365 262.818 189.859 263.527 189.053C264.235 188.247 264.609 187.201 264.574 186.128L263.862 174.921C265.653 174.966 267.415 175.379 269.039 176.135C270.674 176.89 272.446 177.299 274.246 177.337C275.858 177.356 277.441 176.908 278.803 176.046C279.758 175.304 280.17 173.905 280.041 171.869C279.229 171.27 278.266 170.911 277.26 170.833C275.987 170.664 274.638 170.419 273.205 170.089C271.884 169.835 270.646 169.26 269.601 168.414C269.082 167.976 268.062 167.219 266.551 166.143L265.507 165.477L264.136 164.562C263.78 164.318 263.307 163.977 262.718 163.54C262.2 163.177 261.703 162.784 261.231 162.362C260.837 162.006 260.432 161.621 260.025 161.206C259.655 160.845 259.339 160.434 259.086 159.983C258.887 159.644 258.764 159.265 258.725 158.874L258.661 157.876L238.292 159.17L238.356 160.168C238.367 160.503 238.355 160.838 238.319 161.172C238.284 161.562 238.236 161.915 238.176 162.233C238.126 162.547 238.032 162.954 237.904 163.463L237.615 164.603L237.288 165.756L237.007 166.706C235.881 170.275 235.329 174 235.374 177.742L235.618 181.594C235.877 185.666 237.779 187.589 241.325 187.364C241.924 187.323 242.518 187.232 243.102 187.091C243.523 187.738 244.141 188.232 244.865 188.502C245.618 188.813 246.431 188.949 247.245 188.902C248.014 188.856 248.758 188.612 249.404 188.194C249.911 188.699 250.521 189.09 251.192 189.339C251.863 189.589 252.58 189.691 253.294 189.64C253.895 189.587 254.484 189.442 255.04 189.209C255.585 189.013 256.084 188.709 256.506 188.314C256.548 188.979 257.083 189.516 258.111 189.925C258.944 190.298 259.849 190.484 260.761 190.468ZM261.02 194.54C259.174 194.669 257.332 194.241 255.731 193.313C255.027 193.549 254.295 193.69 253.554 193.732C251.947 193.842 250.341 193.526 248.896 192.815C248.447 192.908 247.992 192.97 247.535 193.002C245.484 193.16 243.44 192.611 241.745 191.446C240.459 191.606 239.154 191.487 237.919 191.097C236.684 190.707 235.547 190.055 234.587 189.185C232.695 187.316 231.609 184.781 231.564 182.122L231.303 178.02C231.173 175.987 231.285 173.944 231.638 171.937C231.99 169.911 232.534 167.581 233.286 164.908C233.762 163.454 234.093 161.956 234.275 160.437L233.693 151.275C233.627 150.193 233.992 149.129 234.708 148.316C235.424 147.502 236.434 147.006 237.515 146.934L257.914 145.639C258.45 145.605 258.987 145.677 259.494 145.851C260.002 146.024 260.471 146.297 260.873 146.652C261.275 147.007 261.603 147.438 261.839 147.92C262.074 148.402 262.213 148.926 262.245 149.462L262.799 158.184C264.391 159.733 266.159 161.091 268.066 162.229C269.734 163.359 271.164 164.407 272.354 165.373C273.178 165.947 274.147 166.277 275.15 166.328C276.453 166.496 277.811 166.73 279.205 167.072C280.53 167.343 281.761 167.956 282.775 168.85C283.176 169.201 283.503 169.628 283.737 170.107C283.97 170.586 284.105 171.107 284.135 171.639C284.279 173.295 284.042 174.962 283.442 176.513C282.834 177.955 281.76 179.153 280.392 179.913C278.581 180.858 276.576 181.37 274.535 181.407C272.407 181.505 270.285 181.115 268.33 180.268L268.686 185.867C268.789 188.016 268.053 190.121 266.634 191.738C265.215 193.356 263.224 194.359 261.08 194.536L261.02 194.54Z" fill="#3D3D3D" fill-opacity="0.5"/>
<path d="M318.53 237.07H297.4V216C297.428 215.428 297.339 214.856 297.139 214.319C296.94 213.782 296.633 213.292 296.238 212.877C295.843 212.462 295.368 212.132 294.841 211.906C294.315 211.681 293.748 211.564 293.175 211.564C292.602 211.564 292.035 211.681 291.509 211.906C290.982 212.132 290.507 212.462 290.112 212.877C289.717 213.292 289.41 213.782 289.211 214.319C289.011 214.856 288.922 215.428 288.95 216V237.12H267.82C266.698 237.12 265.622 237.566 264.829 238.359C264.036 239.152 263.59 240.228 263.59 241.35C263.59 242.472 264.036 243.548 264.829 244.341C265.622 245.134 266.698 245.58 267.82 245.58H289V266.7C288.972 267.272 289.061 267.844 289.261 268.381C289.46 268.918 289.767 269.408 290.162 269.823C290.557 270.238 291.032 270.568 291.559 270.794C292.085 271.019 292.652 271.136 293.225 271.136C293.798 271.136 294.365 271.019 294.891 270.794C295.418 270.568 295.893 270.238 296.288 269.823C296.683 269.408 296.99 268.918 297.189 268.381C297.389 267.844 297.478 267.272 297.45 266.7V245.53H318.58C319.702 245.53 320.778 245.084 321.571 244.291C322.364 243.498 322.81 242.422 322.81 241.3C322.81 240.178 322.364 239.102 321.571 238.309C320.778 237.516 319.702 237.07 318.58 237.07H318.53Z" fill="#3D3D3D"/>
<path d="M294.28 228C293.19 223.77 287.65 221.25 283.39 221.25C281.38 221.224 279.386 221.601 277.524 222.359C275.662 223.116 273.971 224.238 272.55 225.66C271.129 227.081 270.006 228.772 269.249 230.634C268.491 232.496 268.114 234.49 268.14 236.5C268.14 252.83 283.67 257.18 292.14 266.98C292.215 267.089 292.303 267.19 292.4 267.28C292.912 267.788 293.604 268.074 294.325 268.074C295.046 268.074 295.738 267.788 296.25 267.28C296.341 267.189 296.422 267.089 296.49 266.98C304.93 257.16 320.49 252.89 320.49 236.5C320.516 234.49 320.138 232.496 319.381 230.634C318.624 228.772 317.501 227.081 316.08 225.66C314.659 224.238 312.968 223.116 311.106 222.359C309.244 221.601 307.25 221.224 305.24 221.25C300.9 221.25 295.36 223.77 294.28 228ZM305.87 231.05C305.369 230.959 304.915 230.695 304.588 230.304C304.261 229.913 304.081 229.419 304.08 228.91C304.08 228.33 304.307 227.774 304.713 227.361C305.119 226.948 305.671 226.71 306.25 226.7C307.98 226.7 310.09 227.93 311.85 229.7C313.61 231.47 314.96 233.87 314.96 235.44C314.951 235.979 314.744 236.496 314.376 236.89C314.009 237.285 313.508 237.53 312.971 237.577C312.434 237.624 311.899 237.471 311.468 237.146C311.037 236.822 310.742 236.349 310.64 235.82C310.344 234.671 309.745 233.623 308.906 232.784C308.067 231.945 307.019 231.346 305.87 231.05Z" fill="#3D3D3D"/>
<path opacity="0.7881" d="M280.429 270.121C280.933 269.977 281.365 269.648 281.637 269.2C281.909 268.752 282.002 268.217 281.897 267.703C281.755 267.198 281.427 266.765 280.978 266.492C280.529 266.219 279.993 266.127 279.479 266.235C278.964 266.361 278.52 266.686 278.245 267.14C277.969 267.593 277.885 268.137 278.011 268.653C278.153 269.158 278.481 269.591 278.93 269.864C279.379 270.137 279.915 270.228 280.429 270.121ZM306.995 301.461C308.029 301.173 308.914 300.501 309.47 299.583C310.026 298.665 310.211 297.57 309.988 296.52L307.323 285.611C309.094 285.341 310.902 285.439 312.633 285.899C314.374 286.356 316.191 286.448 317.97 286.17C319.56 285.906 321.04 285.187 322.23 284.1C323.04 283.202 323.201 281.752 322.717 279.771C321.813 279.323 320.801 279.139 319.797 279.238C318.514 279.294 317.143 279.29 315.674 279.216C314.329 279.198 313.01 278.848 311.833 278.199C311.245 277.858 310.108 277.292 308.432 276.497L307.287 276.025L305.777 275.365C305.384 275.187 304.859 274.934 304.202 274.607C303.628 274.341 303.07 274.04 302.531 273.708C302.082 273.427 301.615 273.118 301.142 272.781C300.714 272.491 300.331 272.141 300.003 271.742C299.747 271.442 299.56 271.091 299.453 270.713L299.215 269.741L279.388 274.585L279.626 275.557C279.696 275.885 279.743 276.217 279.766 276.552C279.799 276.942 279.814 277.298 279.811 277.622C279.817 277.939 279.795 278.356 279.758 278.88L279.674 280.054L279.554 281.246L279.444 282.23C278.961 285.941 279.071 289.705 279.77 293.382L280.686 297.131C281.654 301.095 283.864 302.655 287.316 301.812C287.899 301.667 288.468 301.473 289.017 301.231C289.546 301.794 290.241 302.173 291 302.312C291.796 302.485 292.621 302.477 293.414 302.288C294.163 302.108 294.852 301.738 295.415 301.212C296.003 301.621 296.672 301.899 297.376 302.027C298.081 302.155 298.804 302.13 299.498 301.955C300.081 301.797 300.635 301.551 301.142 301.224C301.644 300.936 302.082 300.549 302.428 300.086C302.587 300.733 303.208 301.168 304.291 301.391C305.177 301.612 306.1 301.636 306.995 301.461ZM307.964 305.425C306.169 305.875 304.28 305.777 302.542 305.143C301.89 305.499 301.194 305.766 300.471 305.937C298.909 306.328 297.272 306.298 295.725 305.851C295.299 306.021 294.863 306.162 294.418 306.274C292.426 306.789 290.318 306.606 288.445 305.756C287.207 306.14 285.902 306.251 284.617 306.084C283.332 305.916 282.099 305.473 281.002 304.785C278.811 303.277 277.298 300.972 276.787 298.362L275.811 294.369C275.327 292.39 275.08 290.359 275.075 288.321C275.067 286.264 275.194 283.876 275.465 281.113C275.679 279.597 275.743 278.065 275.655 276.537L273.476 267.619C273.222 266.566 273.395 265.454 273.957 264.528C274.52 263.601 275.427 262.935 276.479 262.675L296.335 257.825C296.856 257.697 297.398 257.674 297.928 257.756C298.458 257.838 298.967 258.024 299.425 258.303C299.884 258.583 300.282 258.949 300.599 259.383C300.915 259.816 301.143 260.308 301.269 260.83L303.343 269.32C305.182 270.566 307.16 271.592 309.237 272.378C311.078 273.198 312.669 273.98 314.01 274.723C314.922 275.143 315.934 275.299 316.93 275.173C318.243 275.109 319.62 275.102 321.053 275.195C322.405 275.229 323.724 275.616 324.879 276.319C325.336 276.594 325.732 276.958 326.046 277.388C326.36 277.819 326.585 278.308 326.707 278.827C327.139 280.432 327.198 282.115 326.879 283.746C326.533 285.273 325.686 286.64 324.472 287.629C322.855 288.876 320.971 289.731 318.967 290.126C316.889 290.595 314.732 290.583 312.659 290.092L313.99 295.542C314.469 297.64 314.114 299.841 313 301.682C311.887 303.523 310.102 304.86 308.022 305.41L307.964 305.425Z" fill="#3D3D3D"/>
<path d="M294.28 228C293.19 223.77 287.65 221.25 283.39 221.25C281.38 221.224 279.386 221.601 277.524 222.359C275.662 223.116 273.971 224.238 272.55 225.66C271.129 227.081 270.006 228.772 269.249 230.634C268.491 232.496 268.114 234.49 268.14 236.5C268.14 252.83 283.67 257.18 292.14 266.98C292.215 267.089 292.303 267.19 292.4 267.28C292.912 267.788 293.604 268.074 294.325 268.074C295.046 268.074 295.738 267.788 296.25 267.28C296.341 267.189 296.422 267.089 296.49 266.98C304.93 257.16 320.49 252.89 320.49 236.5C320.516 234.49 320.138 232.496 319.381 230.634C318.624 228.772 317.501 227.081 316.08 225.66C314.659 224.238 312.968 223.116 311.106 222.359C309.244 221.601 307.25 221.224 305.24 221.25C300.9 221.25 295.36 223.77 294.28 228ZM305.87 231.05C305.369 230.959 304.915 230.695 304.588 230.304C304.261 229.913 304.081 229.419 304.08 228.91C304.08 228.33 304.307 227.774 304.713 227.361C305.119 226.948 305.671 226.71 306.25 226.7C307.98 226.7 310.09 227.93 311.85 229.7C313.61 231.47 314.96 233.87 314.96 235.44C314.951 235.979 314.744 236.496 314.376 236.89C314.009 237.285 313.508 237.53 312.971 237.577C312.434 237.624 311.899 237.471 311.468 237.146C311.037 236.822 310.742 236.349 310.64 235.82C310.344 234.671 309.745 233.623 308.906 232.784C308.067 231.945 307.019 231.346 305.87 231.05Z" fill="#3D3D3D" fill-opacity="0.5"/>
<path opacity="0.9138" d="M233.248 239.664C233.501 239.205 233.572 238.667 233.445 238.158C233.319 237.649 233.005 237.207 232.566 236.919C232.107 236.664 231.568 236.592 231.059 236.719C230.549 236.845 230.106 237.161 229.821 237.602C229.547 238.056 229.465 238.601 229.593 239.115C229.721 239.63 230.048 240.073 230.503 240.346C230.962 240.602 231.5 240.674 232.01 240.547C232.52 240.421 232.962 240.105 233.248 239.664ZM274.208 242.878C274.731 241.941 274.877 240.84 274.617 239.798C274.357 238.757 273.71 237.854 272.808 237.273L263.186 231.482C264.242 230.034 265.585 228.82 267.131 227.915C268.681 227 270.027 225.776 271.082 224.317C272.015 223.002 272.546 221.445 272.613 219.835C272.546 218.627 271.63 217.492 269.882 216.44C268.928 216.767 268.084 217.355 267.448 218.138C266.584 219.089 265.615 220.058 264.528 221.049C263.568 221.991 262.391 222.682 261.101 223.06C260.445 223.237 259.242 223.645 257.497 224.276L256.356 224.756L254.824 225.363C254.42 225.516 253.871 225.711 253.177 225.947C252.583 226.167 251.977 226.352 251.361 226.5C250.845 226.621 250.298 226.735 249.725 226.834C249.218 226.933 248.699 226.958 248.185 226.91C247.792 226.881 247.411 226.767 247.067 226.576L246.21 226.06L235.685 243.547L236.541 244.063C236.824 244.244 237.093 244.445 237.347 244.664C237.647 244.915 237.911 245.156 238.138 245.386C238.367 245.606 238.648 245.915 238.994 246.31L239.768 247.196L240.53 248.121L241.151 248.892C243.445 251.849 246.195 254.422 249.297 256.515L252.604 258.505C256.1 260.609 258.764 260.139 260.596 257.095C260.904 256.579 261.167 256.039 261.382 255.479C262.154 255.5 262.912 255.273 263.546 254.832C264.23 254.389 264.805 253.798 265.229 253.102C265.629 252.444 265.852 251.693 265.875 250.923C266.579 250.794 267.248 250.515 267.835 250.105C268.422 249.695 268.914 249.164 269.278 248.548C269.576 248.023 269.792 247.456 269.916 246.866C270.066 246.307 270.099 245.724 270.015 245.151C270.586 245.495 271.332 245.361 272.253 244.748C273.034 244.275 273.701 243.637 274.208 242.878ZM277.703 244.982C276.759 246.573 275.359 247.845 273.685 248.633C273.479 249.346 273.178 250.028 272.79 250.662C271.967 252.046 270.793 253.187 269.387 253.971C269.207 254.392 269 254.802 268.766 255.196C267.729 256.973 266.115 258.341 264.192 259.072C263.592 260.221 262.752 261.226 261.728 262.02C260.704 262.814 259.521 263.377 258.26 263.672C255.647 264.165 252.944 263.615 250.731 262.14L247.21 260.021C245.463 258.97 243.848 257.716 242.398 256.284C240.932 254.841 239.326 253.069 237.555 250.929C236.63 249.71 235.587 248.586 234.441 247.572L226.576 242.838C225.648 242.277 224.981 241.371 224.719 240.319C224.458 239.267 224.624 238.155 225.181 237.225L235.722 219.712C235.998 219.252 236.363 218.852 236.795 218.533C237.227 218.215 237.717 217.984 238.238 217.855C238.759 217.727 239.3 217.702 239.831 217.783C240.361 217.863 240.871 218.048 241.33 218.326L248.818 222.833C250.998 222.405 253.12 221.724 255.141 220.803C257.019 220.074 258.694 219.495 260.166 219.066C261.107 218.714 261.93 218.106 262.542 217.31C263.422 216.333 264.387 215.35 265.462 214.398C266.438 213.463 267.642 212.799 268.955 212.474C269.472 212.344 270.009 212.318 270.536 212.399C271.063 212.479 271.568 212.664 272.022 212.943C273.466 213.767 274.702 214.91 275.636 216.285C276.477 217.606 276.85 219.171 276.697 220.729C276.444 222.755 275.724 224.695 274.593 226.396C273.462 228.201 271.934 229.724 270.126 230.85L274.932 233.743C276.758 234.881 278.071 236.684 278.594 238.771C279.117 240.858 278.808 243.066 277.734 244.931L277.703 244.982Z" fill="#3D3D3D" fill-opacity="0.5"/>
<path d="M318.53 237.07H297.4V216C297.428 215.428 297.339 214.856 297.139 214.319C296.94 213.782 296.633 213.292 296.238 212.877C295.843 212.462 295.368 212.132 294.841 211.906C294.315 211.681 293.748 211.564 293.175 211.564C292.602 211.564 292.035 211.681 291.509 211.906C290.982 212.132 290.507 212.462 290.112 212.877C289.717 213.292 289.41 213.782 289.211 214.319C289.011 214.856 288.922 215.428 288.95 216V237.12H267.82C266.698 237.12 265.622 237.566 264.829 238.359C264.036 239.152 263.59 240.228 263.59 241.35C263.59 242.472 264.036 243.548 264.829 244.341C265.622 245.134 266.698 245.58 267.82 245.58H289V266.7C288.972 267.272 289.061 267.844 289.261 268.381C289.46 268.918 289.767 269.408 290.162 269.823C290.557 270.238 291.032 270.568 291.559 270.794C292.085 271.019 292.652 271.136 293.225 271.136C293.798 271.136 294.365 271.019 294.891 270.794C295.418 270.568 295.893 270.238 296.288 269.823C296.683 269.408 296.99 268.918 297.189 268.381C297.389 267.844 297.478 267.272 297.45 266.7V245.53H318.58C319.702 245.53 320.778 245.084 321.571 244.291C322.364 243.498 322.81 242.422 322.81 241.3C322.81 240.178 322.364 239.102 321.571 238.309C320.778 237.516 319.702 237.07 318.58 237.07H318.53Z" fill="#3D3D3D"/>
<path opacity="0.6348" d="M348.685 273.924C352.576 275.908 358.133 273.425 360.954 270.233C362.304 268.744 363.342 266.999 364.007 265.103C364.672 263.206 364.951 261.195 364.827 259.189C364.703 257.183 364.179 255.222 363.285 253.422C362.392 251.622 361.147 250.019 359.624 248.707C347.387 237.894 333.844 246.651 320.891 246.51C320.76 246.494 320.626 246.492 320.494 246.506C319.774 246.552 319.102 246.882 318.625 247.422C318.147 247.963 317.903 248.671 317.945 249.391C317.952 249.519 317.974 249.646 318.011 249.769C319.781 262.596 312.678 277.084 324.96 287.937C326.449 289.286 328.194 290.325 330.09 290.99C331.987 291.655 333.997 291.934 336.003 291.81C338.01 291.686 339.97 291.162 341.771 290.268C343.571 289.374 345.174 288.129 346.486 286.606C349.36 283.354 351.14 277.534 348.685 273.924ZM338.725 280.589C339.125 280.274 339.624 280.109 340.133 280.123C340.643 280.137 341.131 280.328 341.514 280.665C341.948 281.049 342.214 281.587 342.255 282.165C342.296 282.743 342.109 283.314 341.733 283.755C340.588 285.051 338.269 285.818 335.777 285.965C333.285 286.111 330.593 285.534 329.416 284.494C329.018 284.131 328.768 283.633 328.716 283.096C328.663 282.56 328.811 282.023 329.131 281.589C329.452 281.155 329.921 280.855 330.45 280.748C330.978 280.64 331.527 280.732 331.992 281.005C333.049 281.544 334.231 281.789 335.415 281.716C336.599 281.643 337.742 281.254 338.725 280.589Z" fill="#3D3D3D"/>
<path d="M276.84 257.63C276.82 257.106 276.603 256.608 276.232 256.237C275.861 255.867 275.364 255.65 274.84 255.63C274.315 255.647 273.816 255.864 273.445 256.235C273.074 256.606 272.857 257.105 272.84 257.63C272.84 258.16 273.051 258.669 273.426 259.044C273.801 259.419 274.309 259.63 274.84 259.63C275.365 259.612 275.863 259.396 276.235 259.025C276.606 258.653 276.822 258.155 276.84 257.63ZM313.59 239.26C313.555 238.187 313.112 237.168 312.353 236.41C311.593 235.652 310.573 235.212 309.5 235.18H298.27C298.428 233.395 298.953 231.663 299.81 230.09C300.667 228.507 301.188 226.764 301.34 224.97C301.461 223.362 301.114 221.754 300.34 220.34C299.66 219.34 298.29 218.84 296.25 218.84C295.601 219.612 295.182 220.551 295.04 221.55C294.79 222.81 294.46 224.14 294.04 225.55C293.703 226.852 293.05 228.05 292.14 229.04C291.67 229.53 290.85 230.5 289.68 231.94L288.95 232.94L287.95 234.25C287.683 234.59 287.313 235.04 286.84 235.6C286.445 236.094 286.021 236.565 285.57 237.01C285.19 237.38 284.78 237.76 284.34 238.14C283.956 238.486 283.525 238.776 283.06 239C282.708 239.176 282.323 239.275 281.93 239.29H280.93V259.7H281.93C282.265 259.709 282.599 259.743 282.93 259.8C283.317 259.86 283.667 259.93 283.98 260.01C284.29 260.08 284.69 260.2 285.19 260.36L286.31 260.72L287.44 261.12L288.37 261.46C291.86 262.81 295.543 263.597 299.28 263.79H303.14C307.22 263.79 309.26 262.013 309.26 258.46C309.257 257.86 309.204 257.261 309.1 256.67C309.772 256.29 310.305 255.705 310.62 255C310.978 254.268 311.166 253.464 311.17 252.65C311.173 251.879 310.977 251.122 310.6 250.45C311.137 249.976 311.565 249.392 311.857 248.738C312.148 248.084 312.296 247.376 312.29 246.66C312.275 246.057 312.167 245.46 311.97 244.89C311.81 244.334 311.537 243.817 311.17 243.37C311.837 243.37 312.407 242.87 312.88 241.87C313.305 241.062 313.547 240.171 313.59 239.26ZM317.67 239.26C317.681 241.11 317.138 242.921 316.11 244.46C316.301 245.177 316.395 245.917 316.39 246.66C316.398 248.27 315.981 249.853 315.18 251.25C315.244 251.704 315.277 252.161 315.28 252.62C315.308 254.677 314.63 256.681 313.36 258.3C313.439 259.593 313.237 260.888 312.77 262.096C312.302 263.304 311.579 264.397 310.65 265.3C308.665 267.07 306.066 267.993 303.41 267.87H299.3C297.262 267.871 295.231 267.629 293.25 267.15C291.25 266.67 288.96 265.98 286.34 265.06C284.919 264.492 283.445 264.067 281.94 263.79H272.76C271.676 263.787 270.637 263.355 269.871 262.589C269.104 261.822 268.673 260.784 268.67 259.7V239.26C268.67 238.723 268.776 238.192 268.981 237.696C269.187 237.2 269.489 236.75 269.868 236.371C270.248 235.992 270.699 235.692 271.195 235.487C271.692 235.283 272.223 235.178 272.76 235.18H281.5C283.147 233.689 284.613 232.011 285.87 230.18C287.103 228.586 288.24 227.226 289.28 226.1C289.904 225.313 290.296 224.368 290.41 223.37C290.66 222.08 290.98 220.74 291.41 219.37C291.764 218.065 292.453 216.875 293.41 215.92C293.786 215.542 294.233 215.243 294.726 215.04C295.219 214.837 295.747 214.735 296.28 214.74C297.942 214.701 299.591 215.043 301.1 215.74C302.501 216.438 303.628 217.586 304.3 219C305.128 220.866 305.512 222.9 305.42 224.94C305.382 227.07 304.859 229.163 303.89 231.06H309.5C311.651 231.093 313.705 231.96 315.23 233.479C316.754 234.998 317.629 237.049 317.67 239.2V239.26Z" fill="#3D3D3D"/>
<path d="M294.28 228C293.19 223.77 287.65 221.25 283.39 221.25C281.38 221.224 279.386 221.601 277.524 222.359C275.662 223.116 273.971 224.238 272.55 225.66C271.129 227.081 270.006 228.772 269.249 230.634C268.491 232.496 268.114 234.49 268.14 236.5C268.14 252.83 283.67 257.18 292.14 266.98C292.215 267.089 292.303 267.19 292.4 267.28C292.912 267.788 293.604 268.074 294.325 268.074C295.046 268.074 295.738 267.788 296.25 267.28C296.341 267.189 296.422 267.089 296.49 266.98C304.93 257.16 320.49 252.89 320.49 236.5C320.516 234.49 320.138 232.496 319.381 230.634C318.624 228.772 317.501 227.081 316.08 225.66C314.659 224.238 312.968 223.116 311.106 222.359C309.244 221.601 307.25 221.224 305.24 221.25C300.9 221.25 295.36 223.77 294.28 228ZM305.87 231.05C305.369 230.959 304.915 230.695 304.588 230.304C304.261 229.913 304.081 229.419 304.08 228.91C304.08 228.33 304.307 227.774 304.713 227.361C305.119 226.948 305.671 226.71 306.25 226.7C307.98 226.7 310.09 227.93 311.85 229.7C313.61 231.47 314.96 233.87 314.96 235.44C314.951 235.979 314.744 236.496 314.376 236.89C314.009 237.285 313.508 237.53 312.971 237.577C312.434 237.624 311.899 237.471 311.468 237.146C311.037 236.822 310.742 236.349 310.64 235.82C310.344 234.671 309.745 233.623 308.906 232.784C308.067 231.945 307.019 231.346 305.87 231.05Z" fill="#3D3D3D" fill-opacity="0.5"/>
<path d="M318.53 237.07H297.4V216C297.428 215.428 297.339 214.856 297.139 214.319C296.94 213.782 296.633 213.292 296.238 212.877C295.843 212.462 295.368 212.132 294.841 211.906C294.315 211.681 293.748 211.564 293.175 211.564C292.602 211.564 292.035 211.681 291.509 211.906C290.982 212.132 290.507 212.462 290.112 212.877C289.717 213.292 289.41 213.782 289.211 214.319C289.011 214.856 288.922 215.428 288.95 216V237.12H267.82C266.698 237.12 265.622 237.566 264.829 238.359C264.036 239.152 263.59 240.228 263.59 241.35C263.59 242.472 264.036 243.548 264.829 244.341C265.622 245.134 266.698 245.58 267.82 245.58H289V266.7C288.972 267.272 289.061 267.844 289.261 268.381C289.46 268.918 289.767 269.408 290.162 269.823C290.557 270.238 291.032 270.568 291.559 270.794C292.085 271.019 292.652 271.136 293.225 271.136C293.798 271.136 294.365 271.019 294.891 270.794C295.418 270.568 295.893 270.238 296.288 269.823C296.683 269.408 296.99 268.918 297.189 268.381C297.389 267.844 297.478 267.272 297.45 266.7V245.53H318.58C319.702 245.53 320.778 245.084 321.571 244.291C322.364 243.498 322.81 242.422 322.81 241.3C322.81 240.178 322.364 239.102 321.571 238.309C320.778 237.516 319.702 237.07 318.58 237.07H318.53Z" fill="#3D3D3D"/>
<path d="M452.9 376.291C451.681 382.158 448.482 387.427 443.839 391.214C439.196 395.002 433.392 397.077 427.4 397.091H162.6C155.712 397.068 149.112 394.321 144.241 389.45C139.371 384.579 136.624 377.98 136.6 371.091V193.191C136.624 186.303 139.371 179.704 144.241 174.833C149.112 169.962 155.712 167.215 162.6 167.191H427.4C434.288 167.215 440.888 169.962 445.759 174.833C450.629 179.704 453.376 186.303 453.4 193.191V371.091C453.409 372.837 453.242 374.579 452.9 376.291Z" fill="#717171" stroke="#393939" stroke-width="5" stroke-miterlimit="10"/>
<path d="M406.6 87.5913H183.3C168.941 87.5913 157.3 99.2319 157.3 113.591V327.921C157.3 342.281 168.941 353.921 183.3 353.921H406.6C420.959 353.921 432.6 342.281 432.6 327.921V113.591C432.6 99.2319 420.959 87.5913 406.6 87.5913Z" fill="white" stroke="#393939" stroke-width="5" stroke-miterlimit="10"/>
<path d="M323.8 208.292C327.7 208.292 330.5 212.191 329.7 216.191C327.979 224.669 323.379 232.29 316.682 237.764C309.984 243.239 301.6 246.229 292.95 246.229C284.3 246.229 275.916 243.239 269.218 237.764C262.52 232.29 257.921 224.669 256.2 216.191C255.963 215.275 255.934 214.317 256.117 213.389C256.299 212.46 256.688 211.584 257.255 210.826C257.821 210.068 258.55 209.446 259.389 209.008C260.228 208.569 261.154 208.324 262.1 208.292H323.8Z" fill="#393939"/>
<path d="M293.2 241.092C299.481 241.217 305.605 239.128 310.5 235.191C310.869 234.881 311.12 234.454 311.211 233.98C311.302 233.507 311.228 233.016 311 232.592C307.9 226.792 301.1 222.792 293.2 222.792C285.3 222.792 278.5 226.792 275.4 232.592C275.198 233.005 275.137 233.474 275.227 233.926C275.318 234.378 275.554 234.787 275.9 235.092C280 238.792 286.2 241.092 293.2 241.092Z" fill="#D00F0F"/>
<path d="M332.2 173.991C332.2 165.691 339.7 158.991 349 158.991C358.3 158.991 365.8 165.691 365.8 173.991" stroke="#393939" stroke-width="5" stroke-miterlimit="10" stroke-linecap="round"/>
<path d="M218.7 173.991C218.7 165.691 226.2 158.991 235.5 158.991C244.8 158.991 252.3 165.691 252.3 173.991" stroke="#393939" stroke-width="5" stroke-miterlimit="10" stroke-linecap="round"/>
<path d="M366.2 146.291C363.6 140.991 351.4 132.191 341.9 131.591" stroke="#393939" stroke-width="5" stroke-miterlimit="10" stroke-linecap="round"/>
<path d="M216.4 146.291C219 140.991 231.2 132.191 240.7 131.591" stroke="#393939" stroke-width="5" stroke-miterlimit="10" stroke-linecap="round"/>
<path d="M451.9 186.691C451.9 186.691 322.4 288.191 313.4 294.091C304.4 299.991 286.4 299.891 276.5 294.091C266.6 288.291 137.9 186.491 137.9 186.491C137.145 188.65 136.707 190.907 136.6 193.191V371.091C136.624 377.98 139.371 384.579 144.241 389.45C149.112 394.321 155.712 397.067 162.6 397.091H427.4C434.296 397.091 440.909 394.352 445.785 389.476C450.661 384.6 453.4 377.987 453.4 371.091V193.191C453.4 190.691 452.5 188.891 451.9 186.691Z" fill="#C4C4C4" stroke="#393939" stroke-width="5" stroke-miterlimit="10"/>
<path d="M263.3 279.692C263.3 279.692 274.6 271.592 276.4 270.392C286.3 263.892 303.4 264.592 313.3 270.392C315 271.392 326.8 279.692 326.8 279.692" stroke="#D3D3D3" stroke-width="7" stroke-linejoin="bevel"/>
<path d="M430.2 193.292L313.4 282.192C308.51 287.052 301.895 289.781 295 289.781C288.105 289.781 281.49 287.052 276.6 282.192L159.8 193.292V200.992L276.6 291.592C284.5 297.292 303.5 297.992 313.6 291.592L430.2 200.691V193.292Z" fill="#D3D3D3"/>
<path d="M425.2 381.491H163.2C149.1 381.491 139 370.491 139 357.091V370.291C139 383.691 149.1 394.591 163.2 394.591H425.2C437.9 395.791 449.1 386.191 450.4 375.091C450.662 373.469 450.829 371.833 450.9 370.191V358.091C450.909 359.408 450.741 360.72 450.4 361.991C448 373.091 437.6 381.491 425.2 381.491Z" fill="#9B9B9B"/>
<path d="M225.4 315.291C225.4 315.291 267.3 282.291 276.4 276.391C285.5 270.491 303.4 270.591 313.3 276.391C323.2 282.191 355 307.891 355 307.891" fill="#C4C4C4"/>
<path d="M139.8 381.892C139.8 381.892 267.3 282.392 276.3 276.492C285.3 270.592 303.3 270.692 313.2 276.492C323.1 282.292 449.8 382.092 449.8 382.092" stroke="#393939" stroke-width="5" stroke-miterlimit="10"/>
</svg>
