
<svg xmlns="http://www.w3.org/2000/svg" xml:space="preserve" baseProfile="tiny" overflow="visible" version="1.2" viewBox="0 0 300 180"><switch><g><path fill="#5E5E5E" d="M103.6 52.4c-.2-.7-1.7-5.2-5.2-8.3 1.6-.6 3.3-1.6 4.8-3 3-2.9 4.5-6.9 4.5-12s-1.5-9.1-4.5-11.8c-4.3-3.9-10.1-3.7-11-3.6H66.3v56.9h4.4V45.3H90c7 0 9.3 8 9.4 8.4l6.2 17.5 4.1-1.5-6.1-17.3zm-33-11.5V18h21.7s4.7-.4 7.8 2.5c2 1.9 3 4.7 3 8.5 0 3.9-1 6.9-3.1 8.9-3.1 3.1-7.7 3-7.8 3H70.6zM150.5 29.6v6.6c-3.4-4.7-8.6-7.7-14.3-7.7-10.3 0-18.7 9.7-18.7 21.6s8.4 21.6 18.7 21.6c5.7 0 10.9-3 14.3-7.7v7.3h4.4V29.6h-4.4zm-14.3 37.8c-7.9 0-14.3-7.7-14.3-17.3s6.4-17.3 14.3-17.3 14.3 7.7 14.3 17.3-6.4 17.3-14.3 17.3zM188 34.2v-4.4h-13.2V17.5l-4.4 2.1v10.3h-7.8v4.4h7.8V59c0 6.8 5.6 12.4 12.4 12.4h5.2V67h-5.2c-4.4 0-8-3.6-8-8V34.2H188zM195.6 29.6h4.4v41.7h-4.4z"/><ellipse cx="198.2" cy="16.1" fill="#5E5E5E" rx="3.4" ry="3.8"/><path fill="#5E5E5E" d="M232.5 29H229c-4.4 0-8.4 1.9-11.3 4.8v-4.2h-4.4v41.8h4.4V44.7c0-6.2 5.1-11.3 11.3-11.3h3.5c6.2 0 11.3 5.1 11.3 11.3v25.8h4.4V44.7c0-8.6-7-15.7-15.7-15.7zM289.6 28.4v7.4c-3.4-4.4-8.6-7.2-14.3-7.2-10.3 0-18.7 9.1-18.7 20.2S265 69 275.3 69c5.7 0 10.9-2.8 14.3-7.2v11.8c0 6.2-5 11.2-11.2 11.2H274.6c-.1 0-8 .4-11.5-3.6l-3.3 2.9c4.1 4.7 11.7 5.1 14.2 5.1h4.4c8.6 0 15.6-7 15.6-15.6V28.4h-4.4zm-14.3 36.2c-7.9 0-14.3-7.1-14.3-15.9s6.4-15.9 14.3-15.9 14.3 7.1 14.3 15.9-6.5 15.9-14.3 15.9zM110.8 112.2c0-5.1.4-9.1.2-12.9h7.1l-.1 6.7h.2c3.3-4.8 8.4-7.7 15.5-7.7 10.6 0 18.5 8.1 18.5 20.1 0 14.2-9.6 21.2-19.9 21.2-5.8 0-10.8-2.3-13.5-6.2h-.2V158h-7.9v-45.8zm7.9 10.5c0 1.1.2 2 .4 2.9 1.4 5 6.2 8.4 11.9 8.4 8.4 0 13.3-6.2 13.3-15.3 0-7.9-4.6-14.7-13-14.7-5.4 0-10.5 3.5-12 8.9-.3.9-.5 2-.5 2.9v6.9zM101.2 139.6h-7.9v-6.1h-.2c-2.6 3.9-7.7 6.2-13.5 6.2-10.3 0-19.9-7-19.9-21.2 0-12 8-20.1 18.5-20.1 7.1 0 12.3 2.9 15.5 7.7h.3v-6.8h7.1c-.2 3.8 0 7.8 0 12.9v27.4zm-7.9-23.7c0-1-.3-2-.5-2.9-1.5-5.4-6.6-8.9-12-8.9-8.4 0-13 6.8-13 14.7 0 9.1 4.9 15.3 13.3 15.3 5.7 0 10.5-3.4 11.9-8.4.2-.9.4-1.9.4-2.9v-6.9zM228.3 139.6h-7.9v-6.1h-.2c-2.6 3.9-7.7 6.2-13.5 6.2-10.3 0-19.9-7-19.9-21.2 0-12 8-20.1 18.5-20.1 7.1 0 12.3 2.9 15.5 7.7h.2l-.1-6.8h7.1l.3 40.3zm-7.9-23.7c0-1-.3-2-.5-2.9-1.5-5.4-6.6-8.9-12-8.9-8.4 0-13 6.8-13 14.7 0 9.1 4.9 15.3 13.3 15.3 5.7 0 10.5-3.4 11.9-8.4.2-.9.4-1.9.4-2.9v-6.9zM171.8 84.9v14.4h11.4v5.5h-11.4V126c0 4.9 1.5 7.7 6 7.7 2.1 0 3.6-.2 4.6-.5l.4 5.4c-1.5.6-4 1-7.1 1-3.7 0-6.7-1.1-8.6-3-2.3-2.1-3.1-5.6-3.1-10.3v-21.5h-6.8v-5.5h6.8V89.2l7.8-4.3zM243.1 88.1c3.2 0 5.2-2 5.1-4.4 0-2.5-1.9-4.5-4.9-4.5-2.9 0-5 2-5 4.5s2 4.4 4.8 4.4zM239.3 99.3h8v39.5h-8zM257.8 99.3h7.3l-.1 6.5h.2c2.2-3.8 7.2-7.4 14.5-7.4 6.1 0 15.5 3.3 15.5 16.8v23.6h-8V116c0-6.4-2.6-11.7-10.1-11.7-5.2 0-9.3 3.3-10.7 7.3-.4.9-.5 2.1-.5 3.3v23.7h-8V99.3zM50.3 129.3c-.2.1-.5.3-.7.4-.9.6-1.9 1.2-3.3 1.9-1.3.7-2.9 1.3-4.8 1.9-1.9.6-4.1.8-6.6.8-3 0-5.6-.5-8-1.4-2.4-1-4.3-2.4-6-4.3-1.6-1.9-2.9-4.2-3.7-7-.9-2.8-1.3-6-1.3-9.6 0-3.7.4-6.9 1.3-9.8s2.2-5.3 3.8-7.2c1.6-2 3.6-3.5 5.9-4.5 2.3-1 4.9-1.5 7.7-1.5 2.6 0 4.8.3 6.6.9 1.8.6 3.4 1.2 4.7 1.9 1.3.7 2.3 1.3 3.2 1.9.2.2.4.3.6.4l1.6 1 3.2-5.4s-3.3-2.9-5.8-4.1c-1.1-.6-2.4-1.2-3.9-1.6-1.5-.5-3.1-.9-4.8-1.2-1.7-.3-3.5-.5-5.3-.5-4.1 0-7.9.7-11.3 2-3.4 1.4-6.3 3.3-8.8 5.9-2.4 2.6-4.3 5.7-5.7 9.5-1.3 3.7-2 8-2 12.7 0 4.6.6 8.7 1.9 12.3 1.3 3.6 3 6.6 5.4 9 2.3 2.4 5.1 4.3 8.4 5.5 3.3 1.2 7 1.9 11.1 1.9 2.4 0 4.6-.2 6.6-.6 2-.4 3.8-.9 5.3-1.5s2.8-1.2 3.9-1.8c0 0 2.9-1.7 5-3.4l-2.3-5.9c.1 0-.7.7-1.9 1.4zM150.9 150.3l3.3 6.7 7.4 1.1c.9.1 1.2 1.2.6 1.8l-5.4 5.2 1.3 7.4c.1.9-.8 1.5-1.5 1.1l-6.6-3.5-6.6 3.5c-.8.4-1.7-.2-1.5-1.1l1.3-7.4-5.4-5.2c-.6-.6-.3-1.7.6-1.8l7.4-1.1 3.3-6.7c.3-.8 1.4-.8 1.8 0zM183.8 150.3l3.3 6.7 7.4 1.1c.9.1 1.2 1.2.6 1.8l-5.4 5.2 1.3 7.4c.1.9-.8 1.5-1.5 1.1l-6.6-3.5-6.6 3.5c-.8.4-1.7-.2-1.5-1.1l1.3-7.4-5.4-5.2c-.6-.6-.3-1.7.6-1.8l7.4-1.1 3.3-6.7c.3-.8 1.4-.8 1.8 0zM217.3 150.3l3.3 6.7 7.4 1.1c.9.1 1.2 1.2.6 1.8l-5.4 5.2 1.3 7.4c.1.9-.8 1.5-1.5 1.1l-6.6-3.5-6.6 3.5c-.8.4-1.7-.2-1.5-1.1l1.3-7.4-5.4-5.2c-.6-.6-.3-1.7.6-1.8l7.4-1.1 3.3-6.7c.3-.8 1.4-.8 1.8 0zM250.2 150.3l3.3 6.7 7.4 1.1c.9.1 1.2 1.2.6 1.8l-5.4 5.2 1.3 7.4c.1.9-.8 1.5-1.5 1.1l-6.6-3.5-6.6 3.5c-.8.4-1.7-.2-1.5-1.1l1.3-7.4-5.4-5.2c-.6-.6-.3-1.7.6-1.8l7.4-1.1 3.3-6.7c.3-.8 1.4-.8 1.8 0zM294.2 158.1l-7.4-1.1-3.3-6.7c-.2-.4-.6-.6-.9-.6-.4 0-.7.2-.9.6l-3.3 6.7-7.4 1.1c-.9.1-1.2 1.2-.6 1.8l5.4 5.2-1.3 7.4c-.1.7.4 1.2 1 1.2.2 0 .3 0 .5-.1l6.6-3.5 6.6 3.5c.2.1.3.1.5.1.6 0 1.1-.5 1-1.2l-1.3-7.4 5.4-5.2c.6-.6.2-1.7-.6-1.8zm-5.6 6.2-.4.4.1.6 1.2 7.3-6.6-3.4-.5-.3v-18l3.3 6.6.3.5.6.1 7.3 1.1-5.3 5.1z"/></g></switch></svg>