<?xml version="1.0" encoding="utf-8"?>
<!-- Generator: Adobe Illustrator 25.0.0, SVG Export Plug-In . SVG Version: 6.00 Build 0)  -->
<svg version="1.1" id="Layer_1" xmlns="http://www.w3.org/2000/svg" xmlns:xlink="http://www.w3.org/1999/xlink" x="0px" y="0px"
	 viewBox="0 0 417 417" style="enable-background:new 0 0 417 417;" xml:space="preserve">
<style type="text/css">
	.st0{fill:url(#SVGID_1_);}
	.st1{fill:url(#SVGID_2_);}
	.st2{fill:url(#SVGID_3_);}
	.st3{fill:url(#SVGID_4_);}
	.st4{fill:url(#SVGID_5_);}
	.st5{fill:url(#SVGID_6_);}
</style>
<linearGradient id="SVGID_1_" gradientUnits="userSpaceOnUse" x1="73.0864" y1="227.0709" x2="152.4197" y2="428.4043" gradientTransform="matrix(1 0 0 1 0 -145)">
	<stop  offset="0" style="stop-color:#9A7A49"/>
	<stop  offset="1" style="stop-color:#000000"/>
</linearGradient>
<path class="st0" d="M154.2,182.9c0,0,0,19.1,5.4,36.7c-6.8,5-23.2,16.1-23.2,16.1s31.6-3.2,41.2,5.7c-40.6,9.6-78.2,20-105.3,20
	c-14.5,0-24.3-1.8-30.5-3.6l-7.2-2.4c0,0,60.6-34.4,98.5-90.3c7.4-10.9,9.2-22.7,2.2-30.9c-4.4-5.2-10.7-7.9-17-7.9
	c-4.9,0-9.8,1.6-13.9,4.9c-1.5,1.2-2.8,2.6-3.9,4.2c-1.1,1.6-2,3.3-2.6,5.1l-4.6,13.9h-60c0,0,6.3-84,88.7-84
	c29,0,50.3,12.7,65.3,30.3C187.3,100.7,154.2,122.3,154.2,182.9z"/>
<linearGradient id="SVGID_2_" gradientUnits="userSpaceOnUse" x1="214.5171" y1="171.404" x2="293.8503" y2="372.7373" gradientTransform="matrix(1 0 0 1 0 -145)">
	<stop  offset="0" style="stop-color:#9A7A49"/>
	<stop  offset="1" style="stop-color:#000000"/>
</linearGradient>
<path class="st1" d="M275.3,70.4c-60.9,0-110.3,49.4-110.3,110.3c0,21.9,6.4,42.4,17.4,59.6l0,0c7.5-1.8,15.2-3.5,22.9-5.2
	c13.9-3.1,25.3-5.8,35.2-8.1c-13.9-10.7-22.8-27.6-22.8-46.5c0-32.4,26.3-58.7,58.8-58.7c32.4,0,58.8,26.3,58.8,58.7
	c0,14-4.9,26.9-13.1,37c20.8,1.6,37.8,8.2,48.2,19.4c9.8-16.5,15.4-35.7,15.4-56.2C385.7,119.8,336.3,70.4,275.3,70.4z"/>
<g>
	
		<linearGradient id="SVGID_3_" gradientUnits="userSpaceOnUse" x1="186.6227" y1="182.3955" x2="265.956" y2="383.7289" gradientTransform="matrix(1 0 0 1 0 -145)">
		<stop  offset="0" style="stop-color:#9A7A49"/>
		<stop  offset="1" style="stop-color:#000000"/>
	</linearGradient>
	<path class="st2" d="M258.4,195.5c0,0.4,0,0.7-0.1,1c0,0.3-0.1,0.5-0.2,0.7c-0.1,0.2-0.2,0.3-0.3,0.4c-0.1,0.1-0.3,0.1-0.4,0.1
		h-16.2c-0.4,0-0.8-0.1-1.2-0.4c-0.4-0.3-0.6-0.8-0.6-1.5v-34c0-0.2,0-0.3,0.1-0.4c0.1-0.1,0.2-0.2,0.4-0.3c0.2-0.1,0.4-0.1,0.8-0.2
		c0.3,0,0.7-0.1,1.2-0.1s0.9,0,1.2,0.1c0.3,0,0.6,0.1,0.8,0.2c0.2,0.1,0.3,0.2,0.4,0.3c0.1,0.1,0.1,0.2,0.1,0.4v31.8h13.2
		c0.2,0,0.3,0,0.4,0.1c0.1,0.1,0.2,0.2,0.3,0.4s0.1,0.4,0.2,0.6C258.4,194.8,258.4,195.1,258.4,195.5z"/>
	
		<linearGradient id="SVGID_4_" gradientUnits="userSpaceOnUse" x1="209.6611" y1="173.3175" x2="288.9943" y2="374.6508" gradientTransform="matrix(1 0 0 1 0 -145)">
		<stop  offset="0" style="stop-color:#9A7A49"/>
		<stop  offset="1" style="stop-color:#000000"/>
	</linearGradient>
	<path class="st3" d="M291.2,195.9c0.2,0.4,0.2,0.8,0.2,1c0,0.3-0.1,0.4-0.2,0.6c-0.2,0.1-0.4,0.2-0.8,0.3c-0.4,0-0.8,0.1-1.4,0.1
		c-0.6,0-1.1,0-1.4,0c-0.4,0-0.6-0.1-0.8-0.1c-0.2-0.1-0.3-0.2-0.4-0.3c-0.1-0.1-0.2-0.3-0.2-0.4l-3.2-8.9h-15.3l-3,8.8
		c-0.1,0.2-0.1,0.3-0.2,0.4c-0.1,0.1-0.2,0.2-0.4,0.3s-0.4,0.1-0.8,0.2c-0.3,0-0.8,0.1-1.3,0.1s-1,0-1.3-0.1c-0.4,0-0.6-0.1-0.7-0.3
		c-0.1-0.1-0.2-0.3-0.2-0.6s0.1-0.6,0.2-1l12.3-34.1c0.1-0.2,0.2-0.4,0.3-0.5c0.1-0.1,0.3-0.2,0.5-0.3s0.5-0.1,0.9-0.2
		c0.4,0,0.8,0,1.4,0c0.6,0,1.1,0,1.5,0s0.7,0.1,1,0.2c0.2,0.1,0.4,0.2,0.6,0.3c0.1,0.1,0.2,0.3,0.3,0.5L291.2,195.9z M275.4,165.7
		L275.4,165.7L269,184h12.8L275.4,165.7z"/>
	
		<linearGradient id="SVGID_5_" gradientUnits="userSpaceOnUse" x1="242.8905" y1="160.2238" x2="322.2237" y2="361.5571" gradientTransform="matrix(1 0 0 1 0 -145)">
		<stop  offset="0" style="stop-color:#9A7A49"/>
		<stop  offset="1" style="stop-color:#000000"/>
	</linearGradient>
	<path class="st4" d="M315.8,163c0,0.4,0,0.7-0.1,0.9c-0.1,0.2-0.1,0.5-0.2,0.6c-0.1,0.2-0.2,0.3-0.3,0.4c-0.1,0.1-0.3,0.1-0.4,0.1
		h-10.3v31.9c0,0.2,0,0.3-0.1,0.4c-0.1,0.1-0.2,0.2-0.4,0.3s-0.4,0.1-0.8,0.2c-0.3,0-0.7,0.1-1.2,0.1s-0.8,0-1.2-0.1
		c-0.3,0-0.6-0.1-0.8-0.2c-0.2-0.1-0.3-0.2-0.4-0.3c-0.1-0.1-0.1-0.2-0.1-0.4V165h-10.2c-0.2,0-0.3,0-0.4-0.1
		c-0.1-0.1-0.2-0.2-0.3-0.4c-0.1-0.2-0.1-0.4-0.2-0.6c0-0.3-0.1-0.6-0.1-0.9c0-0.4,0-0.7,0.1-1c0-0.3,0.1-0.5,0.2-0.7
		c0.1-0.2,0.2-0.3,0.3-0.4c0.1-0.1,0.3-0.1,0.4-0.1h25.6c0.2,0,0.3,0,0.4,0.1c0.1,0.1,0.2,0.2,0.3,0.4s0.1,0.4,0.2,0.7
		C315.8,162.3,315.8,162.6,315.8,163z"/>
</g>
<linearGradient id="SVGID_6_" gradientUnits="userSpaceOnUse" x1="195.6519" y1="179.7907" x2="274.9851" y2="381.124" gradientTransform="matrix(1 0 0 1 0 -145)">
	<stop  offset="0" style="stop-color:#9A7A49"/>
	<stop  offset="1" style="stop-color:#000000"/>
</linearGradient>
<path class="st5" d="M233.3,303.9c0,0,115.1,48,142.9,15.3C376.2,319.2,340.9,275,233.3,303.9z"/>
<path d="M79.9,291.1c0.9,1.4,1.3,3.3,1.2,5.8c0,2.2-0.4,4.2-1,6c-0.7,1.8-1.5,3.3-2.6,4.7c-0.8,1-1.7,1.8-2.7,2.5
	c-0.8,0.5-1.7,0.8-2.7,1.1c-1.7,0.4-3.7,0.6-5.9,0.5l-4.9,0l5.2-23.7l5.4,0.1c2.1,0,3.7,0.2,4.6,0.5C78,288.8,79.1,289.8,79.9,291.1
	z"/>
<path d="M138.6,287.1c-1.1-2.9-1.9-5.4-2.4-7.3c-0.3,1.9-0.9,4.1-1.7,6.8l-3.1,9.9l10-2L138.6,287.1z M138.6,287.1
	c-1.1-2.9-1.9-5.4-2.4-7.3c-0.3,1.9-0.9,4.1-1.7,6.8l-3.1,9.9l10-2L138.6,287.1z M138.6,287.1c-1.1-2.9-1.9-5.4-2.4-7.3
	c-0.3,1.9-0.9,4.1-1.7,6.8l-3.1,9.9l10-2L138.6,287.1z M172,299l-0.2,0.6l0.2,0L172,299z M186.3,275.4c-1.2-2.9-2.1-5.2-2.8-7.2
	c-0.2,1.9-0.7,4.2-1.4,6.8l-2.6,10.1l9.9-2.6L186.3,275.4z M186.3,275.4c-1.2-2.9-2.1-5.2-2.8-7.2c-0.2,1.9-0.7,4.2-1.4,6.8
	l-2.6,10.1l9.9-2.6L186.3,275.4z M172,299l-0.2,0.6l0.2,0L172,299z M138.6,287.1c-1.1-2.9-1.9-5.4-2.4-7.3c-0.3,1.9-0.9,4.1-1.7,6.8
	l-3.1,9.9l10-2L138.6,287.1z M138.6,287.1c-1.1-2.9-1.9-5.4-2.4-7.3c-0.3,1.9-0.9,4.1-1.7,6.8l-3.1,9.9l10-2L138.6,287.1z M172,299
	l-0.2,0.6l0.2,0L172,299z M186.3,275.4c-1.2-2.9-2.1-5.2-2.8-7.2c-0.2,1.9-0.7,4.2-1.4,6.8l-2.6,10.1l9.9-2.6L186.3,275.4z
	 M186.3,275.4c-1.2-2.9-2.1-5.2-2.8-7.2c-0.2,1.9-0.7,4.2-1.4,6.8l-2.6,10.1l9.9-2.6L186.3,275.4z M172,299l-0.2,0.6l0.2,0L172,299z
	 M138.6,287.1c-1.1-2.9-1.9-5.4-2.4-7.3c-0.3,1.9-0.9,4.1-1.7,6.8l-3.1,9.9l10-2L138.6,287.1z M138.6,287.1
	c-1.1-2.9-1.9-5.4-2.4-7.3c-0.3,1.9-0.9,4.1-1.7,6.8l-3.1,9.9l10-2L138.6,287.1z M172,299l-0.2,0.6l0.2,0L172,299z M186.3,275.4
	c-1.2-2.9-2.1-5.2-2.8-7.2c-0.2,1.9-0.7,4.2-1.4,6.8l-2.6,10.1l9.9-2.6L186.3,275.4z M274.8,256.8c-0.5-3-1.8-5.3-3.8-6.8
	s-4.2-2-6.7-1.6c-3.2,0.6-5.7,2.4-7.7,5.6c-1.9,3.1-2.5,7-1.7,11.5c0.3,1.8,1,3.4,2,4.7c1,1.4,2.3,2.3,3.9,2.9
	c1.6,0.6,3.2,0.7,4.8,0.4c1.6-0.3,3-0.9,4.2-1.9c1.3-1,2.4-2.2,3.2-3.8c0.9-1.5,1.5-3.3,1.8-5.3
	C275.1,260.6,275.1,258.7,274.8,256.8z M274.8,256.8c-0.5-3-1.8-5.3-3.8-6.8s-4.2-2-6.7-1.6c-3.2,0.6-5.7,2.4-7.7,5.6
	c-1.9,3.1-2.5,7-1.7,11.5c0.3,1.8,1,3.4,2,4.7c1,1.4,2.3,2.3,3.9,2.9c1.6,0.6,3.2,0.7,4.8,0.4c1.6-0.3,3-0.9,4.2-1.9
	c1.3-1,2.4-2.2,3.2-3.8c0.9-1.5,1.5-3.3,1.8-5.3C275.1,260.6,275.1,258.7,274.8,256.8z M186.3,275.4c-1.2-2.9-2.1-5.2-2.8-7.2
	c-0.2,1.9-0.7,4.2-1.4,6.8l-2.6,10.1l9.9-2.6L186.3,275.4z M172,299l-0.2,0.6l0.2,0L172,299z M138.6,287.1c-1.1-2.9-1.9-5.4-2.4-7.3
	c-0.3,1.9-0.9,4.1-1.7,6.8l-3.1,9.9l10-2L138.6,287.1z M138.6,287.1c-1.1-2.9-1.9-5.4-2.4-7.3c-0.3,1.9-0.9,4.1-1.7,6.8l-3.1,9.9
	l10-2L138.6,287.1z M172,299l-0.2,0.6l0.2,0L172,299z M186.3,275.4c-1.2-2.9-2.1-5.2-2.8-7.2c-0.2,1.9-0.7,4.2-1.4,6.8l-2.6,10.1
	l9.9-2.6L186.3,275.4z M274.8,256.8c-0.5-3-1.8-5.3-3.8-6.8s-4.2-2-6.7-1.6c-3.2,0.6-5.7,2.4-7.7,5.6c-1.9,3.1-2.5,7-1.7,11.5
	c0.3,1.8,1,3.4,2,4.7c1,1.4,2.3,2.3,3.9,2.9c1.6,0.6,3.2,0.7,4.8,0.4c1.6-0.3,3-0.9,4.2-1.9c1.3-1,2.4-2.2,3.2-3.8
	c0.9-1.5,1.5-3.3,1.8-5.3C275.1,260.6,275.1,258.7,274.8,256.8z M274.8,256.8c-0.5-3-1.8-5.3-3.8-6.8s-4.2-2-6.7-1.6
	c-3.2,0.6-5.7,2.4-7.7,5.6c-1.9,3.1-2.5,7-1.7,11.5c0.3,1.8,1,3.4,2,4.7c1,1.4,2.3,2.3,3.9,2.9c1.6,0.6,3.2,0.7,4.8,0.4
	c1.6-0.3,3-0.9,4.2-1.9c1.3-1,2.4-2.2,3.2-3.8c0.9-1.5,1.5-3.3,1.8-5.3C275.1,260.6,275.1,258.7,274.8,256.8z M186.3,275.4
	c-1.2-2.9-2.1-5.2-2.8-7.2c-0.2,1.9-0.7,4.2-1.4,6.8l-2.6,10.1l9.9-2.6L186.3,275.4z M172,299l-0.2,0.6l0.2,0L172,299z M138.6,287.1
	c-1.1-2.9-1.9-5.4-2.4-7.3c-0.3,1.9-0.9,4.1-1.7,6.8l-3.1,9.9l10-2L138.6,287.1z M138.6,287.1c-1.1-2.9-1.9-5.4-2.4-7.3
	c-0.3,1.9-0.9,4.1-1.7,6.8l-3.1,9.9l10-2L138.6,287.1z M172,299l-0.2,0.6l0.2,0L172,299z M186.3,275.4c-1.2-2.9-2.1-5.2-2.8-7.2
	c-0.2,1.9-0.7,4.2-1.4,6.8l-2.6,10.1l9.9-2.6L186.3,275.4z M274.8,256.8c-0.5-3-1.8-5.3-3.8-6.8s-4.2-2-6.7-1.6
	c-3.2,0.6-5.7,2.4-7.7,5.6c-1.9,3.1-2.5,7-1.7,11.5c0.3,1.8,1,3.4,2,4.7c1,1.4,2.3,2.3,3.9,2.9c1.6,0.6,3.2,0.7,4.8,0.4
	c1.6-0.3,3-0.9,4.2-1.9c1.3-1,2.4-2.2,3.2-3.8c0.9-1.5,1.5-3.3,1.8-5.3C275.1,260.6,275.1,258.7,274.8,256.8z M274.8,256.8
	c-0.5-3-1.8-5.3-3.8-6.8s-4.2-2-6.7-1.6c-3.2,0.6-5.7,2.4-7.7,5.6c-1.9,3.1-2.5,7-1.7,11.5c0.3,1.8,1,3.4,2,4.7
	c1,1.4,2.3,2.3,3.9,2.9c1.6,0.6,3.2,0.7,4.8,0.4c1.6-0.3,3-0.9,4.2-1.9c1.3-1,2.4-2.2,3.2-3.8c0.9-1.5,1.5-3.3,1.8-5.3
	C275.1,260.6,275.1,258.7,274.8,256.8z M186.3,275.4c-1.2-2.9-2.1-5.2-2.8-7.2c-0.2,1.9-0.7,4.2-1.4,6.8l-2.6,10.1l9.9-2.6
	L186.3,275.4z M171.8,299.6l0.2,0l0-0.5L171.8,299.6z M138.6,287.1c-1.1-2.9-1.9-5.4-2.4-7.3c-0.3,1.9-0.9,4.1-1.7,6.8l-3.1,9.9
	l10-2L138.6,287.1z M274.8,256.8c-0.5-3-1.8-5.3-3.8-6.8s-4.2-2-6.7-1.6c-3.2,0.6-5.7,2.4-7.7,5.6c-1.9,3.1-2.5,7-1.7,11.5
	c0.3,1.8,1,3.4,2,4.7c1,1.4,2.3,2.3,3.9,2.9c1.6,0.6,3.2,0.7,4.8,0.4c1.6-0.3,3-0.9,4.2-1.9c1.3-1,2.4-2.2,3.2-3.8
	c0.9-1.5,1.5-3.3,1.8-5.3C275.1,260.6,275.1,258.7,274.8,256.8z M183.6,268.2c-0.2,1.9-0.7,4.2-1.4,6.8l-2.6,10.1l9.9-2.6l-3.1-7.2
	C185.1,272.5,184.2,270.1,183.6,268.2z M171.8,299.6l0.2,0l0-0.5L171.8,299.6z M136.2,279.7c-0.3,1.9-0.9,4.1-1.7,6.8l-3.1,9.9l10-2
	l-2.7-7.3C137.5,284.1,136.7,281.7,136.2,279.7z M138.6,287.1c-1.1-2.9-1.9-5.4-2.4-7.3c-0.3,1.9-0.9,4.1-1.7,6.8l-3.1,9.9l10-2
	L138.6,287.1z M172,299l-0.2,0.6l0.2,0L172,299z M186.3,275.4c-1.2-2.9-2.1-5.2-2.8-7.2c-0.2,1.9-0.7,4.2-1.4,6.8l-2.6,10.1l9.9-2.6
	L186.3,275.4z M274.8,256.8c-0.5-3-1.8-5.3-3.8-6.8s-4.2-2-6.7-1.6c-3.2,0.6-5.7,2.4-7.7,5.6c-1.9,3.1-2.5,7-1.7,11.5
	c0.3,1.8,1,3.4,2,4.7c1,1.4,2.3,2.3,3.9,2.9c1.6,0.6,3.2,0.7,4.8,0.4c1.6-0.3,3-0.9,4.2-1.9c1.3-1,2.4-2.2,3.2-3.8
	c0.9-1.5,1.5-3.3,1.8-5.3C275.1,260.6,275.1,258.7,274.8,256.8z M274.8,256.8c-0.5-3-1.8-5.3-3.8-6.8s-4.2-2-6.7-1.6
	c-3.2,0.6-5.7,2.4-7.7,5.6c-1.9,3.1-2.5,7-1.7,11.5c0.3,1.8,1,3.4,2,4.7c1,1.4,2.3,2.3,3.9,2.9c1.6,0.6,3.2,0.7,4.8,0.4
	c1.6-0.3,3-0.9,4.2-1.9c1.3-1,2.4-2.2,3.2-3.8c0.9-1.5,1.5-3.3,1.8-5.3C275.1,260.6,275.1,258.7,274.8,256.8z M186.3,275.4
	c-1.2-2.9-2.1-5.2-2.8-7.2c-0.2,1.9-0.7,4.2-1.4,6.8l-2.6,10.1l9.9-2.6L186.3,275.4z M172,299l-0.2,0.6l0.2,0L172,299z M138.6,287.1
	c-1.1-2.9-1.9-5.4-2.4-7.3c-0.3,1.9-0.9,4.1-1.7,6.8l-3.1,9.9l10-2L138.6,287.1z M138.6,287.1c-1.1-2.9-1.9-5.4-2.4-7.3
	c-0.3,1.9-0.9,4.1-1.7,6.8l-3.1,9.9l10-2L138.6,287.1z M172,299l-0.2,0.6l0.2,0L172,299z M186.3,275.4c-1.2-2.9-2.1-5.2-2.8-7.2
	c-0.2,1.9-0.7,4.2-1.4,6.8l-2.6,10.1l9.9-2.6L186.3,275.4z M274.8,256.8c-0.5-3-1.8-5.3-3.8-6.8s-4.2-2-6.7-1.6
	c-3.2,0.6-5.7,2.4-7.7,5.6c-1.9,3.1-2.5,7-1.7,11.5c0.3,1.8,1,3.4,2,4.7c1,1.4,2.3,2.3,3.9,2.9c1.6,0.6,3.2,0.7,4.8,0.4
	c1.6-0.3,3-0.9,4.2-1.9c1.3-1,2.4-2.2,3.2-3.8c0.9-1.5,1.5-3.3,1.8-5.3C275.1,260.6,275.1,258.7,274.8,256.8z M274.8,256.8
	c-0.5-3-1.8-5.3-3.8-6.8s-4.2-2-6.7-1.6c-3.2,0.6-5.7,2.4-7.7,5.6c-1.9,3.1-2.5,7-1.7,11.5c0.3,1.8,1,3.4,2,4.7
	c1,1.4,2.3,2.3,3.9,2.9c1.6,0.6,3.2,0.7,4.8,0.4c1.6-0.3,3-0.9,4.2-1.9c1.3-1,2.4-2.2,3.2-3.8c0.9-1.5,1.5-3.3,1.8-5.3
	C275.1,260.6,275.1,258.7,274.8,256.8z M186.3,275.4c-1.2-2.9-2.1-5.2-2.8-7.2c-0.2,1.9-0.7,4.2-1.4,6.8l-2.6,10.1l9.9-2.6
	L186.3,275.4z M172,299l-0.2,0.6l0.2,0L172,299z M138.6,287.1c-1.1-2.9-1.9-5.4-2.4-7.3c-0.3,1.9-0.9,4.1-1.7,6.8l-3.1,9.9l10-2
	L138.6,287.1z M138.6,287.1c-1.1-2.9-1.9-5.4-2.4-7.3c-0.3,1.9-0.9,4.1-1.7,6.8l-3.1,9.9l10-2L138.6,287.1z M172,299l-0.2,0.6l0.2,0
	L172,299z M186.3,275.4c-1.2-2.9-2.1-5.2-2.8-7.2c-0.2,1.9-0.7,4.2-1.4,6.8l-2.6,10.1l9.9-2.6L186.3,275.4z M274.8,256.8
	c-0.5-3-1.8-5.3-3.8-6.8s-4.2-2-6.7-1.6c-3.2,0.6-5.7,2.4-7.7,5.6c-1.9,3.1-2.5,7-1.7,11.5c0.3,1.8,1,3.4,2,4.7
	c1,1.4,2.3,2.3,3.9,2.9c1.6,0.6,3.2,0.7,4.8,0.4c1.6-0.3,3-0.9,4.2-1.9c1.3-1,2.4-2.2,3.2-3.8c0.9-1.5,1.5-3.3,1.8-5.3
	C275.1,260.6,275.1,258.7,274.8,256.8z M274.8,256.8c-0.5-3-1.8-5.3-3.8-6.8s-4.2-2-6.7-1.6c-3.2,0.6-5.7,2.4-7.7,5.6
	c-1.9,3.1-2.5,7-1.7,11.5c0.3,1.8,1,3.4,2,4.7c1,1.4,2.3,2.3,3.9,2.9c1.6,0.6,3.2,0.7,4.8,0.4c1.6-0.3,3-0.9,4.2-1.9
	c1.3-1,2.4-2.2,3.2-3.8c0.9-1.5,1.5-3.3,1.8-5.3C275.1,260.6,275.1,258.7,274.8,256.8z M186.3,275.4c-1.2-2.9-2.1-5.2-2.8-7.2
	c-0.2,1.9-0.7,4.2-1.4,6.8l-2.6,10.1l9.9-2.6L186.3,275.4z M172,299l-0.2,0.6l0.2,0L172,299z M138.6,287.1c-1.1-2.9-1.9-5.4-2.4-7.3
	c-0.3,1.9-0.9,4.1-1.7,6.8l-3.1,9.9l10-2L138.6,287.1z M138.6,287.1c-1.1-2.9-1.9-5.4-2.4-7.3c-0.3,1.9-0.9,4.1-1.7,6.8l-3.1,9.9
	l10-2L138.6,287.1z M172,299l-0.2,0.6l0.2,0L172,299z M186.3,275.4c-1.2-2.9-2.1-5.2-2.8-7.2c-0.2,1.9-0.7,4.2-1.4,6.8l-2.6,10.1
	l9.9-2.6L186.3,275.4z M186.3,275.4c-1.2-2.9-2.1-5.2-2.8-7.2c-0.2,1.9-0.7,4.2-1.4,6.8l-2.6,10.1l9.9-2.6L186.3,275.4z M172,299
	l-0.2,0.6l0.2,0L172,299z M138.6,287.1c-1.1-2.9-1.9-5.4-2.4-7.3c-0.3,1.9-0.9,4.1-1.7,6.8l-3.1,9.9l10-2L138.6,287.1z M138.6,287.1
	c-1.1-2.9-1.9-5.4-2.4-7.3c-0.3,1.9-0.9,4.1-1.7,6.8l-3.1,9.9l10-2L138.6,287.1z M138.6,287.1c-1.1-2.9-1.9-5.4-2.4-7.3
	c-0.3,1.9-0.9,4.1-1.7,6.8l-3.1,9.9l10-2L138.6,287.1z"/>
<path d="M367.6,241.5c-10-10-26.9-17.4-50.6-18.4c-1.7-0.1-3.4-0.1-5.1-0.1c-24.6,0-40,2.8-64.4,8.4c-11.4,2.6-24.7,5.8-41.9,9.6
	c-6.5,1.4-13,2.9-19.3,4.4c-3.7,0.9-7.3,1.7-10.9,2.5c-42.2,10-79.8,19.4-102.8,19.4c-16.9,0-27.5-2.5-33.3-4.5
	c-4-1.4-4.6-1.9-4.6-1.9l0.2,61.7c23.3,13,61,9,113.7-4c38.9-9.6,86.3-22.1,118.5-28c11.4-2.1,20.9-3.3,27.5-3.3
	c3,0,5.9,0.1,8.7,0.1c31.4,1.1,49.6,7.6,60,13.9c10.4,6.3,12.9,12.3,12.9,12.3V254C374.3,249.6,371.5,245.5,367.6,241.5z
	 M84.2,303.8c-0.8,2-1.8,3.8-3,5.3c-1.2,1.5-2.5,2.7-3.8,3.6c-1.3,0.9-2.9,1.5-4.7,1.9c-1.4,0.3-3.1,0.5-5.1,0.4L56.5,315l6.8-30.7
	l9.3,0.1c2.2,0,3.9,0.2,5.1,0.5c1.7,0.5,3.1,1.2,4.3,2.4c1.2,1.1,2.1,2.5,2.7,4.2c0.6,1.7,0.9,3.5,0.8,5.6
	C85.3,299.6,84.9,301.8,84.2,303.8z M110.3,312.4l-22.7,2.5l0.1-3.1l13.3-20l2.8-4.2c0.5-0.8,1.1-1.6,1.6-2.3
	c-1.3,0.3-2.2,0.5-2.7,0.5l-1,0.1l-1.2,0.2l-1.2,0.1L89,287.3l0.4-3.6l21.1-2.3l0,3.2l-14.3,21.3c-1.8,2.6-2.9,4.3-3.3,5
	c0.6-0.2,1-0.2,1.2-0.3l16.7-1.8L110.3,312.4z M118.8,310.9l-4.1,0.7l1.4-31.4l4-0.6L118.8,310.9z M145.7,305.8l-3.2-8.4l-12.2,2.5
	l-3.1,9.7l-4.4,0.9l10.9-33.6l4.8-1l11.1,29.1L145.7,305.8z M194.4,293.7l-3.7-8.2l-12,3.1l-2.5,9.8l-4.4,1.1l0,0l-19.3,4.7
	l-0.4-12.9l-3.3,3l-0.1-3.6l3.3-3l-0.5-14.9l4-1l0.4,12.3l6.9-6.3l0.1,3.6l-6.9,6.4l0.4,12l15.5-3.7l0.1,3l8.9-33.6l4.7-1.2
	l12.7,28.5L194.4,293.7z M200.8,292l-1.6-31.4l4-1l1.4,27.8l15.5-4.1l0.2,3.6L200.8,292z M242.2,281.4l-11.6-15.5
	c-2.1-2.7-3.7-5.2-5-7.3c0.3,2,0.5,4.5,0.6,7.4l0.6,19.1l-3.9,1l-1-31.4l3.9-1l7.8,10c2.4,3,4.3,5.6,5.8,7.8
	c0.8,1.2,1.9,2.9,3.1,5.1c-0.2-2.6-0.4-5.3-0.5-8.1l-0.6-18.5l3.9-1l1,31.4L242.2,281.4z M297.6,234.6l4.8-0.2l-5.4,6l-3.1,0.1
	L297.6,234.6z M278.5,264.9c-0.6,2-1.4,3.9-2.5,5.5c-1.1,1.6-2.4,2.9-3.8,4c-1.9,1.4-4,2.2-6.3,2.7c-2.4,0.4-4.7,0.2-6.9-0.6
	c-2.2-0.8-4-2.2-5.4-4c-1.4-1.9-2.3-4-2.7-6.4c-1-5.4-0.2-10,2.3-13.9c2.5-3.9,6-6.2,10.5-7c3.8-0.7,7.1,0,9.9,2
	c2.8,2,4.6,5.1,5.3,9.3C279.4,259.3,279.3,262.2,278.5,264.9z M308,250.7l-4,0.5c0-0.9-0.1-1.5-0.3-2c-0.3-0.8-0.8-1.6-1.4-2.1
	c-0.6-0.6-1.4-1-2.5-1.3c-1-0.3-2.2-0.5-3.5-0.4c-2.2,0.1-4,0.6-5.2,1.7c-0.9,0.8-1.4,1.8-1.3,3.1c0,0.8,0.2,1.4,0.7,2
	c0.4,0.6,1.1,1.1,2.2,1.7c0.7,0.4,2.5,1.1,5.3,2.2c2.2,0.9,3.8,1.6,4.6,2.2c1.1,0.7,2,1.6,2.7,2.6c0.6,1,1,2.2,1,3.6
	c0.1,1.7-0.4,3.2-1.4,4.6c-1,1.4-2.3,2.6-4.1,3.4c-1.8,0.8-3.8,1.3-6.1,1.4c-3.5,0.1-6.4-0.5-8.6-2c-2.2-1.5-3.5-4.1-3.6-8.1l4-0.5
	l0,1.1c0,1.2,0.3,2.3,0.9,3.2c0.6,1,1.5,1.7,2.8,2.2c1.3,0.5,2.8,0.7,4.5,0.7c2.5-0.1,4.3-0.7,5.6-1.8c1.3-1.1,1.9-2.4,1.8-3.8
	c0-1-0.4-1.8-1.1-2.6c-0.7-0.8-2.7-1.8-5.8-3c-2.5-1-4.1-1.7-5-2.2c-1.4-0.9-2.5-1.8-3.2-2.9s-1.1-2.3-1.1-3.6
	c-0.1-1.6,0.3-3,1.2-4.3c0.8-1.3,2.1-2.3,3.7-3c1.6-0.7,3.5-1.1,5.6-1.2c2.5-0.1,4.6,0.3,6.4,1.1c1.8,0.8,3,1.9,3.9,3.2
	c0.8,1.4,1.2,2.7,1.3,4V250.7z M330.8,273c-2.7,1.5-5.5,2.2-8.5,1.8c-3.7-0.4-6.5-1.8-8.5-4.3c-1.9-2.5-2.7-5.9-2.2-10.1
	c0.6-5.5,2.7-9.9,6.4-13.1c3.3-2.9,7.1-4.1,11.5-3.6c3.2,0.3,5.8,1.5,7.6,3.5c1.8,2,2.7,4.4,2.8,7.4l-3.9-0.1c-0.2-2.2-0.8-4-2-5.2
	c-1.1-1.2-2.7-2-4.7-2.2c-3.7-0.4-6.9,0.9-9.6,4c-2.3,2.7-3.7,6-4.1,9.9c-0.3,3.1,0.2,5.6,1.5,7.5c1.4,1.8,3.3,2.9,5.8,3.1
	c2.1,0.2,4.1-0.3,6-1.5c1.9-1.2,3.3-3,4.4-5.5l4,1C335.6,269,333.4,271.4,330.8,273z M341,277.5l-4-1.1l14.6-27.8l3.9,1.1L341,277.5
	z"/>
</svg>
