<svg width="1070" height="692" viewBox="0 0 1070 692" fill="none" xmlns="http://www.w3.org/2000/svg">
<g clip-path="url(#clip0_15_2)">
<mask id="mask0_15_2" style="mask-type:luminance" maskUnits="userSpaceOnUse" x="0" y="0" width="1070" height="692">
<path d="M1070 0H0V692H1070V0Z" fill="white"/>
</mask>
<g mask="url(#mask0_15_2)">
<mask id="mask1_15_2" style="mask-type:luminance" maskUnits="userSpaceOnUse" x="581" y="-17" width="537" height="768">
<path d="M693.282 -16.6973L1117.24 50.9668L1005.65 750.154L581.691 682.49L693.282 -16.6973Z" fill="white"/>
</mask>
<g mask="url(#mask1_15_2)">
<mask id="mask2_15_2" style="mask-type:alpha" maskUnits="userSpaceOnUse" x="640" y="56" width="351" height="613">
<mask id="mask3_15_2" style="mask-type:luminance" maskUnits="userSpaceOnUse" x="136" y="-151" width="992" height="992">
<path d="M272.855 -150.414L1127.61 -13.9943L991.188 840.758L136.436 704.338L272.855 -150.414Z" fill="white"/>
</mask>
<g mask="url(#mask3_15_2)">
<mask id="mask4_15_2" style="mask-type:luminance" maskUnits="userSpaceOnUse" x="595" y="461" width="230" height="254">
<path d="M751.525 461.601L824.187 656.215L667.685 714.648L595.022 520.034L751.525 461.601Z" fill="white"/>
</mask>
<g mask="url(#mask4_15_2)">
<mask id="mask5_15_2" style="mask-type:luminance" maskUnits="userSpaceOnUse" x="136" y="-151" width="992" height="992">
<path d="M1127.61 -13.9943L272.855 -150.414L136.436 704.338L991.188 840.758L1127.61 -13.9943Z" fill="white"/>
<path d="M790.357 462.477L675.819 392.307L551.161 464.622L608.642 576.788L626.427 597.157L646.485 603.974C646.485 603.974 645.987 585.815 656.424 577.401C673.404 563.712 687.356 569.629 715.196 551.72C717.106 539.754 790.357 462.477 790.357 462.477Z" fill="black"/>
</mask>
<g mask="url(#mask5_15_2)">
<mask id="mask6_15_2" style="mask-type:luminance" maskUnits="userSpaceOnUse" x="614" y="483" width="191" height="211">
<path d="M744.352 483.219L804.602 644.588L674.858 693.03L614.609 531.661L744.352 483.219Z" fill="white"/>
</mask>
<g mask="url(#mask6_15_2)">
<path d="M640.938 588.195C640.938 588.195 626.794 495.827 722.006 504.016C722.006 504.016 706.574 517.711 703.842 540.906C701.109 564.101 706.682 581.753 646.017 591.995C646.017 591.995 650.716 566.439 677.654 540.512C677.654 540.512 652.706 547.792 640.938 588.195Z" fill="black"/>
<path d="M646.379 602.773C646.379 602.773 699.604 554.623 745.021 615.785C761.03 636.864 767.801 644.101 786.043 646.649C786.043 646.649 701.623 702.784 666.563 636.127C658.266 619.898 654.726 615.321 645.966 611.472C645.966 611.472 676.653 599.403 714.938 626.203C714.938 626.203 693.127 591.218 646.379 602.773Z" fill="black"/>
<mask id="mask7_15_2" style="mask-type:alpha" maskUnits="userSpaceOnUse" x="646" y="556" width="132" height="49">
<path d="M764.41 576.934C764.41 576.934 736.288 592.458 712.154 597.255C683.323 602.986 646.514 604.004 646.514 604.004L647.369 590.268C647.369 590.268 680.693 590.974 708.931 585.102C736.933 579.28 777.978 556.89 777.978 556.89L764.41 576.934Z" fill="black"/>
</mask>
<g mask="url(#mask7_15_2)">
<path d="M753.485 587.402L635.909 628.493L622.789 571.115L754.586 564.064L778.412 564.387L753.485 587.402Z" fill="black"/>
</g>
</g>
</g>
</g>
<mask id="mask8_15_2" style="mask-type:luminance" maskUnits="userSpaceOnUse" x="678" y="440" width="227" height="231">
<path d="M789.384 440.097L904.553 577.9L793.736 670.515L678.567 532.712L789.384 440.097Z" fill="white"/>
</mask>
<g mask="url(#mask8_15_2)">
<mask id="mask9_15_2" style="mask-type:luminance" maskUnits="userSpaceOnUse" x="136" y="-151" width="992" height="992">
<path d="M1127.61 -13.9943L272.855 -150.414L136.436 704.338L991.188 840.758L1127.61 -13.9943Z" fill="white"/>
<path d="M776.264 481.931C777.773 478.653 815.861 455.886 813.596 438.547C811.207 420.263 788.897 397.888 785.867 380.303C782.824 362.642 649.23 359.123 649.23 359.123L579.039 487.044L707.646 560.385L716.729 577.612L735.53 574.505C735.53 574.505 728.618 561.144 730.195 549.24C731.561 538.938 735.548 531.092 740.759 523.158C745.969 515.225 771.568 492.138 776.264 481.931Z" fill="black"/>
</mask>
<g mask="url(#mask9_15_2)">
<mask id="mask10_15_2" style="mask-type:luminance" maskUnits="userSpaceOnUse" x="697" y="459" width="189" height="192">
<path d="M789.747 459.785L885.241 574.047L793.372 650.827L697.878 536.564L789.747 459.785Z" fill="white"/>
</mask>
<g mask="url(#mask10_15_2)">
<path d="M735.591 575.094C735.591 575.094 697.516 503.844 777.503 483.162C777.503 483.162 768.856 498.764 773.293 518.461C777.729 538.158 787.346 550.951 740.824 576.733C740.824 576.733 737.312 554.545 751.827 525.665C751.827 525.665 733.577 538.77 735.591 575.094Z" fill="black"/>
<path d="M744.217 585.417C744.217 585.417 773.779 530.863 828.385 567.682C847.495 580.27 855.095 584.225 870.702 581.06C870.702 581.06 817.998 651.089 770.258 606.813C758.83 595.965 754.628 593.25 746.379 592.628C746.379 592.628 767.933 573.97 806.85 584.821C806.85 584.821 779.013 562.562 744.217 585.417Z" fill="black"/>
<mask id="mask11_15_2" style="mask-type:alpha" maskUnits="userSpaceOnUse" x="741" y="510" width="98" height="77">
<path d="M833.031 530.433C833.031 530.433 814.561 551.172 796.262 562.018C774.401 574.975 744.68 586.382 744.68 586.382L741.43 574.936C741.43 574.936 768.805 565.937 790.142 553.035C811.3 540.241 838.334 510.192 838.334 510.192L833.031 530.433Z" fill="black"/>
</mask>
<g mask="url(#mask11_15_2)">
<path d="M827.13 542.107L743.07 609.397L715.885 566.383L821.322 522.762L840.842 516.18L827.13 542.107Z" fill="black"/>
</g>
</g>
</g>
</g>
<mask id="mask12_15_2" style="mask-type:luminance" maskUnits="userSpaceOnUse" x="745" y="390" width="225" height="212">
<path d="M816.916 390.966L969.143 479.401L898.027 601.817L745.8 513.382L816.916 390.966Z" fill="white"/>
</mask>
<g mask="url(#mask12_15_2)">
<mask id="mask13_15_2" style="mask-type:luminance" maskUnits="userSpaceOnUse" x="136" y="-151" width="992" height="992">
<path d="M1127.61 -13.9943L272.855 -150.414L136.436 704.338L991.188 840.758L1127.61 -13.9943Z" fill="white"/>
<path d="M821.894 430.001L841.442 365.387C841.442 365.387 738.205 344.852 738.192 345.501C738.18 346.15 684.017 467.308 684.017 467.308L752.083 549.689L808.371 540.128L807.799 536.005C807.799 536.005 795.981 519.769 794.135 514.324C792.289 508.879 787.852 491.481 799.064 470.48C810.277 449.479 821.894 430.001 821.894 430.001Z" fill="black"/>
</mask>
<g mask="url(#mask13_15_2)">
<mask id="mask14_15_2" style="mask-type:luminance" maskUnits="userSpaceOnUse" x="764" y="408" width="187" height="176">
<path d="M823.839 408.985L950.061 482.312L891.104 583.797L764.882 510.47L823.839 408.985Z" fill="white"/>
</mask>
<g mask="url(#mask14_15_2)">
<path d="M812.523 533.352C812.523 533.352 753.6 480.443 820.38 434.622C820.38 434.622 817.632 451.891 828.312 468.555C838.991 485.22 852.132 493.789 817.893 533.111C817.893 533.111 807.233 513.842 810.943 482.375C810.943 482.375 798.513 500.557 812.523 533.352Z" fill="black"/>
<path d="M823.925 539.977C823.925 539.977 832.91 479.82 895.544 495.473C917.364 500.677 925.69 501.778 939.011 493.639C939.011 493.639 913.882 575.799 855.08 550.978C840.919 544.806 836.139 543.711 828.331 545.899C828.331 545.899 841.947 521.495 881.436 518.471C881.436 518.471 848.34 507.276 823.925 539.977Z" fill="black"/>
<mask id="mask15_15_2" style="mask-type:alpha" maskUnits="userSpaceOnUse" x="817" y="439" width="71" height="102">
<path d="M887.36 459.597C887.36 459.597 877.282 484.885 864.05 501.002C848.243 520.256 824.675 540.711 824.675 540.711L817.851 531.253C817.851 531.253 840.062 513.801 855.405 494.773C870.62 475.905 885.473 439.172 885.473 439.172L887.36 459.597Z" fill="black"/>
</mask>
<g mask="url(#mask15_15_2)">
<path d="M885.83 472.328L830.893 562.457L791.452 531.92L874.005 456.447L889.788 443.85L885.83 472.328Z" fill="black"/>
</g>
</g>
</g>
</g>
<mask id="mask16_15_2" style="mask-type:luminance" maskUnits="userSpaceOnUse" x="797" y="339" width="204" height="187">
<path d="M848.047 339.569L1000.42 402.719L949.64 525.256L797.264 462.105L848.047 339.569Z" fill="white"/>
</mask>
<g mask="url(#mask16_15_2)">
<mask id="mask17_15_2" style="mask-type:luminance" maskUnits="userSpaceOnUse" x="814" y="355" width="170" height="155">
<path d="M856.721 355.439L983.067 407.801L940.966 509.386L814.621 457.023L856.721 355.439Z" fill="white"/>
</mask>
<g mask="url(#mask17_15_2)">
<path d="M861.711 472.335C861.711 472.335 800.403 430.546 856.703 379.676C856.703 379.676 856.304 396.054 868.297 410.197C880.29 424.341 893.56 430.661 866.667 471.442C866.667 471.442 854.367 454.877 853.891 425.195C853.891 425.195 844.614 443.627 861.711 472.335Z" fill="black"/>
<path d="M873.124 477.066C873.124 477.066 873.971 420.085 934.082 426.815C954.993 428.928 962.862 428.913 974.217 419.696C974.217 419.696 961.121 499.12 903.425 483.399C889.506 479.432 884.931 479.011 877.953 482.015C877.953 482.015 887.556 457.657 923.848 449.929C923.848 449.929 891.72 443.657 873.124 477.066Z" fill="black"/>
<mask id="mask18_15_2" style="mask-type:alpha" maskUnits="userSpaceOnUse" x="866" y="375" width="57" height="103">
<path d="M922.013 394.521C922.013 394.521 915.806 419.259 905.527 435.874C893.248 455.723 873.912 477.654 873.912 477.654L866.396 469.721C866.396 469.721 884.847 450.748 896.723 431.167C908.5 411.751 917.715 375.79 917.715 375.79L922.013 394.521Z" fill="black"/>
</mask>
<g mask="url(#mask18_15_2)">
<path d="M922.178 406.533L882.396 497.071L841.965 473.63L909.219 393.26L922.305 379.596L922.178 406.533Z" fill="black"/>
</g>
</g>
</g>
<mask id="mask19_15_2" style="mask-type:luminance" maskUnits="userSpaceOnUse" x="839" y="298" width="170" height="145">
<path d="M858.228 298.672L1008.92 321.546L990.528 442.729L839.834 419.855L858.228 298.672Z" fill="white"/>
</mask>
<g mask="url(#mask19_15_2)">
<mask id="mask20_15_2" style="mask-type:luminance" maskUnits="userSpaceOnUse" x="854" y="310" width="141" height="121">
<path d="M869.527 310.986L994.478 329.952L979.229 430.415L854.278 411.449L869.527 310.986Z" fill="white"/>
</mask>
<g mask="url(#mask20_15_2)">
<path d="M899.916 414.746C899.916 414.746 835.654 390.848 874.884 332.733C874.884 332.733 878.156 347.514 892.051 357.543C905.945 367.573 919.25 370.3 904.165 412.846C904.165 412.846 889.459 400.713 882.452 374.191C882.452 374.191 878.215 392.783 899.916 414.746Z" fill="black"/>
<path d="M911.204 416.46C911.204 416.46 899.332 365.155 954.749 357.868C973.976 355.129 981.032 353.371 989.176 342.585C989.176 342.585 995.034 416.738 939.79 415.425C926.425 414.952 922.227 415.588 916.633 419.83C916.633 419.83 919.848 395.85 950.692 380.872C950.692 380.872 920.48 382.368 911.204 416.46Z" fill="black"/>
<mask id="mask21_15_2" style="mask-type:alpha" maskUnits="userSpaceOnUse" x="903" y="315" width="34" height="102">
<path d="M936.763 331.573C936.763 331.573 936.679 355.141 931.141 372.325C924.525 392.853 912.041 416.813 912.041 416.813L903.54 411.363C903.54 411.363 915.886 390.252 922.2 370.054C928.461 350.025 928.756 315.722 928.756 315.722L936.763 331.573Z" fill="black"/>
</mask>
<g mask="url(#mask21_15_2)">
<path d="M939.574 342.312L923.956 432.352L882.49 420.285L925.006 333.278L933.717 318.119L939.574 342.312Z" fill="black"/>
</g>
</g>
</g>
<mask id="mask22_15_2" style="mask-type:luminance" maskUnits="userSpaceOnUse" x="862" y="252" width="144" height="118">
<path d="M862.234 257.21L1001.74 252.428L1005.59 364.615L866.079 369.396L862.234 257.21Z" fill="white"/>
</mask>
<g mask="url(#mask22_15_2)">
<mask id="mask23_15_2" style="mask-type:luminance" maskUnits="userSpaceOnUse" x="874" y="262" width="120" height="98">
<path d="M874.479 266.392L990.153 262.428L993.341 355.432L877.667 359.397L874.479 266.392Z" fill="white"/>
</mask>
<g mask="url(#mask23_15_2)">
<path d="M919.306 354.681C919.306 354.681 857.433 343.988 882.963 285.067C882.963 285.067 888.397 297.822 902.594 304.511C916.79 311.2 929.227 311.415 922.81 352.255C922.81 352.255 907.529 343.809 896.756 321.113C896.756 321.113 896.073 338.563 919.306 354.681Z" fill="black"/>
<path d="M929.755 354.323C929.755 354.323 910.43 310.137 959.09 294.247C975.937 288.543 981.992 285.773 987.507 274.692C987.507 274.692 1005.27 340.459 955.314 348.578C943.203 350.403 939.531 351.682 935.21 356.443C935.21 356.443 934.067 334.314 959.31 315.638C959.31 315.638 932.366 322.071 929.755 354.323Z" fill="black"/>
<mask id="mask24_15_2" style="mask-type:alpha" maskUnits="userSpaceOnUse" x="921" y="260" width="20" height="95">
<path d="M938.471 273.604C938.471 273.604 942.364 294.834 940.272 311.236C937.773 330.829 930.569 354.5 930.569 354.5L921.998 351.025C921.998 351.025 929.558 329.942 931.841 310.697C934.104 291.612 928.594 260.683 928.594 260.683L938.471 273.604Z" fill="black"/>
</mask>
<g mask="url(#mask24_15_2)">
<path d="M942.81 282.798L943.911 366.482L904.551 362.601L928.175 277.118L933.464 262.006L942.81 282.798Z" fill="black"/>
</g>
</g>
</g>
<mask id="mask25_15_2" style="mask-type:luminance" maskUnits="userSpaceOnUse" x="861" y="185" width="148" height="129">
<path d="M861.05 212.929L986.229 185.766L1008.07 286.432L882.893 313.595L861.05 212.929Z" fill="white"/>
</mask>
<g mask="url(#mask25_15_2)">
<mask id="mask26_15_2" style="mask-type:luminance" maskUnits="userSpaceOnUse" x="873" y="196" width="123" height="107">
<path d="M873.609 219.215L977.404 196.693L995.513 280.146L891.718 302.668L873.609 219.215Z" fill="white"/>
</mask>
<g mask="url(#mask26_15_2)">
<path d="M928.542 291.592C928.542 291.592 870.925 292.069 884.328 234.688C884.328 234.688 891.323 245.314 905.237 249.029C919.15 252.744 930.415 250.902 931.309 288.827C931.309 288.827 916.128 283.704 902.685 264.976C902.685 264.976 904.925 280.843 928.542 291.592Z" fill="black"/>
<path d="M937.919 289.558C937.919 289.558 913.234 252.826 954.567 230.509C968.844 222.601 973.859 219.108 977.024 208.2C977.024 208.2 1003.83 264.674 960.055 280.184C949.419 283.815 946.313 285.572 943.191 290.578C943.191 290.578 938.535 270.785 958.269 249.788C958.269 249.788 934.994 260.009 937.919 289.558Z" fill="black"/>
<mask id="mask27_15_2" style="mask-type:alpha" maskUnits="userSpaceOnUse" x="921" y="205" width="20" height="85">
<path d="M932.57 215.248C932.57 215.248 939.561 233.78 940.358 248.931C941.31 267.031 938.682 289.584 938.682 289.584L930.375 287.85C930.375 287.85 933.748 267.576 932.657 249.825C931.576 232.223 921.536 205.198 921.536 205.198L932.57 215.248Z" fill="black"/>
</mask>
<g mask="url(#mask27_15_2)">
<path d="M937.993 222.839L952.691 298.218L916.517 301.159L923.849 220.107L926.149 205.596L937.993 222.839Z" fill="black"/>
</g>
</g>
</g>
<mask id="mask28_15_2" style="mask-type:luminance" maskUnits="userSpaceOnUse" x="850" y="131" width="145" height="136">
<path d="M850.266 187.179L949.509 131.511L994.275 211.319L895.032 266.987L850.266 187.179Z" fill="white"/>
</mask>
<g mask="url(#mask28_15_2)">
<mask id="mask29_15_2" style="mask-type:luminance" maskUnits="userSpaceOnUse" x="862" y="143" width="120" height="113">
<path d="M862.57 189.247L944.859 143.089L981.971 209.251L899.681 255.409L862.57 189.247Z" fill="white"/>
</mask>
<g mask="url(#mask29_15_2)">
<path d="M928.072 236.412C928.072 236.412 879.262 251.822 875.702 199.597C875.702 199.597 884.411 206.8 897.195 206.332C909.979 205.865 919.067 201.366 929.702 233.344C929.702 233.344 915.475 232.946 899.18 220.541C899.18 220.541 905.215 233.434 928.072 236.412Z" fill="black"/>
<path d="M935.506 232.243C935.506 232.243 904.976 207.475 934.269 177.757C944.336 167.323 947.685 163.05 947.532 152.962C947.532 152.962 985.004 193.945 951.866 218.518C943.778 224.371 941.598 226.672 940.249 231.737C940.249 231.737 931.141 216.139 942.434 193.166C942.434 193.166 925.328 207.909 935.506 232.243Z" fill="black"/>
<mask id="mask30_15_2" style="mask-type:alpha" maskUnits="userSpaceOnUse" x="899" y="164" width="38" height="69">
<path d="M911.612 170.523C911.612 170.523 922.376 184.442 926.998 197.103C932.521 212.228 936.161 232.067 936.161 232.067L928.654 232.757C928.654 232.757 926.239 214.66 920.691 199.868C915.189 185.199 899.624 164.862 899.624 164.862L911.612 170.523Z" fill="black"/>
</mask>
<g mask="url(#mask30_15_2)">
<path d="M918.195 175.558L950.307 235.751L920.35 247.669L905.47 176.921L903.646 163.998L918.195 175.558Z" fill="black"/>
</g>
</g>
</g>
<mask id="mask31_15_2" style="mask-type:luminance" maskUnits="userSpaceOnUse" x="833" y="92" width="131" height="130">
<path d="M833.097 159.75L909.62 92.3162L963.848 153.854L887.325 221.287L833.097 159.75Z" fill="white"/>
</mask>
<g mask="url(#mask31_15_2)">
<mask id="mask32_15_2" style="mask-type:luminance" maskUnits="userSpaceOnUse" x="844" y="103" width="109" height="108">
<path d="M844.269 159.25L907.72 103.337L952.676 154.352L889.225 210.266L844.269 159.25Z" fill="white"/>
</mask>
<g mask="url(#mask32_15_2)">
<path d="M910.539 188.283C910.539 188.283 870.654 210.958 857.723 165.854C857.723 165.854 866.709 170.532 877.826 167.72C888.943 164.908 896.063 159.259 911.392 185.287C911.392 185.287 898.847 187.611 882.235 179.8C882.235 179.8 889.947 189.966 910.539 188.283Z" fill="black"/>
<path d="M916.271 183.232C916.271 183.232 884.86 167.26 904.952 135.711C911.814 124.674 913.946 120.301 911.918 111.487C911.918 111.487 952.459 140.368 928.032 168.129C922.042 174.779 920.564 177.205 920.334 181.897C920.334 181.897 909.42 169.938 915.002 147.682C915.002 147.682 902.779 163.817 916.271 183.232Z" fill="black"/>
<mask id="mask33_15_2" style="mask-type:alpha" maskUnits="userSpaceOnUse" x="872" y="130" width="45" height="55">
<path d="M883.735 133.627C883.735 133.627 895.784 143.804 902.213 154.032C909.895 166.251 916.812 182.955 916.812 182.955L910.363 184.97C910.363 184.97 904.846 169.562 897.204 157.64C889.626 145.818 872.164 130.917 872.164 130.917L883.735 133.627Z" fill="black"/>
</mask>
<g mask="url(#mask33_15_2)">
<path d="M890.45 136.804L929.903 183.527L905.886 199.6L879.554 140.389L875.527 129.405L890.45 136.804Z" fill="black"/>
</g>
</g>
</g>
<mask id="mask34_15_2" style="mask-type:luminance" maskUnits="userSpaceOnUse" x="813" y="64" width="115" height="117">
<path d="M813.487 133.466L872.417 64.4114L927.948 111.801L869.018 180.855L813.487 133.466Z" fill="white"/>
</mask>
<g mask="url(#mask34_15_2)">
<mask id="mask35_15_2" style="mask-type:luminance" maskUnits="userSpaceOnUse" x="823" y="74" width="96" height="97">
<path d="M823.268 131.619L872.131 74.3613L918.167 113.648L869.304 170.905L823.268 131.619Z" fill="white"/>
</mask>
<g mask="url(#mask35_15_2)">
<path d="M885.314 148.851C885.314 148.851 853.029 173.854 835.954 135.743C835.954 135.743 844.46 138.732 853.901 134.854C863.342 130.976 868.903 125.102 885.688 146.104C885.688 146.104 874.928 149.732 859.307 144.942C859.307 144.942 867.382 152.928 885.314 148.851Z" fill="black"/>
<path d="M889.729 143.679C889.729 143.679 860.041 133.563 873.769 103.234C878.425 92.6459 879.753 88.5236 876.856 81.0139C876.856 81.0139 916.214 101.354 898.188 128.891C893.749 135.504 892.752 137.828 893.14 141.991C893.14 141.991 882.018 132.829 884.133 112.516C884.133 112.516 875.395 128.272 889.729 143.679Z" fill="black"/>
<mask id="mask36_15_2" style="mask-type:alpha" maskUnits="userSpaceOnUse" x="844" y="103" width="47" height="43">
<path d="M854.813 104.071C854.813 104.071 866.711 111.52 873.664 119.722C881.971 129.52 890.171 143.366 890.171 143.366L884.742 145.954C884.742 145.954 877.941 133.074 869.706 123.532C861.54 114.07 844.277 103.141 844.277 103.141L854.813 104.071Z" fill="black"/>
</mask>
<g mask="url(#mask36_15_2)">
<path d="M861.13 106.023L901.776 142.221L882.64 159.408L851.981 110.555L847.049 101.384L861.13 106.023Z" fill="black"/>
</g>
</g>
</g>
<mask id="mask37_15_2" style="mask-type:luminance" maskUnits="userSpaceOnUse" x="806" y="53" width="86" height="89">
<path d="M806.067 110.018L845.738 53.4143L891.257 85.3164L851.586 141.92L806.067 110.018Z" fill="white"/>
</mask>
<g mask="url(#mask37_15_2)">
<mask id="mask38_15_2" style="mask-type:luminance" maskUnits="userSpaceOnUse" x="813" y="60" width="71" height="75">
<path d="M813.347 107.91L846.241 60.9767L883.977 87.424L851.083 134.358L813.347 107.91Z" fill="white"/>
</mask>
<g mask="url(#mask38_15_2)">
<path d="M861.623 116.484C861.623 116.484 838.96 137.77 823.261 110.119C823.261 110.119 829.925 111.769 836.8 108.147C843.675 104.525 847.466 99.6697 861.707 114.375C861.707 114.375 853.814 117.903 841.628 115.402C841.628 115.402 848.326 120.871 861.623 116.484Z" fill="black"/>
<path d="M864.594 112.244C864.594 112.244 841.36 106.724 849.572 82.7429C852.335 74.3804 853.043 71.1597 850.304 65.6773C850.304 65.6773 881.607 78.2467 869.937 100.423C867.05 105.757 866.462 107.59 867.058 110.718C867.058 110.718 857.965 104.577 858.098 89.0286C858.098 89.0286 852.615 101.603 864.594 112.244Z" fill="black"/>
<mask id="mask39_15_2" style="mask-type:alpha" maskUnits="userSpaceOnUse" x="827" y="84" width="38" height="31">
<path d="M835.264 84.7482C835.264 84.7482 844.821 89.5338 850.685 95.2476C857.69 102.073 864.907 111.975 864.907 111.975L860.979 114.329C860.979 114.329 854.892 105.058 847.96 98.4217C841.086 91.8407 827.211 84.8054 827.211 84.8054L835.264 84.7482Z" fill="black"/>
</mask>
<g mask="url(#mask39_15_2)">
<path d="M840.194 85.7715L873.621 110.268L860.36 124.679L833.587 89.8679L829.185 83.2737L840.194 85.7715Z" fill="black"/>
</g>
</g>
</g>
<mask id="mask40_15_2" style="mask-type:luminance" maskUnits="userSpaceOnUse" x="771" y="33" width="95" height="84">
<path d="M771.025 75.7983L795.136 33.9084L865.905 74.6416L841.794 116.532L771.025 75.7983Z" fill="white"/>
</mask>
<g mask="url(#mask40_15_2)">
<path d="M837.4 89.6314C837.4 89.6314 798.503 96.7058 800.84 56.3415C800.84 56.3415 806.815 62.7061 816.656 63.5872C826.498 64.4686 833.898 61.903 838.947 87.4384C838.947 87.4384 828.083 85.7534 816.8 74.6673C816.8 74.6673 820.174 85.1323 837.4 89.6314Z" fill="black"/>
</g>
</g>
</mask>
<g mask="url(#mask2_15_2)">
<path d="M1086.41 79.3566L982.45 730.744L579.007 666.354L682.969 14.9666L1086.41 79.3566Z" fill="white"/>
</g>
</g>
<mask id="mask41_15_2" style="mask-type:luminance" maskUnits="userSpaceOnUse" x="-47" y="-21" width="537" height="768">
<path d="M377.717 -20.697L-46.2351 46.9663L65.3561 746.154L489.308 678.49L377.717 -20.697Z" fill="white"/>
</mask>
<g mask="url(#mask41_15_2)">
<mask id="mask42_15_2" style="mask-type:alpha" maskUnits="userSpaceOnUse" x="80" y="52" width="351" height="613">
<mask id="mask43_15_2" style="mask-type:luminance" maskUnits="userSpaceOnUse" x="-57" y="-155" width="992" height="992">
<path d="M798.139 -154.413L-56.6029 -17.9949L79.8166 836.757L934.559 700.339L798.139 -154.413Z" fill="white"/>
</mask>
<g mask="url(#mask43_15_2)">
<mask id="mask44_15_2" style="mask-type:luminance" maskUnits="userSpaceOnUse" x="246" y="457" width="230" height="254">
<path d="M319.476 457.601L246.815 652.215L403.315 710.648L475.977 516.034L319.476 457.601Z" fill="white"/>
</mask>
<g mask="url(#mask44_15_2)">
<mask id="mask45_15_2" style="mask-type:luminance" maskUnits="userSpaceOnUse" x="-57" y="-155" width="992" height="992">
<path d="M-56.6028 -17.9949L798.139 -154.413L934.559 700.339L79.8167 836.757L-56.6028 -17.9949Z" fill="white"/>
<path d="M280.644 458.477L395.181 388.307L519.837 460.623L462.358 572.788L444.573 593.157L424.515 599.974C424.515 599.974 425.013 581.815 414.576 573.401C397.596 559.712 383.644 565.629 355.805 547.72C353.895 535.754 280.644 458.477 280.644 458.477Z" fill="black"/>
</mask>
<g mask="url(#mask45_15_2)">
<mask id="mask46_15_2" style="mask-type:luminance" maskUnits="userSpaceOnUse" x="266" y="479" width="191" height="211">
<path d="M326.649 479.219L266.4 640.587L396.142 689.03L456.391 527.661L326.649 479.219Z" fill="white"/>
</mask>
<g mask="url(#mask46_15_2)">
<path d="M430.062 584.195C430.062 584.195 444.206 491.826 348.994 500.015C348.994 500.015 364.426 513.711 367.158 536.905C369.891 560.1 364.319 577.753 424.983 587.994C424.983 587.994 420.284 562.438 393.346 536.512C393.346 536.512 418.294 543.792 430.062 584.195Z" fill="black"/>
<path d="M424.621 598.772C424.621 598.772 371.396 550.623 325.98 611.784C309.972 632.864 303.201 640.101 284.958 642.648C284.958 642.648 369.378 698.784 404.437 632.127C412.734 615.898 416.274 611.32 425.034 607.471C425.034 607.471 394.347 595.403 356.063 622.203C356.063 622.203 377.873 587.217 424.621 598.772Z" fill="black"/>
<mask id="mask47_15_2" style="mask-type:alpha" maskUnits="userSpaceOnUse" x="293" y="552" width="132" height="49">
<path d="M306.591 572.933C306.591 572.933 334.713 588.458 358.847 593.255C387.677 598.986 424.486 600.004 424.486 600.004L423.631 586.267C423.631 586.267 390.307 586.974 362.069 581.102C334.068 575.279 293.024 552.89 293.024 552.89L306.591 572.933Z" fill="black"/>
</mask>
<g mask="url(#mask47_15_2)">
<path d="M317.516 583.401L435.09 624.493L448.21 567.115L316.415 560.064L292.59 560.387L317.516 583.401Z" fill="black"/>
</g>
</g>
</g>
</g>
<mask id="mask48_15_2" style="mask-type:luminance" maskUnits="userSpaceOnUse" x="166" y="436" width="227" height="231">
<path d="M281.617 436.096L166.45 573.9L277.266 666.515L392.433 528.711L281.617 436.096Z" fill="white"/>
</mask>
<g mask="url(#mask48_15_2)">
<mask id="mask49_15_2" style="mask-type:luminance" maskUnits="userSpaceOnUse" x="-57" y="-155" width="992" height="992">
<path d="M-56.603 -17.9949L798.139 -154.413L934.559 700.339L79.8165 836.757L-56.603 -17.9949Z" fill="white"/>
<path d="M294.737 477.931C293.229 474.653 255.141 451.886 257.406 434.547C259.795 416.263 282.104 393.888 285.134 376.303C288.177 358.641 421.77 355.123 421.77 355.123L491.96 483.045L363.355 556.385L354.272 573.612L335.471 570.504C335.471 570.504 342.383 557.144 340.805 545.24C339.44 534.938 335.453 527.092 330.242 519.158C325.032 511.225 299.434 488.138 294.737 477.931Z" fill="black"/>
</mask>
<g mask="url(#mask49_15_2)">
<mask id="mask50_15_2" style="mask-type:luminance" maskUnits="userSpaceOnUse" x="185" y="455" width="189" height="192">
<path d="M281.254 455.785L185.761 570.047L277.63 646.827L373.122 532.564L281.254 455.785Z" fill="white"/>
</mask>
<g mask="url(#mask50_15_2)">
<path d="M335.411 571.094C335.411 571.094 373.484 499.845 293.498 479.163C293.498 479.163 302.146 494.764 297.709 514.461C293.272 534.159 283.656 546.951 330.177 572.733C330.177 572.733 333.689 550.545 319.175 521.665C319.175 521.665 337.424 534.77 335.411 571.094Z" fill="black"/>
<path d="M326.785 581.417C326.785 581.417 297.222 526.863 242.617 563.682C223.507 576.27 215.907 580.225 200.301 577.06C200.301 577.06 253.004 647.089 300.743 602.813C312.172 591.965 316.374 589.25 324.622 588.629C324.622 588.629 303.068 569.97 264.152 580.821C264.152 580.821 291.988 558.562 326.785 581.417Z" fill="black"/>
<mask id="mask51_15_2" style="mask-type:alpha" maskUnits="userSpaceOnUse" x="232" y="506" width="98" height="77">
<path d="M237.972 526.433C237.972 526.433 256.44 547.172 274.74 558.018C296.601 570.975 326.321 582.382 326.321 582.382L329.571 570.936C329.571 570.936 302.197 561.937 280.86 549.035C259.701 536.241 232.668 506.192 232.668 506.192L237.972 526.433Z" fill="black"/>
</mask>
<g mask="url(#mask51_15_2)">
<path d="M243.872 538.107L327.931 605.397L355.115 562.383L249.68 518.762L230.16 512.18L243.872 538.107Z" fill="black"/>
</g>
</g>
</g>
</g>
<mask id="mask52_15_2" style="mask-type:luminance" maskUnits="userSpaceOnUse" x="101" y="386" width="225" height="212">
<path d="M254.085 386.966L101.86 475.4L172.976 597.816L325.201 509.382L254.085 386.966Z" fill="white"/>
</mask>
<g mask="url(#mask52_15_2)">
<mask id="mask53_15_2" style="mask-type:luminance" maskUnits="userSpaceOnUse" x="-57" y="-155" width="992" height="992">
<path d="M-56.6029 -17.9952L798.139 -154.413L934.559 700.339L79.8166 836.757L-56.6029 -17.9952Z" fill="white"/>
<path d="M249.107 426L229.56 361.387C229.56 361.387 332.796 340.852 332.808 341.501C332.82 342.15 386.983 463.308 386.983 463.308L318.919 545.689L262.63 536.128L263.203 532.005C263.203 532.005 275.02 515.769 276.867 510.324C278.713 504.879 283.15 487.481 271.937 466.48C260.724 445.479 249.107 426 249.107 426Z" fill="black"/>
</mask>
<g mask="url(#mask53_15_2)">
<mask id="mask54_15_2" style="mask-type:luminance" maskUnits="userSpaceOnUse" x="120" y="404" width="187" height="176">
<path d="M247.163 404.985L120.942 478.312L179.898 579.797L306.119 506.47L247.163 404.985Z" fill="white"/>
</mask>
<g mask="url(#mask54_15_2)">
<path d="M258.479 529.352C258.479 529.352 317.401 476.443 250.622 430.622C250.622 430.622 253.37 447.89 242.69 464.554C232.011 481.219 218.871 489.788 253.109 529.111C253.109 529.111 263.769 509.842 260.059 478.375C260.059 478.375 272.489 496.557 258.479 529.352Z" fill="black"/>
<path d="M247.077 535.977C247.077 535.977 238.092 475.819 175.459 491.472C153.639 496.676 145.313 497.777 131.992 489.639C131.992 489.639 157.121 571.799 215.923 546.978C230.083 540.806 234.863 539.71 242.671 541.898C242.671 541.898 229.055 517.494 189.567 514.47C189.567 514.47 222.663 503.275 247.077 535.977Z" fill="black"/>
<mask id="mask55_15_2" style="mask-type:alpha" maskUnits="userSpaceOnUse" x="183" y="435" width="71" height="102">
<path d="M183.642 455.596C183.642 455.596 193.72 480.885 206.952 497.002C222.759 516.256 246.326 536.711 246.326 536.711L253.151 527.253C253.151 527.253 230.94 509.801 215.597 490.773C200.382 471.905 185.529 435.171 185.529 435.171L183.642 455.596Z" fill="black"/>
</mask>
<g mask="url(#mask55_15_2)">
<path d="M185.173 468.328L240.109 558.456L279.55 527.919L196.997 452.447L181.215 439.85L185.173 468.328Z" fill="black"/>
</g>
</g>
</g>
</g>
<mask id="mask56_15_2" style="mask-type:luminance" maskUnits="userSpaceOnUse" x="70" y="335" width="204" height="187">
<path d="M222.954 335.568L70.5796 398.719L121.363 521.255L273.738 458.105L222.954 335.568Z" fill="white"/>
</mask>
<g mask="url(#mask56_15_2)">
<mask id="mask57_15_2" style="mask-type:luminance" maskUnits="userSpaceOnUse" x="87" y="351" width="170" height="155">
<path d="M214.281 351.438L87.9366 403.801L130.037 505.385L256.381 453.023L214.281 351.438Z" fill="white"/>
</mask>
<g mask="url(#mask57_15_2)">
<path d="M209.291 468.335C209.291 468.335 270.599 426.546 214.299 375.676C214.299 375.676 214.698 392.054 202.705 406.197C190.712 420.341 177.442 426.661 204.335 467.442C204.335 467.442 216.635 450.877 217.111 421.195C217.111 421.195 226.388 439.627 209.291 468.335Z" fill="black"/>
<path d="M197.878 473.066C197.878 473.066 197.032 416.085 136.92 422.815C116.01 424.928 108.141 424.913 96.7862 415.696C96.7862 415.696 109.882 495.12 167.578 479.399C181.496 475.432 186.071 475.011 193.049 478.015C193.049 478.015 183.446 453.657 147.155 445.929C147.155 445.929 179.282 439.657 197.878 473.066Z" fill="black"/>
<mask id="mask58_15_2" style="mask-type:alpha" maskUnits="userSpaceOnUse" x="148" y="371" width="57" height="103">
<path d="M148.99 390.521C148.99 390.521 155.197 415.259 165.476 431.874C177.755 451.723 197.09 473.654 197.09 473.654L204.606 465.721C204.606 465.721 186.155 446.748 174.279 427.167C162.502 407.751 153.287 371.79 153.287 371.79L148.99 390.521Z" fill="black"/>
</mask>
<g mask="url(#mask58_15_2)">
<path d="M148.824 402.533L188.607 493.071L229.036 469.63L161.784 389.26L148.698 375.596L148.824 402.533Z" fill="black"/>
</g>
</g>
</g>
<mask id="mask59_15_2" style="mask-type:luminance" maskUnits="userSpaceOnUse" x="62" y="294" width="170" height="145">
<path d="M212.774 294.672L62.0816 317.545L80.4759 438.728L231.168 415.855L212.774 294.672Z" fill="white"/>
</mask>
<g mask="url(#mask59_15_2)">
<mask id="mask60_15_2" style="mask-type:luminance" maskUnits="userSpaceOnUse" x="76" y="306" width="141" height="121">
<path d="M201.475 306.986L76.5255 325.952L91.7747 426.414L216.724 407.449L201.475 306.986Z" fill="white"/>
</mask>
<g mask="url(#mask60_15_2)">
<path d="M171.086 410.746C171.086 410.746 235.348 386.848 196.118 328.733C196.118 328.733 192.846 343.513 178.952 353.543C165.058 363.573 151.752 366.3 166.838 408.846C166.838 408.846 181.544 396.713 188.55 370.191C188.55 370.191 192.787 388.782 171.086 410.746Z" fill="black"/>
<path d="M159.799 412.46C159.799 412.46 171.671 361.155 116.254 353.867C97.027 351.128 89.9712 349.37 81.8276 338.584C81.8276 338.584 75.9698 412.738 131.213 411.424C144.578 410.951 148.776 411.587 154.37 415.83C154.37 415.83 151.155 391.85 120.311 376.871C120.311 376.871 150.523 378.367 159.799 412.46Z" fill="black"/>
<mask id="mask61_15_2" style="mask-type:alpha" maskUnits="userSpaceOnUse" x="134" y="311" width="34" height="102">
<path d="M134.24 327.572C134.24 327.572 134.324 351.141 139.862 368.325C146.477 388.853 158.962 412.813 158.962 412.813L167.462 407.363C167.462 407.363 155.116 386.252 148.803 366.054C142.542 346.025 142.247 311.721 142.247 311.721L134.24 327.572Z" fill="black"/>
</mask>
<g mask="url(#mask61_15_2)">
<path d="M131.428 338.312L147.047 428.351L188.512 416.285L145.996 329.277L137.286 314.119L131.428 338.312Z" fill="black"/>
</g>
</g>
</g>
<mask id="mask62_15_2" style="mask-type:luminance" maskUnits="userSpaceOnUse" x="65" y="248" width="144" height="118">
<path d="M208.767 253.21L69.2625 248.428L65.4177 360.614L204.923 365.396L208.767 253.21Z" fill="white"/>
</mask>
<g mask="url(#mask62_15_2)">
<mask id="mask63_15_2" style="mask-type:luminance" maskUnits="userSpaceOnUse" x="77" y="258" width="120" height="98">
<path d="M196.523 262.392L80.8499 258.427L77.6624 351.432L193.335 355.397L196.523 262.392Z" fill="white"/>
</mask>
<g mask="url(#mask63_15_2)">
<path d="M151.697 350.681C151.697 350.681 213.569 339.988 188.039 281.067C188.039 281.067 182.605 293.822 168.409 300.511C154.212 307.2 141.776 307.415 148.192 348.255C148.192 348.255 163.473 339.809 174.246 317.113C174.246 317.113 174.93 334.563 151.697 350.681Z" fill="black"/>
<path d="M141.247 350.323C141.247 350.323 160.572 306.137 111.913 290.246C95.0664 284.543 89.0107 281.773 83.4959 270.692C83.4959 270.692 65.7375 336.459 115.689 344.578C127.8 346.402 131.471 347.682 135.793 352.443C135.793 352.443 136.936 330.314 111.692 311.638C111.692 311.638 138.637 318.071 141.247 350.323Z" fill="black"/>
<mask id="mask64_15_2" style="mask-type:alpha" maskUnits="userSpaceOnUse" x="130" y="256" width="20" height="95">
<path d="M132.531 269.604C132.531 269.604 128.639 290.834 130.731 307.236C133.23 326.829 140.434 350.5 140.434 350.5L149.004 347.025C149.004 347.025 141.445 325.942 139.162 306.697C136.898 287.612 142.408 256.683 142.408 256.683L132.531 269.604Z" fill="black"/>
</mask>
<g mask="url(#mask64_15_2)">
<path d="M128.192 278.798L127.092 362.481L166.451 358.601L142.828 273.118L137.539 258.006L128.192 278.798Z" fill="black"/>
</g>
</g>
</g>
<mask id="mask65_15_2" style="mask-type:luminance" maskUnits="userSpaceOnUse" x="62" y="181" width="148" height="129">
<path d="M209.952 208.929L84.7741 181.766L62.9308 282.431L188.109 309.594L209.952 208.929Z" fill="white"/>
</mask>
<g mask="url(#mask65_15_2)">
<mask id="mask66_15_2" style="mask-type:luminance" maskUnits="userSpaceOnUse" x="75" y="192" width="123" height="107">
<path d="M197.392 215.215L93.5988 192.692L75.4904 276.145L179.284 298.668L197.392 215.215Z" fill="white"/>
</mask>
<g mask="url(#mask66_15_2)">
<path d="M142.46 287.591C142.46 287.591 200.077 288.069 186.674 230.688C186.674 230.688 179.679 241.314 165.765 245.029C151.852 248.744 140.587 246.902 139.693 284.827C139.693 284.827 154.874 279.704 168.318 260.976C168.318 260.976 166.077 276.843 142.46 287.591Z" fill="black"/>
<path d="M133.084 285.557C133.084 285.557 157.769 248.826 116.435 226.509C102.158 218.6 97.1443 215.107 93.9794 204.199C93.9794 204.199 67.1751 260.673 110.947 276.184C121.584 279.815 124.69 281.571 127.812 286.577C127.812 286.577 132.468 266.785 112.733 245.787C112.733 245.787 136.008 256.009 133.084 285.557Z" fill="black"/>
<mask id="mask67_15_2" style="mask-type:alpha" maskUnits="userSpaceOnUse" x="130" y="201" width="20" height="85">
<path d="M138.433 211.247C138.433 211.247 131.441 229.779 130.645 244.931C129.692 263.031 132.321 285.584 132.321 285.584L140.628 283.849C140.628 283.849 137.255 263.575 138.345 245.825C139.427 228.222 149.466 201.198 149.466 201.198L138.433 211.247Z" fill="black"/>
</mask>
<g mask="url(#mask67_15_2)">
<path d="M133.009 218.838L118.312 294.217L154.485 297.159L147.154 216.106L144.853 201.595L133.009 218.838Z" fill="black"/>
</g>
</g>
</g>
<mask id="mask68_15_2" style="mask-type:luminance" maskUnits="userSpaceOnUse" x="76" y="127" width="145" height="136">
<path d="M220.736 183.179L121.494 127.511L76.7284 207.319L175.971 262.987L220.736 183.179Z" fill="white"/>
</mask>
<g mask="url(#mask68_15_2)">
<mask id="mask69_15_2" style="mask-type:luminance" maskUnits="userSpaceOnUse" x="89" y="139" width="120" height="113">
<path d="M208.432 185.247L126.144 139.089L89.0325 205.251L171.321 251.409L208.432 185.247Z" fill="white"/>
</mask>
<g mask="url(#mask69_15_2)">
<path d="M142.93 232.412C142.93 232.412 191.74 247.821 195.3 195.597C195.3 195.597 186.591 202.8 173.807 202.332C161.023 201.864 151.936 197.366 141.3 229.344C141.3 229.344 155.527 228.945 171.822 216.54C171.822 216.54 165.787 229.433 142.93 232.412Z" fill="black"/>
<path d="M135.497 228.242C135.497 228.242 166.027 203.474 136.733 173.757C126.667 163.322 123.318 159.05 123.47 148.961C123.47 148.961 85.9993 189.945 119.137 214.517C127.225 220.371 129.405 222.671 130.753 227.736C130.753 227.736 139.862 212.138 128.569 189.166C128.569 189.166 145.675 203.908 135.497 228.242Z" fill="black"/>
<mask id="mask70_15_2" style="mask-type:alpha" maskUnits="userSpaceOnUse" x="134" y="160" width="38" height="69">
<path d="M159.39 166.523C159.39 166.523 148.626 180.442 144.004 193.103C138.482 208.227 134.841 228.066 134.841 228.066L142.348 228.756C142.348 228.756 144.763 210.659 150.311 195.867C155.814 181.199 171.378 160.861 171.378 160.861L159.39 166.523Z" fill="black"/>
</mask>
<g mask="url(#mask70_15_2)">
<path d="M152.807 171.558L120.696 231.75L150.652 243.669L165.532 172.921L167.356 159.997L152.807 171.558Z" fill="black"/>
</g>
</g>
</g>
<mask id="mask71_15_2" style="mask-type:luminance" maskUnits="userSpaceOnUse" x="107" y="88" width="131" height="130">
<path d="M237.904 155.749L161.382 88.3159L107.155 149.853L183.677 217.286L237.904 155.749Z" fill="white"/>
</mask>
<g mask="url(#mask71_15_2)">
<mask id="mask72_15_2" style="mask-type:luminance" maskUnits="userSpaceOnUse" x="118" y="99" width="109" height="108">
<path d="M226.732 155.25L163.282 99.3365L118.327 150.352L181.777 206.266L226.732 155.25Z" fill="white"/>
</mask>
<g mask="url(#mask72_15_2)">
<path d="M160.463 184.282C160.463 184.282 200.347 206.958 213.278 161.854C213.278 161.854 204.292 166.532 193.176 163.72C182.059 160.908 174.939 155.258 159.61 181.287C159.61 181.287 172.155 183.611 188.767 175.8C188.767 175.8 181.055 185.966 160.463 184.282Z" fill="black"/>
<path d="M154.731 179.232C154.731 179.232 186.142 163.259 166.05 131.71C159.188 120.674 157.056 116.3 159.084 107.487C159.084 107.487 118.544 136.367 142.971 164.129C148.96 170.779 150.439 173.204 150.669 177.897C150.669 177.897 161.582 165.937 156 143.682C156 143.682 168.223 159.816 154.731 179.232Z" fill="black"/>
<mask id="mask73_15_2" style="mask-type:alpha" maskUnits="userSpaceOnUse" x="154" y="126" width="45" height="55">
<path d="M187.267 129.627C187.267 129.627 175.218 139.804 168.789 150.032C161.107 162.25 154.19 178.954 154.19 178.954L160.639 180.969C160.639 180.969 166.156 165.562 173.797 153.64C181.375 141.818 198.837 126.917 198.837 126.917L187.267 129.627Z" fill="black"/>
</mask>
<g mask="url(#mask73_15_2)">
<path d="M180.551 132.803L141.1 179.526L165.116 195.599L191.447 136.388L195.475 125.404L180.551 132.803Z" fill="black"/>
</g>
</g>
</g>
<mask id="mask74_15_2" style="mask-type:luminance" maskUnits="userSpaceOnUse" x="143" y="60" width="115" height="117">
<path d="M257.514 129.466L198.585 60.4113L143.055 107.801L201.984 176.855L257.514 129.466Z" fill="white"/>
</mask>
<g mask="url(#mask74_15_2)">
<mask id="mask75_15_2" style="mask-type:luminance" maskUnits="userSpaceOnUse" x="152" y="70" width="96" height="97">
<path d="M247.733 127.619L198.871 70.3612L152.836 109.648L201.698 166.905L247.733 127.619Z" fill="white"/>
</mask>
<g mask="url(#mask75_15_2)">
<path d="M185.687 144.851C185.687 144.851 217.973 169.854 235.047 131.743C235.047 131.743 226.541 134.732 217.1 130.854C207.66 126.976 202.098 121.102 185.314 142.104C185.314 142.104 196.074 145.732 211.694 140.942C211.694 140.942 203.619 148.928 185.687 144.851Z" fill="black"/>
<path d="M181.273 139.679C181.273 139.679 210.961 129.562 197.232 99.2341C192.576 88.6456 191.248 84.5233 194.146 77.0137C194.146 77.0137 154.788 97.3532 172.814 124.89C177.253 131.504 178.25 133.828 177.862 137.991C177.862 137.991 188.984 128.828 186.869 108.516C186.869 108.516 195.607 124.272 181.273 139.679Z" fill="black"/>
<mask id="mask76_15_2" style="mask-type:alpha" maskUnits="userSpaceOnUse" x="180" y="99" width="47" height="43">
<path d="M216.188 100.071C216.188 100.071 204.291 107.52 197.337 115.722C189.031 125.52 180.831 139.366 180.831 139.366L186.26 141.954C186.26 141.954 193.061 129.074 201.296 119.532C209.462 110.07 226.724 99.1406 226.724 99.1406L216.188 100.071Z" fill="black"/>
</mask>
<g mask="url(#mask76_15_2)">
<path d="M209.872 102.023L169.226 138.221L188.362 155.408L219.021 106.555L223.952 97.3841L209.872 102.023Z" fill="black"/>
</g>
</g>
</g>
<mask id="mask77_15_2" style="mask-type:luminance" maskUnits="userSpaceOnUse" x="179" y="49" width="86" height="89">
<path d="M264.934 106.018L225.263 49.4143L179.745 81.3163L219.416 137.92L264.934 106.018Z" fill="white"/>
</mask>
<g mask="url(#mask77_15_2)">
<mask id="mask78_15_2" style="mask-type:luminance" maskUnits="userSpaceOnUse" x="187" y="56" width="71" height="75">
<path d="M257.654 103.91L224.76 56.9766L187.025 83.4239L219.918 130.358L257.654 103.91Z" fill="white"/>
</mask>
<g mask="url(#mask78_15_2)">
<path d="M209.379 112.484C209.379 112.484 232.041 133.77 247.74 106.119C247.74 106.119 241.076 107.769 234.201 104.147C227.326 100.525 223.535 95.6696 209.294 110.375C209.294 110.375 217.187 113.903 229.373 111.402C229.373 111.402 222.675 116.871 209.379 112.484Z" fill="black"/>
<path d="M206.407 108.244C206.407 108.244 229.641 102.724 221.429 78.7428C218.666 70.3803 217.958 67.1597 220.697 61.6773C220.697 61.6773 189.394 74.2466 201.065 96.4229C203.951 101.757 204.539 103.59 203.944 106.718C203.944 106.718 213.036 100.577 212.903 85.0285C212.903 85.0285 218.386 97.6027 206.407 108.244Z" fill="black"/>
<mask id="mask79_15_2" style="mask-type:alpha" maskUnits="userSpaceOnUse" x="206" y="80" width="38" height="31">
<path d="M235.737 80.7482C235.737 80.7482 226.18 85.5338 220.316 91.2475C213.311 98.0731 206.095 107.975 206.095 107.975L210.022 110.329C210.022 110.329 216.109 101.058 223.041 94.4216C229.915 87.8407 243.79 80.8054 243.79 80.8054L235.737 80.7482Z" fill="black"/>
</mask>
<g mask="url(#mask79_15_2)">
<path d="M230.807 81.7712L197.381 106.267L210.642 120.679L237.414 85.8677L241.816 79.2735L230.807 81.7712Z" fill="black"/>
</g>
</g>
</g>
<mask id="mask80_15_2" style="mask-type:luminance" maskUnits="userSpaceOnUse" x="205" y="29" width="95" height="84">
<path d="M299.975 71.7983L275.864 29.9084L205.097 70.6414L229.207 112.531L299.975 71.7983Z" fill="white"/>
</mask>
<g mask="url(#mask80_15_2)">
<path d="M233.601 85.6314C233.601 85.6314 272.498 92.7057 270.161 52.3415C270.161 52.3415 264.186 58.706 254.344 59.5871C244.503 60.4685 237.103 57.9029 232.054 83.4383C232.054 83.4383 242.918 81.7533 254.201 70.6673C254.201 70.6673 250.827 81.1322 233.601 85.6314Z" fill="black"/>
</g>
</g>
</mask>
<g mask="url(#mask42_15_2)">
<path d="M-15.4086 75.3558L88.5538 726.744L491.992 662.354L388.03 10.9666L-15.4086 75.3558Z" fill="white"/>
</g>
</g>
<path d="M736.684 374.032C736.684 391.1 734.995 403.9 731.627 412.434C728.254 420.968 721.404 425.235 711.083 425.235C700.544 425.235 693.59 420.968 690.222 412.434C686.849 403.9 685.165 391.1 685.165 374.032C685.165 357.177 686.849 344.48 690.222 335.946C693.59 327.413 700.544 323.146 711.083 323.146C721.404 323.146 728.254 327.413 731.627 335.946C734.995 344.48 736.684 357.177 736.684 374.032ZM616.263 374.032C616.263 410.488 624.006 439.196 639.493 460.16C654.981 481.129 678.844 491.609 711.083 491.609C743.109 491.609 766.918 481.129 782.514 460.16C798.105 439.196 805.903 410.488 805.903 374.032C805.903 337.793 798.105 309.189 782.514 288.22C766.918 267.256 743.109 256.771 711.083 256.771C678.844 256.771 654.981 267.202 639.493 288.062C624.006 308.923 616.263 337.581 616.263 374.032Z" fill="white"/>
<path d="M527.42 374.032C527.42 391.1 525.731 403.9 522.363 412.434C518.99 420.968 512.141 425.235 501.819 425.235C491.28 425.235 484.327 420.968 480.958 412.434C477.585 403.9 475.901 391.1 475.901 374.032C475.901 357.177 477.585 344.48 480.958 335.946C484.327 327.413 491.28 323.146 501.819 323.146C512.141 323.146 518.99 327.413 522.363 335.946C525.731 344.48 527.42 357.177 527.42 374.032ZM406.999 374.032C406.999 410.488 414.742 439.196 430.229 460.16C445.717 481.129 469.58 491.609 501.819 491.609C533.845 491.609 557.654 481.129 573.25 460.16C588.841 439.196 596.639 410.488 596.639 374.032C596.639 337.793 588.841 309.189 573.25 288.22C557.654 267.256 533.845 256.771 501.819 256.771C469.58 256.771 445.717 267.202 430.229 288.062C414.742 308.923 406.999 337.581 406.999 374.032Z" fill="white"/>
<path d="M306.146 327.571V492.873H379.789V261.829H272.643V327.571H306.146Z" fill="white"/>
<path d="M661.715 165.409H636.989V120.862H661.715C678.592 120.862 687.03 128.319 687.03 143.234C687.03 150.299 684.936 155.763 680.75 159.62C676.562 163.481 670.218 165.409 661.715 165.409ZM709.99 143.234C709.99 135.648 708.19 128.779 704.594 122.628C700.994 116.481 695.567 111.608 688.306 108.008C681.045 104.412 672.18 102.612 661.715 102.612H614.617V239H636.989V183.66H661.715C672.965 183.66 682.188 181.731 689.385 177.871C696.579 174.013 701.813 169.009 705.084 162.858C708.353 156.71 709.99 150.17 709.99 143.234Z" fill="white"/>
<path d="M525.661 220.946C516.634 220.946 508.588 218.885 501.523 214.764C494.459 210.643 488.93 204.756 484.941 197.102C480.949 189.449 478.956 180.587 478.956 170.512C478.956 160.439 480.949 151.608 484.941 144.019C488.93 136.433 494.459 130.61 501.523 126.553C508.588 122.5 516.634 120.47 525.661 120.47C534.688 120.47 542.734 122.5 549.799 126.553C556.864 130.61 562.389 136.433 566.381 144.019C570.37 151.608 572.367 160.439 572.367 170.512C572.367 180.587 570.37 189.449 566.381 197.102C562.389 204.756 556.864 210.643 549.799 214.764C542.734 218.885 534.688 220.946 525.661 220.946ZM525.661 240.374C538.481 240.374 550.222 237.399 560.886 231.445C571.548 225.493 579.953 217.186 586.104 206.522C592.251 195.861 595.327 183.856 595.327 170.512C595.327 157.167 592.251 145.196 586.104 134.599C579.953 124.002 571.548 115.729 560.886 109.775C550.222 103.823 538.481 100.846 525.661 100.846C512.97 100.846 501.293 103.823 490.632 109.775C479.967 115.729 471.529 124.002 465.317 134.599C459.101 145.196 455.995 157.167 455.995 170.512C455.995 183.856 459.101 195.861 465.317 206.522C471.529 217.186 479.967 225.493 490.632 231.445C501.293 237.399 512.97 240.374 525.661 240.374Z" fill="white"/>
<path d="M358.994 102.612V120.862H395.495V239H417.866V120.862H454.171V102.612H358.994Z" fill="white"/>
</g>
</g>
<defs>
<clipPath id="clip0_15_2">
<rect width="1070" height="692" fill="white"/>
</clipPath>
</defs>
</svg>
