<svg version="1.2" baseProfile="tiny" xmlns="http://www.w3.org/2000/svg" viewBox="0 0 3118.1 405.4" overflow="visible" xml:space="preserve"><path fill="#5B5B5B" d="M1060.7 332.9c6.3-.2 12.5-.2 18.8 0 4.9 0 9.3 3.1 12 7 2.2 3.4 2.3 7.7 1.8 11.6-.5 4-3.5 7.1-6.7 9.3-5.7 3.5-12.5 1.9-18.8 2.3-.6 6.6 0 13.2-.2 19.8-2.3.2-4.6.2-6.9 0 0-16.6-.1-33.3 0-50m7.2 7c-.5 5.4-.4 10.9-.1 16.3 4.4 0 8.7.3 13.1-.2 5.9-2 7.4-10.5 2.6-14.4-4.6-3-10.4-1.3-15.6-1.7m97.6 6.5c.1-3.1-.3-6.3.4-9.3 2.3-.1 4.5 0 6.8.1.2 3 0 6.1.2 9.1 2.3 1.3 5.4.3 8.1.7.1 2.1.1 4.3 0 6.4-2.7.1-5.5.2-8.2.5 0 6.5-.1 13 0 19.5-.1 1.7.7 3.7 2.5 4.1 2 .2 4-.2 6-.3.2 2.2 0 4.4-.6 6.6-3.3.2-6.6.6-9.8-.3-2.5-1.5-5.2-3.8-5.3-7-.7-7.5.2-15-.5-22.5-2.1-.3-4.1-.6-6.2-.9 0-2 0-4 .2-6 2.2-.2 4.4 0 6.4-.7m-66.2 7.1c5.6-10.4 23.3-10.5 29 0 1.6 3.4 1.3 7.4 1.3 11.1-.1 6.2.2 12.4-.1 18.5-1.8.1-3.6.1-5.4-.1-.6-.8-1.2-1.7-1.7-2.5-4.1 2.6-9 5.4-14 3.7-7.3-1.1-12.9-9.4-9.7-16.4 2-5.4 7.9-7.8 13.2-8.2 3.8-.3 7.4 1 11.1 1.2-.4-4.4-3.6-8.6-8.4-8.3-4.2-.7-7.6 1.8-10.4 4.6-1.8-.9-3.4-2.2-4.9-3.6m5.9 19.1c.3 3.7 4.3 5.7 7.6 5.5 5.2-.2 9.6-4.8 9.9-10-2.9-2.6-7-2.7-10.7-2.4-3.5.2-7.3 3.1-6.8 6.9m88.8-22.8c3.3-2 6.6-4.5 10.7-4 7-.7 13.2 5.5 13.3 12.4.1 8.3 0 16.5 0 24.8-2.3.2-4.6.3-7 .1-.3-8.2.4-16.5-.4-24.6-.4-5.3-6.9-6.9-11.1-5.3-3.7 1.6-5.8 5.6-5.8 9.6-.2 6.8.1 13.5 0 20.3-2.4.3-4.8.2-7.2 0-.1-12-.2-24 0-36 2.2-.2 4.4-.3 6.6.1.2.6.7 2 .9 2.6m36.6-.7c6.8-5.3 17.6-4.3 23.3 2.1 3.5 4.3 5.2 9.9 4.3 15.4-9.1.3-18.3 0-27.5.1-.8 6.7 6.1 12.1 12.5 11 3.8-.1 6-3.4 8.5-5.7 2.2-.3 4 1.4 5.9 2.2-3.7 9.1-15.7 12.9-24.3 8.4-12.5-5.6-13.5-25.4-2.7-33.5m.2 11.5c6.6.3 13.3.3 19.9 0-.4-4.8-5.2-8.7-10-8.1-4.9-.2-8.4 4-9.9 8.1m46.3-14.3c2.6-.9 5.3-.4 7.9 0 .2 2.4.3 4.9.2 7.3-2.6-.1-5.3-.8-8-.2-3.8 1.3-6.2 5.3-6.2 9.2-.2 6.7.1 13.5 0 20.2-2.4.3-4.8.3-7.1.1-.1-12-.1-24 0-35.9 1.9-.2 3.7-.2 5.6-.2.6.9 1.2 1.8 1.9 2.7 1.9-1 3.7-2.3 5.7-3.2m-134.6 4.3c2.6-1.5 5-3.7 8.1-3.7 1.6-.1 3.3 0 4.9.1.1 2.2.1 4.4.1 6.6-3.2.5-6.9-.3-9.4 2.1-1.7 1.7-3.3 3.8-3.4 6.3-.3 7.3.2 14.6-.2 21.9-2.3.2-4.6.2-6.8.1-.2-12-.2-24 0-36.1 2-.1 4-.2 5.9.2.3.5.6 1.8.8 2.5M952.3 66.4c44.7-47 127.5-50.2 173.6-3.8-11.7 12.5-24 24.5-36.3 36.4-37.6-36.8-103.9-15.6-119 33.2-14.2-10.5-27.9-21.8-42.1-32.5 5.6-12.6 14.1-23.8 23.8-33.3"/><path fill="#5B5B5B" d="M928.5 99.7c14.2 10.7 27.9 22 42.2 32.5-14.7 62.8 25.8 32.2-42.5 80.6-17.4-34.8-18-78.6.3-113.1M1042.6 133.2c39.2.4 78.5-.7 117.6.4 8.2 41.3-2.3 90-34.9 118.4-13.9-10.2-27.1-21.2-40.9-31.6 12-9.1 21.3-22.6 22.9-37.8-21.7-.4-43.4.2-65-.3-.1-16.3-1.2-33 .3-49.1"/><path fill="#5B5B5B" d="M937.2 206.9c11.1-9 22.4-17.5 33.5-26.3 15.2 46.1 73.1 66.4 113.7 39.7 13.7 10.4 27 21.4 40.9 31.6-57.5 56-164.2 33.2-197.1-39.2 3.1-1.7 6.2-3.5 9-5.8M822.9 336.7c7.3-5.8 17.8-6.2 26.4-3.1 3.1 1.4 6.5 3.2 8 6.4-1.5 1.6-3 3.1-4.6 4.5-2.5-2-5-4.2-8-5.2-7.6-2.2-16.6.1-21.2 6.7-3.9 4.6-4.1 11.1-3.3 16.8 1.7 8.9 10.9 15.5 19.9 14.7 8.1.1 16.1-6.7 16.1-15.1-5.9-.4-11.7 0-17.6-.2-.9-1.8-.8-3.9-.5-5.9 8.2-.8 16.6-.3 24.9-.3.9 7.3-.3 15.6-5.8 21-9.1 9.7-25.6 9.8-35.5 1.3-6.3-5.3-9.9-13.7-9.3-21.9.3-7.7 4.4-15 10.5-19.7m169.7-3.6c2.3-.4 4.7-.4 7.1-.3.3 16.6.1 33.2.1 49.8-2.3.9-4.8.4-7.2.3-.1-16.5 0-33.1 0-49.8m-110.9 13.2c5.2-1.1 10.9-.5 15.3 2.7 8.5 5.5 10.8 18.1 5.5 26.6-3.2 6-10.1 9.1-16.7 9.1-4.4-.5-9-2-12.2-5.2-5.4-5.1-7.1-13.3-4.9-20.3 1.5-6.4 6.9-11.2 13-12.9m.9 6.9c-4.2 1.4-7.1 5.7-7.3 10.1-.4 4.4.4 9.4 4.2 12.2 5.7 5.1 16 1.9 17.9-5.6.9-4.7 1.1-10.5-2.9-14-2.8-3.4-7.9-4-11.9-2.7m39.7-6.8c4.7-1.1 10-.9 14.3 1.7 10 5.1 12.7 19.6 6.3 28.5-3.3 5.2-9.5 8.1-15.6 8.2-5.7-.4-11.8-2.9-14.9-7.9-3.2-4.2-3.7-9.8-3.2-14.9.6-7.4 6.3-13.5 13.1-15.6m1.7 6.7c-9.5 2.9-10.7 17.5-2.8 22.9 3.9 2.7 9.8 2.7 13.4-.6 5.8-4.5 6.1-14 1.3-19.4-2.9-3.3-7.9-4.1-11.9-2.9m26.6 6c1.9-7.6 9.1-14.1 17.2-13.3 3.9-.3 7.1 2.3 10.3 4.2.3-1 .6-2 1-3 2.1-.1 4.2-.1 6.3 0 .2 11.6 0 23.2.1 34.7.1 5.7-2.2 11.8-7.2 14.9-4.4 2.8-9.8 2.9-14.8 2.3-5.4-.7-10.3-4.8-12-10 1.7-1.3 3.6-2.9 5.9-2.5 1.9 2 3.6 4.4 6.1 5.7 4.6 2.3 10.6.4 13.5-3.8 1.6-2.4 1.5-5.4 1.6-8.2-3.8 2.4-8 5.1-12.7 4.6-4.7-.7-9.6-2.7-12.3-6.8-3.8-5.4-4.6-12.6-3-18.8m13.1-5.8c-7.9 3.7-8.9 15.4-3.4 21.5 3.1 3.4 8.5 4 12.5 1.9 7.8-4.8 7.9-17.8.3-22.8-2.8-1.6-6.4-1.8-9.4-.6m47.2-2.4c3.3-3.4 8-5.5 12.8-5.1 6-.3 11.6 3.5 14.6 8.5 2.1 3.6 2.2 7.9 2.1 12-9 1.1-18.2 0-27.3.5-.8 6.9 6.5 12.5 13 10.9 3.7-.4 5.8-3.7 8-6.2 1.9.8 3.8 1.7 5.6 2.6-1.2 5.3-6.6 8.8-11.6 10.1-5.3 1.6-11.1-.1-15.6-3.1-4.9-3.5-6.7-9.8-7.3-15.5.4-5.3 1.8-11 5.7-14.7m7.8 2.5c-3.1 1.1-4.5 4.4-5.5 7.3 6.6.1 13.2.1 19.7 0-.7-2.1-1.3-4.5-3.1-6-2.9-2.6-7.5-2.7-11.1-1.3M1816.6 99.8h27.9l47.4 85.8 47.4-85.8h27.3v141h-22.8v-108l-41.6 74.8H1881l-41.6-74.8v108h-22.8v-141zM2040 243.3c-10.5 0-19.8-2.3-27.8-7s-14.2-11.1-18.7-19.4c-4.5-8.3-6.7-17.7-6.7-28.4 0-10.8 2.2-20.4 6.5-28.7 4.4-8.3 10.4-14.8 18.2-19.5 7.8-4.7 16.7-7 26.7-7s18.6 2.4 25.8 7.1c7.2 4.7 12.8 11.4 16.7 19.9 3.9 8.5 5.8 18.5 5.8 30v6.2h-77.2c1.4 8.6 4.9 15.4 10.4 20.3s12.5 7.4 21 7.4c6.8 0 12.6-1 17.5-3s9.5-5.1 13.8-9.2l12.1 14.8c-11.9 11-26.6 16.5-44.1 16.5zm16.6-83.6c-4.8-4.9-11-7.3-18.7-7.3-7.5 0-13.8 2.5-18.9 7.5s-8.3 11.6-9.6 20h55.4c-.7-8.6-3.4-15.3-8.2-20.2zM2114.2 154.4h-20.9v-18.6h20.9V105h21.9v30.8h31.8v18.6h-31.8v47.2c0 7.9 1.3 13.5 4 16.8 2.7 3.4 7.3 5 13.8 5 2.9 0 5.3-.1 7.3-.4 2-.2 4.2-.6 6.6-1v18.4c-2.8.8-5.6 1.4-8.4 1.8-3.3.5-6.5.7-9.8.7-23.7 0-35.5-13-35.5-38.9l.1-49.6zM2282.4 240.8h-21.5v-14.7c-3.8 5.5-8.7 9.8-14.6 12.7-5.9 3-12.6 4.5-20.1 4.5-9.3 0-17.5-2.4-24.6-7.1-7.1-4.7-12.8-11.2-16.9-19.5-4.1-8.3-6.1-17.8-6.1-28.4 0-10.7 2.1-20.2 6.2-28.5 4.2-8.3 9.9-14.7 17.3-19.4 7.3-4.7 15.8-7 25.3-7 7.2 0 13.6 1.4 19.3 4.2 5.6 2.7 10.5 6.8 14.2 11.8v-13.5h21.5v104.9zm-22-68.3c-2.4-6-6.1-10.7-11.1-14.1-5.1-3.5-10.9-5.2-17.6-5.2-9.4 0-16.9 3.2-22.5 9.5-5.6 6.3-8.4 14.8-8.4 25.6s2.7 19.4 8.1 25.7c5.4 6.3 12.7 9.5 21.8 9.5 6.8 0 12.8-1.7 18.1-5.2s9.1-8.2 11.5-14.1l.1-31.7zM1559.9 194c0 8.5 1.9 15.1 4.3 19 3.2 5.2 8 7.4 12.9 7.4 6.3 0 12-1.6 23.1-16.9 8.9-12.3 19.3-29.5 26.4-40.3l11.9-18.3c8.3-12.7 17.9-26.9 28.9-36.4 9-7.8 18.7-12.2 28.4-12.2 16.4 0 31.9 9.5 43.9 27.3 13 19.5 19.4 44 19.4 69.3 0 15-3 26.1-8 34.8-4.9 8.4-14.4 16.9-30.4 16.9v-24.1c13.7 0 17.1-12.6 17.1-27 0-20.5-4.8-43.3-15.3-59.5-7.5-11.5-17.2-18.6-27.8-18.6-11.5 0-20.8 8.7-31.2 24.2-5.5 8.2-11.2 18.3-17.6 29.6l-7 12.5c-14.1 25-17.7 30.8-24.8 40.2-12.4 16.5-23 22.7-36.9 22.7-16.5 0-26.9-7.1-33.4-17.9-5.3-8.8-7.9-20.3-7.9-33.4l24 .7z"/><path fill="#5B5B5B" d="M1554.8 125.1c11.1-17 27-29 45.3-29 10.6 0 21.1 3.1 32.1 12.1 12 9.8 24.9 26 40.9 52.6l5.7 9.6c13.8 23.1 21.7 34.9 26.3 40.5 5.9 7.2 10.1 9.3 15.5 9.3 13.7 0 17.1-12.6 17.1-27l21.3-.7c0 15-3 26.1-8 34.8-4.9 8.4-14.4 16.9-30.4 16.9-9.9 0-18.7-2.2-28.5-11.3-7.5-7-16.2-19.6-23-30.8l-20-33.4c-10-16.8-19.3-29.3-24.6-35-5.7-6.1-13.1-13.5-24.9-13.5-9.5 0-17.6 6.7-24.4 16.9l-20.4-12z"/><path fill="#5B5B5B" d="M1599.7 120.4c-9.5 0-17.6 6.7-24.4 16.9-9.6 14.4-15.4 36-15.4 56.6 0 8.5 1.9 15.1 4.3 19l-20.6 13.5c-5.3-8.8-7.9-20.3-7.9-33.4 0-23.9 6.6-48.7 19-68 11.1-17 27-29 45.3-29l-.3 24.4z"/><g fill="#5B5B5B"><path d="M1682.8 338.5c2.8-.6 7.2-1 11.7-1 6.4 0 10.5 1.1 13.6 3.6 2.6 1.9 4.1 4.9 4.1 8.8 0 4.8-3.2 9-8.4 10.9v.1c4.7 1.2 10.2 5.1 10.2 12.5 0 4.3-1.7 7.5-4.2 9.9-3.5 3.2-9.1 4.6-17.2 4.6-4.4 0-7.8-.3-9.9-.6v-48.8h.1zm6.4 20.4h5.8c6.8 0 10.8-3.5 10.8-8.3 0-5.8-4.4-8.1-10.9-8.1-2.9 0-4.6.2-5.7.4v16zm0 23.8c1.3.2 3.1.3 5.4.3 6.6 0 12.7-2.4 12.7-9.7 0-6.8-5.8-9.6-12.8-9.6h-5.3v19zM1752.3 377.8c0 3.7.1 6.9.3 9.7h-5.7l-.4-5.8h-.1c-1.7 2.9-5.5 6.6-11.8 6.6-5.6 0-12.3-3.1-12.3-15.6v-20.9h6.5v19.7c0 6.8 2.1 11.3 8 11.3 4.3 0 7.4-3 8.5-5.9.4-1 .6-2.1.6-3.3v-21.9h6.5l-.1 26.1zM1762.2 380.9c1.9 1.3 5.3 2.6 8.5 2.6 4.7 0 6.9-2.4 6.9-5.3 0-3.1-1.8-4.8-6.6-6.6-6.4-2.3-9.4-5.8-9.4-10.1 0-5.7 4.6-10.5 12.3-10.5 3.6 0 6.8 1 8.8 2.2l-1.6 4.7c-1.4-.9-4-2.1-7.3-2.1-3.8 0-6 2.2-6 4.9 0 2.9 2.1 4.3 6.8 6 6.2 2.4 9.4 5.5 9.4 10.8 0 6.3-4.9 10.8-13.3 10.8-3.9 0-7.5-1-10-2.5l1.5-4.9zM1799.5 341.8c.1 2.2-1.5 4-4.1 4-2.3 0-3.9-1.8-3.9-4 0-2.3 1.7-4.1 4.1-4.1 2.3.1 3.9 1.8 3.9 4.1zm-7.3 45.7v-35.7h6.5v35.7h-6.5zM1809.5 361.5c0-3.7-.1-6.7-.3-9.7h5.7l.4 5.9h.1c1.8-3.4 5.9-6.7 11.8-6.7 4.9 0 12.6 2.9 12.6 15.2v21.3h-6.5V367c0-5.7-2.1-10.5-8.3-10.5-4.3 0-7.6 3-8.7 6.6-.3.8-.4 1.9-.4 3v21.4h-6.5v-26h.1zM1854 370.9c.1 8.8 5.7 12.4 12.2 12.4 4.6 0 7.4-.8 9.9-1.8l1.1 4.6c-2.3 1-6.2 2.3-11.9 2.3-11 0-17.5-7.3-17.5-18.1s6.3-19.2 16.7-19.2c11.6 0 14.7 10.2 14.7 16.8 0 1.3-.1 2.4-.2 3h-25zm19-4.7c.1-4.1-1.7-10.5-9-10.5-6.6 0-9.4 6-9.9 10.5h18.9zM1886.4 380.9c1.9 1.3 5.3 2.6 8.5 2.6 4.7 0 6.9-2.4 6.9-5.3 0-3.1-1.8-4.8-6.6-6.6-6.4-2.3-9.4-5.8-9.4-10.1 0-5.7 4.6-10.5 12.3-10.5 3.6 0 6.8 1 8.8 2.2l-1.6 4.7c-1.4-.9-4-2.1-7.3-2.1-3.8 0-6 2.2-6 4.9 0 2.9 2.1 4.3 6.8 6 6.2 2.4 9.4 5.5 9.4 10.8 0 6.3-4.9 10.8-13.3 10.8-3.9 0-7.5-1-10-2.5l1.5-4.9zM1915.6 380.9c1.9 1.3 5.3 2.6 8.5 2.6 4.7 0 6.9-2.4 6.9-5.3 0-3.1-1.8-4.8-6.6-6.6-6.4-2.3-9.4-5.8-9.4-10.1 0-5.7 4.6-10.5 12.3-10.5 3.6 0 6.8 1 8.8 2.2l-1.6 4.7c-1.4-.9-4-2.1-7.3-2.1-3.8 0-6 2.2-6 4.9 0 2.9 2.1 4.3 6.8 6 6.2 2.4 9.4 5.5 9.4 10.8 0 6.3-4.9 10.8-13.3 10.8-3.9 0-7.5-1-10-2.5l1.5-4.9zM1961.5 338.4c3.1-.5 7.1-1 12.3-1 6.3 0 11 1.5 13.9 4.1 2.7 2.4 4.3 6 4.3 10.4 0 4.5-1.3 8-3.8 10.6-3.4 3.6-8.9 5.5-15.2 5.5-1.9 0-3.7-.1-5.2-.4v19.9h-6.4l.1-49.1zm6.4 24c1.4.4 3.2.5 5.3.5 7.7 0 12.5-3.8 12.5-10.6 0-6.6-4.6-9.7-11.7-9.7-2.8 0-4.9.2-6 .5v19.3h-.1zM2023.6 379c0 3.1.1 6.1.6 8.5h-5.9l-.5-4.5h-.2c-2 2.8-5.8 5.3-10.9 5.3-7.2 0-10.9-5.1-10.9-10.2 0-8.6 7.7-13.3 21.4-13.3v-.7c0-2.9-.8-8.3-8.1-8.3-3.3 0-6.8 1-9.3 2.7l-1.5-4.3c2.9-1.9 7.2-3.2 11.7-3.2 10.9 0 13.6 7.4 13.6 14.6V379zm-6.2-9.7c-7.1-.1-15.1 1.1-15.1 8 0 4.2 2.8 6.2 6.1 6.2 4.6 0 7.6-2.9 8.6-6 .2-.7.4-1.4.4-2.1v-6.1zM2034.1 363c0-4.2-.1-7.8-.3-11.1h5.7l.2 7h.3c1.6-4.8 5.5-7.8 9.9-7.8.7 0 1.3.1 1.8.2v6.1c-.7-.1-1.3-.2-2.2-.2-4.6 0-7.8 3.5-8.7 8.3-.1.9-.3 1.9-.3 3v19h-6.4V363zM2067.8 343.3v8.5h9.3v4.9h-9.3V376c0 4.4 1.3 6.9 4.9 6.9 1.8 0 2.8-.1 3.8-.4l.3 4.9c-1.3.5-3.2 1-5.7 1-3 0-5.5-1-7-2.8-1.8-1.9-2.5-5.1-2.5-9.3v-19.5h-5.5v-4.9h5.5v-6.6l6.2-2zM2084.3 361.5c0-3.7-.1-6.7-.3-9.7h5.7l.4 5.9h.1c1.8-3.4 5.9-6.7 11.8-6.7 4.9 0 12.6 2.9 12.6 15.2v21.3h-6.5V367c0-5.7-2.1-10.5-8.3-10.5-4.3 0-7.6 3-8.7 6.6-.3.8-.4 1.9-.4 3v21.4h-6.5v-26h.1zM2128.8 370.9c.1 8.8 5.7 12.4 12.2 12.4 4.6 0 7.4-.8 9.9-1.8l1.1 4.6c-2.3 1-6.2 2.3-11.9 2.3-11 0-17.5-7.3-17.5-18.1s6.3-19.2 16.7-19.2c11.6 0 14.7 10.2 14.7 16.8 0 1.3-.1 2.4-.2 3h-25zm19-4.7c.1-4.1-1.7-10.5-9-10.5-6.6 0-9.4 6-9.9 10.5h18.9zM2162.1 363c0-4.2-.1-7.8-.3-11.1h5.7l.2 7h.3c1.6-4.8 5.5-7.8 9.9-7.8.7 0 1.3.1 1.8.2v6.1c-.7-.1-1.3-.2-2.2-.2-4.6 0-7.8 3.5-8.7 8.3-.1.9-.3 1.9-.3 3v19h-6.4V363z"/></g><path fill="#5B5B5B" d="M2868.5 346.1c-25.8-6.1-7.3 13-5 25.2-30.1-33.8-53 3.5-83.1-25.1-14.8-9.6-33.3 25-45.4 8.5-8-37.4-29.8 3.5-38.9-15.1-6-7-8.5-19.7-17.1-23.3-3.8.2-7.2 0-9.8-3.1-7.8-10-19.9-3.5-29.6-11.3 3.7-6.8 1.4-18.2-8.5-13.6-9.4 6.7-25-18.1-25.9 3-.3 2.5 1.1 5.3-2.4 6.6-7 3.3-8.5-5.5-12.2-9.4-3.2-6.2-13.5-7.3-13-14.4-2.4-13.2-32.9-19.6-45-23.1-14.2-6.7 15.2-30.9-.4-39.3-8.4-4.9-6.6-15.3-7.7-23.5-12.1-13.4-.7-40.8-16.4-55.8-15.1-10.7 13.9-8.9 2-51.4 1.6-36.5 65.6-12.6 83.9-43.7 114-46 40.2.6 102.1 15.1 8.2 13.8 20.6-.8 29.8-5.5 21.4 2.1 43.1 8.7 64.7 6.9 48.5-.8 74.9-19.2 79.3 43 .2 8 12.3 7.7 12.2 0 1-11.1-4.3-21.3-5.2-32 3.3-14.8-15.2-16.3-22.1-25-6.5-11.1-15.9.6-24.5 0-15.1.7-30.3 1.3-45.4 1.9-22 4.1-50.4-15.4-69.1-2.7-8-.4-29.3 2-32.3-5.7 19.1 1 5.9-17.9-3.9-22-28.6-16.7-60.4 5.6-88.7 12.4-10.5 10.4-20.3 19.5-36.2 19.6-11.3 2.6-65.7 7.5-58.7 22.6 2.6 14.5 5.8 30.9 1.8 44.9-9.6 6.4-7.1 16-5.3 26.2 6 5 12.1 10 12.8 18.5 2.8 9.1-1.9 20.1 3 28.1 8.5 10.7 1.9 26.8 13.6 36 2.2 2.2 2.1 3.6 1.1 6-15.5 27.6-3.2 36.1 23.6 42.5 27.8 7.9 12.1 13 27.4 22.4 11.2 4.6 12.1 23 26.9 20.2 12.1.4 13.8-14.9 25.5-8-.9 14.6 14.1 20.7 14.3 8.9 5 3.6 6.8 10.3 13.5 8.1 27.2-.6 30.5 53.3 57.6 35.5 16.6-14.6 8.3 29.2 41 13.8 39.7-27.2 22.4 13.6 69.5-.3 18.9-10.5 45.2 35.1 53.3 3.1 2.5-10.3-10.2-17-7.1-25.7zM2986.5 148.4v57.8h-16.9v-85.3c7.1 0 14.3-.1 21.5.1 1 0 2.2 1.7 2.8 2.9l19.5 39.3c.9 1.8 1.9 3.6 3.6 5.2V121h16.7v85.3c-5.4 0-10.7.2-16-.2-1.2-.1-2.5-2.2-3.2-3.6-8.3-16.7-16.4-33.4-24.6-50.1-.7-1.4-1.5-2.9-2.2-4.3-.5.2-.8.2-1.2.3zM3015.5 314.4h-17.4c-.1-1.5-.3-3-.3-4.6-.2-12.4-.3-24.8-.6-37.2-.1-3.3-1-6.3-4.5-7.4-4-1.2-7.7.1-10.6 2.9-.9.8-1 2.7-1 4.1-.1 12.6-.1 25.2-.1 37.7v4.5h-17.4v-64.1h17.1c.1 1.9.3 3.8.5 6.3 5.5-3.8 10-8.7 17.1-8.4 7.4.3 12.1 4.1 15.1 10.9 2.6-2.2 5-4.3 7.5-6.3 5.4-4.4 11.6-6.1 18.2-3.3 6.8 2.8 9.8 8.9 10 15.6.6 15.5.5 31.1.5 46.6 0 1-1.4 2.7-2.3 2.8-5 .3-10 .1-15.5.1v-27.9c0-4.9.1-9.7-.3-14.6-.4-5.4-2.9-7.5-8.1-7.2-5.3.3-8 3-8 8.2.1 13.6.1 27.2.1 41.3z"/><path fill="#5B5B5B" d="M2645 206.5c-7.6 0-14.1.2-20.6-.1-1.4-.1-3.1-1.5-4-2.8-5.6-8-11.1-16-16.3-24.3-2.4-3.8-5.1-5.5-10-4v30.9h-18.4v-85.7c13.8.5 27.6.3 41.2 1.6 9.9 1 16.4 9.9 17 19.9.8 12.1-3.4 21.7-14.4 28.1 8.5 12.1 16.7 23.8 25.5 36.4zm-50.9-46.6c7.3-.3 14.9 1.8 19.2-5.7 2.5-4.4 2.8-9.8-.4-13.9-4.9-6.2-12.1-3.3-18.8-3.8v23.4zM3042 206.5c5.1-17 9.9-33.1 14.7-49.2 3.3-11 6.7-22 9.9-33.1.7-2.6 1.9-3.6 4.6-3.4 4.6.2 9.2-.1 13.8.2 1.4.1 3.4 1.3 3.8 2.5 8.2 27 16.2 54 24.3 81 .2.5.1 1.1.2 2-5.5 0-10.8.2-16.1-.1-1.1-.1-2.8-1.5-3.2-2.6-1.3-3.8-2.2-7.7-3.1-11.5-.6-2.3-1.5-3.5-4.2-3.4-5.9.2-11.8.2-17.8 0-2.6-.1-3.7.9-4.2 3.3-.9 3.9-1.9 7.7-3.2 11.5-.4 1.1-1.7 2.6-2.7 2.7-5.5.2-10.8.1-16.8.1zm36.2-59.8c-.4-.1-.8-.1-1.3-.2-2.4 8.8-4.9 17.7-7.4 27h16c-2.5-9.3-4.9-18-7.3-26.8zM2893.2 152.5v15.8h-29.6c0 7-.1 13.6.2 20.2 0 .7 2.3 2 3.5 2 7.8.2 15.7.1 23.5.1 1.6 0 3.2.2 5 .2v15.4h-50.5v-85.1h50.5v15.6H2870c-6.4 0-6.4 0-6.4 6.5 0 9.2 0 9.2 9 9.2 6.7.1 13.5.1 20.6.1zM2735.3 136.7v15.8h23.7c5.8 0 5.8 0 5.8 5.7 0 2.8-.1 5.6-.1 8.4 0 .4-.3.8-.6 1.7h-28.8v22.2c8.1 0 16.1-.1 24 0 9.3.1 7.8-1.1 8 8v7.6h-50.5V121h50.4c0 4.4.2 9-.2 13.4-.1.8-2.2 2-3.4 2-7.7.2-15.4.1-23.1.1-1.5.2-3.1.2-5.2.2zM2703.9 121.2c.1 8.4.8 16.2-4.9 23.9-10.5 14.2-19.7 29.5-30 45.2h36.6v15.9h-59.2c.4-6.9-1.8-13.8 2.9-20.6 9.8-14.2 19.1-28.8 28.6-43.3 1-1.5 1.9-3 3.3-5.2h-32.6v-15.8c18.1-.1 36.4-.1 55.3-.1zM2877.2 229c0 4.6-.1 8.9 0 13.2.1 2.7-1.6 2.7-3.5 2.7h-28.1v16.6h28.8v15.8h-29v37.1h-18.6v-85.3c16.7-.1 33.2-.1 50.4-.1zM3063.9 267.1v-15.7c12.1-3.5 24.3-5 36.5-.7 7.5 2.6 11.6 8.5 11.9 16.2.4 15.5.1 31.1.1 46.6 0 .3-.2.5-.5 1h-16.7c-.2-2-.3-3.9-.4-4.9-4.9 2.2-9.5 5.2-14.6 6.4-8.5 2-16.1-2.3-19.2-10.5-4-10.6-3.1-26 14.3-30.3 6.3-1.6 12.8-2.1 19.2-3.2.7-4.6-.7-7.2-5.2-8.6-6.5-2.1-12.9-1.2-19.1 1.3-2 .6-3.9 1.4-6.3 2.4zm31 16.5c-5.1 1.2-9.5 1.9-13.6 3.4-4 1.5-5.6 6.5-4.1 10.9 1.1 3.3 5 5.2 9.6 4.5 4.9-.7 8.1-3.6 8.1-7.6v-11.2zM2772.9 121.1h63.3v15.7c-5.9 0-11.8.2-17.6-.1-3.5-.1-4.5 1-4.5 4.5.2 19.8.1 39.6.1 59.5v5.6h-18.3c-.1-1.8-.3-3.5-.3-5.2 0-19.7-.1-39.3.1-59 0-4-.9-5.7-5.2-5.4-4.7.3-9.5 0-14.2.1-2.7.1-3.6-1-3.5-3.7.2-3.9.1-7.9.1-12zM2909.8 206.5v-85.4h18.1v69.1c2.6.1 4.8.3 6.9.4 7.1 0 14.2.1 21.3 0 2.8-.1 3.8.9 3.8 3.8.2 12.2.3 12.2-11.8 12.2h-33.3c-1.6-.1-3.1-.1-5-.1zM2935.6 314.4h-17.3v-64.2h17.1c.1 2.7.3 5.3.4 8.3 3.3-2.3 6-4.9 9.2-6.4s6.9-1.9 10.9-3v18.5c-5.6.7-11.1 1.3-16.5 2.1-2.9.4-3.9 2.2-3.8 5.3.1 13 0 26 0 39.4zM2886.4 250.2h17.6v19.1c0 13.7-.2 27.4 0 41.1 0 3.4-1 4.4-4.3 4.2-3.5-.2-7.1.1-10.6-.2-1-.1-2.6-1.6-2.6-2.4-.1-20.5-.1-41-.1-61.8zM2904.3 240.1h-18v-14.7h18v14.7zM195.4 201.8V34.9c.9-.1 1.9-.3 2.8-.3 19.6 0 39.3-.3 58.9.2 19.7.4 37.8 5.9 52.6 19.6 12.7 11.8 19.7 26.7 22.7 43.6 4.2 23.8 2.1 46.8-10.6 67.9-13.1 21.7-32.9 33.8-57.9 35.5-22.4 1.5-44.9.6-67.3.8-.3 0-.7-.2-1.2-.4zm29.2-141v114.7c12.7 0 25.1.9 37.4-.2 20-1.9 33.3-13.3 39.5-32.4 5.4-16.8 5.4-33.8.1-50.7-5-15.9-16.2-25.6-32.4-29.4-14.8-3.5-29.7-1.4-44.6-2zM379.5 202h-28.7V34.5h24.8c2.8 0 5.7.3 8.5-.1 3.7-.5 5 1.2 6.2 4.4 12.5 33.7 25.1 67.3 37.6 100.9.4 1.2.8 2.7.4 3.8-4.6 12.5-9.3 25-14.3 38.3-11.4-30.5-22.6-60.3-33.7-90.1-.2 0-.5.1-.7.1-.1 36.7-.1 73.3-.1 110.2zM421.5 202.2c4.8-12.9 9.4-25.1 13.9-37.2 14.7-39.4 29.4-78.7 44.1-118.1.4-1 .8-2 1.2-3.1 3.6-9.3 3.6-9.3 13.7-9.3h19.4c-2.2 6-4.3 11.7-6.4 17.4-18.4 49.1-36.7 98.2-55.1 147.3-.8 2.2-1.9 3.1-4.2 3-8.6-.1-17.2 0-26.6 0zM352.3 387.1c4.1-11 8-21.3 11.8-31.6 14.6-39.1 29.3-78.3 43.9-117.4 2.1-5.5 4.1-11 6.3-16.5.4-.9 1.8-2 2.8-2 8.9-.2 17.9-.1 27.5-.1-1.5 4.2-2.9 8-4.3 11.8-19 50.8-38 101.7-57 152.5-.9 2.4-1.9 3.5-4.7 3.4-8.5-.3-17-.1-26.3-.1zM508.3 387.1c-9.7 0-18.9.1-28.1-.1-1 0-2.4-1.8-2.8-3.1-3.8-10-7.5-19.9-11-30-1.2-3.5-2.9-4.9-6.8-4.8-14.7.3-29.4.1-44.1.1h-4.1c3.2-8.5 6.1-16.6 9.3-24.7.3-.7 2-1.2 3-1.2 8.8-.1 17.7-.1 26.5-.1h4.6c-2.2-6.1-4.3-11.7-6.3-17.2-3.2-8.6-6.5-17.2-9.5-25.9-.5-1.3-.5-3.2 0-4.5 4.4-12.1 8.9-24.1 13.7-37 18.6 49.7 37 98.7 55.6 148.5zM518.9 63.3v138.6h-28.4c-.1-1.2-.2-2.4-.2-3.6 0-18.8-.4-37.6.2-56.3.2-5.4 2.7-10.8 4.6-16.1 7.5-20.5 15.2-40.9 22.9-61.3 0-.3.3-.5.9-1.3zM97.6 287v44h-7.2v-28c-.3-.1-.7-.2-1-.2L81 322.3c-.9 2.1-1.5 4.3-2.8 6.1-.8 1.2-2.5 2.6-3.8 2.6s-3.2-1.4-3.8-2.6c-3.3-7.2-6.3-14.6-9.4-21.9-.5-1.2-1.1-2.3-2.4-3.4v27.8h-7.3v-43.7c8-1.2 7.9-1.2 10.8 5.5l10.8 25.2c.3.8.8 1.4 1.6 2.9 4.1-9.6 7.8-18.5 11.7-27.4 3.4-7.6 1.2-7 11.2-6.4zM156.9 231.1c6.8 0 13-.4 19 .1 11.1 1 17.9 9.3 18 21.4.1 12.1-6.7 21.2-17.5 22.5-5.5.7-11 .5-16.6.4-1 0-2.8-1.5-2.8-2.3-.1-13.9-.1-27.8-.1-42.1zm7.7 37.2c7.6.3 15 1.6 19.6-6 3.3-5.4 2.9-15.6-.9-20.1-5.1-6-11.9-4.8-18.7-4.4v30.5zM309.5 335.1c3.4-1.6 5.9-2 8.6 1.5 2.4 3.1 6.5 2.7 10 1.1 4.3-2 4.5-5.9 4.2-8.8-4.7.5-9.3 1.9-13.7 1.3-3-.4-6.2-3.1-8.2-5.6-4.9-6.4-3.6-16.3 2-21.8 5.4-5.3 12.4-5.4 18.6-.9 3-1.1 5.5-2 8.4-3.1 0 12.3.5 23.5-.2 34.7-.4 7.1-6.1 11.2-14.2 11.7-8 .4-13.4-3-15.5-10.1zm5.5-19.9c.1 5.4 3.9 9.2 9 9.1 5.1-.2 8.4-4.2 8.3-9.8-.2-5.6-3.8-9.2-9-9-5.1.2-8.3 4-8.3 9.7zM341.4 254.4c-1.2.3-2.3.6-3.9.9 0 2.3.1 4.7 0 7.1-.4 7.1-4.2 11.9-10.5 13.4-6.8 1.6-14-1.1-16.9-6.3-3.2-5.7-2.2-11.8 2.8-17.2.3-.3.5-.7.9-1.2-3.7-4.8-4.6-10-1.2-15.4 3.3-5.2 8.6-6.3 14.2-5.6 5 .6 8.5 3.4 9.9 8.9-1.9.6-3.7 1.1-5.8 1.7-2.5-3.3-5.8-6.3-10-3.4-1.7 1.2-3.3 4.7-2.8 6.6.5 1.9 3.5 3.9 5.7 4.3 2.7.5 6.9 2.1 7.3-3.3h5c1.7 1.8 3.1 3.3 4.5 4.8l.9-.6c-.1 1.6-.1 3.2-.1 5.3zm-10.9.1c-3.6.2-6.4.1-9.1.7-3.8.8-6 4.3-5.4 8.1.5 3.6 3.7 6.3 7.6 6.3 3.7 0 6.7-2.8 7-6.8 0-2.5-.1-5-.1-8.3zM44.9 387c-7.1.9-7.4.9-9.2-5.2-1.2-3.9-3.2-5.4-7.1-4.8-1.5.2-3 0-4.5 0-8.3 0-8.3 0-11.4 7.5-1.4 3.4-2 3.5-8.6 2.2 3.5-9.4 6.9-18.8 10.4-28.1 1.4-3.8 2.9-7.5 4.3-11.3.9-2.6 1.5-4.8 5.2-4.8s5.1 1.3 6.3 4.6c4.3 12 8.8 23.8 13.3 35.7.5 1.4.9 2.8 1.3 4.2zm-20.3-34.7c-2.4 6.6-4.5 12.1-6.6 17.8h13.2c-2.2-5.9-4.2-11.2-6.6-17.8zM225.3 317.9h-22.7c1.2 7.5 8.8 10.6 14.2 6.2 3.5-2.8 3.5-2.8 7.9-.5-3.3 7.6-11.2 10.6-19.5 7.6-7.9-2.9-12.1-12-9.6-20.8 2.3-8.2 10.5-13.2 18.9-11.3 8 1.8 12.3 9 10.8 18.8zm-6.2-6c-1-4.8-3.5-7-7.9-7-4.5-.1-7.2 2-8.6 7h16.5zM171.6 310.7c6.6-4.7 9.4-13.9 19.5-10.6-3.7 4-7.3 7.9-11.1 12 4.3 6.3 8.5 12.4 12.7 18.6-5.5 1.4-9.2.3-11.8-4.7-1.5-3-3.9-5.6-5.9-8.4-5.7 3.3-2.4 8.9-3.8 13.4h-6.7v-43.9h6.9c.2 7.4.2 15 .2 23.6zM219.3 366c-2.3-2.2-3.6-4.6-5.4-5-2-.5-4.9.1-6.6 1.3-3.8 2.9-3.6 3.2-8 1.4 2.2-7 6.8-9.8 14.8-9 7.1.7 10.9 4.4 11.2 11.6.3 6.8.1 13.7.1 21.4-2.8-.6-5.1-1-7.5-1.5.1.1.2.2.3.4-4.3.3-8.6 1.3-12.8.8-4.4-.6-6.8-4.3-7-8.8-.2-4.2 1.8-7.4 5.7-8.8 4.4-1.5 9-2.2 15.2-3.8zm-2 6.2c-3 .6-6 .9-8.8 1.9-1.3.5-2.9 2.6-2.8 3.9s1.8 3.1 3.2 3.7c5.2 2 10.8-2.4 8.4-9.5zM305.2 371.2c.1 9.6-6.8 16.8-16.1 16.9-9.6.1-16.7-7-16.7-16.8 0-9.6 6.9-16.6 16.3-16.6 9.4-.1 16.4 7 16.5 16.5zm-25.4.3c0 5.5 4 9.8 9 9.8s9-4.4 9-9.8c.1-5.5-4.2-10.2-9.3-10-5 .1-8.7 4.4-8.7 10zM142.1 371.3c0 9.6-7.3 16.9-16.8 16.8-9.3-.1-16.2-7.4-16.1-16.9s7.2-16.7 16.5-16.5c9.5.1 16.4 7.2 16.4 16.6zm-7.4-.1c-.1-5.5-4.1-9.8-9.1-9.7-5.2.1-9 4.3-9 9.8s3.9 10 8.8 10c5.2.1 9.3-4.5 9.3-10.1zM218.7 274.5c-3.8.6-7.3 1.6-10.9 1.5-4.8-.2-8-3.8-8.6-8.3-.6-4.6 1.7-8.6 6.4-10.1 4.1-1.3 8.4-1.9 14.2-3.2-2.1-2.2-3.4-4.6-5.3-5.3-3.8-1.3-7 .1-8.6 4.6-2-.5-3.9-.9-5.7-1.3 1-6.4 5.2-9.5 12.5-9.5 7.2 0 12.5 3.4 12.9 9.3.5 7.6.1 15.2.1 23.7-2.5-.5-4.8-1-7-1.4zm-.7-14c-2.7.5-5.6.6-8.2 1.7-1.5.6-3.4 2.9-3.2 4 .4 1.6 2.4 3.4 4 3.9 5.6 1.3 8.7-2.7 7.4-9.6zM258.2 252.2c1.8-7.1 7-10.2 14.9-9.3 6.9.8 10.9 4.7 11 11.3.2 6.3 0 12.6 0 18.9 0 .6-.1 1.2-.3 2.6-2.5-.4-4.8-.8-7.8-1.3-2.6.5-6.2 1.6-9.7 1.6-4.8-.1-8.2-3.7-8.8-8.1-.6-4.7 1.5-8.4 6.3-10.2 2.1-.8 4.3-1.1 6.5-1.6 2-.4 4.1-.7 7.7-1.4-2-2.4-3.2-5.1-4.8-5.4-2.3-.4-6.2 0-7.2 1.5-2.4 3.8-4.8 2.4-7.8 1.4zm19.7 7.8c-4.7 1-7.8 1.3-10.6 2.4-1.2.4-2.7 2.5-2.5 3.6.2 1.4 1.8 3.5 3 3.6 2.3.3 5.5.2 6.9-1.2 1.7-1.5 1.9-4.6 3.2-8.4zM131.2 331.6c-2.9-.6-5.2-1-7.4-1.5-3.6.6-7.3 1.7-11 1.6-4.3-.1-7.6-3.6-8.2-7.6-.7-4.6 1.1-8.2 5.5-10.2 2.2-.9 4.6-1.4 6.9-1.9 2.2-.5 4.4-.7 8.3-1.3-2.3-2.5-3.6-4.8-5.4-5.7-3.3-1.6-6 0-9.3 4.5-1.8-.5-3.6-.9-5.4-1.4 1.9-7.2 7.3-10.4 15.2-9.3 7.2 1 10.6 4.9 10.7 12 .1 6.7.1 13.4.1 20.8zm-8-15.3c-2.8.6-5.9.8-8.6 1.9-1.3.5-3.1 2.7-2.9 3.7.3 1.5 2 3.4 3.6 3.8 5.9 2 9.7-2.4 7.9-9.4zM311.8 354.6c2.9 1.1 5.3 2 8.1 3 1.4-.6 3.7-2.1 6.2-2.6 7.5-1.6 12.9 2.2 13.5 9.8.5 7.3.1 14.6.1 22.2h-7.3c0-6.2.2-12.5-.1-18.7-.2-5.8-5.1-8.9-9.4-5.7-2.1 1.5-3.5 4.8-3.9 7.5-.6 4.1-.2 8.4-.2 12.6 0 1.5-.2 2.9-.3 4.6h-6.7v-32.7zM302.2 331.4h-5.1c-.7 0-1.4-.1-2.6-.3V314c0-5.7-1.8-8.2-5.9-8.3-4.4-.1-7.4 3-7.5 8.3-.1 5.7 0 11.3 0 17.3h-7v-32.2c2.6.9 5 1.7 7.4 2.4-.1.4-.2.9-.3 1.3l1.8-1.2c8.4-6.2 17.8-2.1 19 8.2.2 1.5.1 3 .2 4.5v17.1zM79 378.8c2.1-.7 3.9-1.4 5.7-2 4 5 6.9 6.4 10.5 4.5 1.1-.6 2.3-2 2.5-3.2.1-.8-1.4-2.3-2.4-2.7-2.8-1-5.8-1.5-8.6-2.4-3.9-1.2-6.5-3.6-6.7-8-.2-4.2 2-7.1 5.6-8.9 7.6-3.8 15.6-.6 18.3 7.5-1.8.5-3.6 1.1-5.6 1.7-2.1-3.1-4.5-5.8-8.7-4-1.1.5-2.4 1.8-2.4 2.7 0 1 1.2 2.5 2.2 2.9 2.2.9 4.6 1.2 6.9 1.8 5.9 1.6 9.1 5.1 8.7 9.8-.4 4.9-4.2 8.5-10 9.3-7.9 1.2-13-1.6-16-9zM48.4 378.9c2.1-.7 4-1.3 6-2 2 3.3 4.5 6.3 8.9 5 1.6-.5 2.7-2.3 4.1-3.5-1.2-1.1-2.2-2.7-3.7-3.3-2.6-1.1-5.5-1.4-8.2-2.3-3.6-1.3-6.2-3.6-6.2-7.8 0-4.2 2.1-7.2 5.8-8.8 6.2-2.8 16.4-1.5 18.1 7.4-2.9 1.1-5.7 3.1-8.2-1.2-.6-1-3.3-1.5-4.9-1.2-1.4.3-2.6 2-3.9 3 1.1 1.1 2 2.6 3.3 3.1 3.2 1.2 6.7 1.7 9.8 3.1 5.2 2.4 6.7 8.2 3.4 12.8-3.5 4.9-8.7 5.5-14.1 4.8-5.1-.9-8.4-3.8-10.2-9.1zM177.1 364.6c-2.1.7-4.2 1.3-6.1 2-4.6-5.5-8.9-6.5-13.2-3.3-4 3.1-4.9 9.8-1.9 14.2 2.8 4.1 9 5.5 12 1.9 3.2-3.7 5.7-2.4 8.8-.7-2.8 7.2-9 10.5-16.9 9-8-1.5-13.1-7.9-13.2-16.3 0-8.2 5.2-14.9 12.6-16.4 8.3-1.6 14.7 1.7 17.9 9.6zM230.6 361.7v-6c1.7-.2 3.3-.3 5.1-.5.2-2.6.3-5.1.5-7.8h7.1v7.8c2.7.2 5.2.3 8 .5v6.1c-2.4.2-4.9.4-7.8.6 0 5.2-.2 10.3.1 15.3.1 1.3 2.4 3.6 3 3.4 4.5-1.4 4.4 2.1 5.7 4.5-3.7 3-7.6 3.3-11.5 1.6-3.8-1.6-4.8-5.1-4.8-8.9v-15.8c-2-.4-3.6-.6-5.4-.8zM249.8 268.8c.9 1.6 1.8 3.1 2.8 4.8-3.6 3.2-7.5 3.3-11.5 1.8-3.7-1.4-4.9-4.7-5-8.3-.1-5.5 0-11 0-16.6-2.1-.3-3.5-.4-5.3-.7v-5.9c1.5-.2 3.1-.4 5-.6.2-2.6.3-5.1.5-7.7h6.9c.1 2.6.2 5 .4 7.7 2.6.2 5.1.3 7.8.5v5.9c-2.4.2-4.8.4-7.8.6 0 5.5-.3 10.8.1 16.1.4 3.9 3.4 3 6.1 2.4zM235.7 306.3c-1.9-.2-3.4-.3-5.2-.5v-5.9c1.4-.2 3-.4 5-.7.1-2.4.2-4.9.4-7.6h7c.1 2.5.3 4.8.4 7.8 2.5.1 4.9.3 7.6.4v5.9c-2.5.2-4.8.4-7.7.6 0 5.5-.4 10.9.2 16.1.2 1.3 3.3 2.4 5.1 3.5l.9-1.2c.9 1.5 1.8 3 2.8 4.6-3.7 3.1-7.6 3.5-11.5 1.9-4-1.6-5-5.2-5-9.2.1-5 0-10.1 0-15.7zM159.8 300.1c-.9 2.3-1.7 4.1-2.4 5.8-8.7-.5-10.9 1.6-11 10.4v13.9c0 .3-.2.5-.5.9h-6.4v-32.2c2.7.9 5 1.7 8 2.7 2.7-2.9 6.9-4.1 12.3-1.5zM265.7 331.2h-7.1v-31.3h7.1v31.3zM184.2 386.9v-31.3h7.1v31.3h-7.1zM265.9 387h-6.8v-31.3h6.8V387z"/><path fill="#5B5B5B" d="M192.8 355.4c-1.7 1.1-3.5 3.2-5.2 3.2-1.5 0-4.2-2.8-4-3.8.4-1.8 2.5-4 4.2-4.4 1.3-.3 3.2 2 4.9 3.1.1.6.1 1.2.1 1.9zM268.8 354.3c-2.8 2.1-4.5 4.3-6 4.3-1.6-.1-3.9-2.1-4.4-3.8-.8-2.8 1.4-4.8 4.1-4.5 1.8.1 3.4 2 6.3 4zM268.2 290.4c-2.7 2.1-4.5 4.5-5.8 4.3-1.7-.3-3.1-2.7-4.6-4.1 1.4-1.4 2.8-3.8 4.4-4 1.4-.3 3.2 1.8 6 3.8z"/></svg>