<svg width="800" height="215" viewBox="0 0 800 215" fill="none" xmlns="http://www.w3.org/2000/svg">
<g clip-path="url(#clip0_19_2)">
<mask id="mask0_19_2" style="mask-type:luminance" maskUnits="userSpaceOnUse" x="0" y="0" width="800" height="215">
<path d="M800 0H0V215H800V0Z" fill="white"/>
</mask>
<g mask="url(#mask0_19_2)">
<path d="M744.162 157.499C749.434 157.499 754.2 156.399 758.471 154.204C762.737 152.01 766.061 149.062 768.45 145.355C770.833 141.654 772.028 137.606 772.028 133.211C772.028 128.192 770.204 124.079 766.567 120.878C762.925 117.677 757.906 116.077 751.505 116.077C746.233 116.077 741.432 117.177 737.101 119.372C732.771 121.573 729.382 124.55 726.934 128.315C724.486 132.081 723.262 136.159 723.262 140.554C723.262 145.579 725.11 149.656 728.817 152.792C732.518 155.934 737.637 157.499 744.162 157.499ZM746.609 13.8398L735.877 103.086H771.651L792.174 13.8398H746.609Z" fill="#333333"/>
<path d="M650.968 121.161C647.579 121.161 644.878 120.096 642.872 117.96C640.865 115.824 639.859 112.629 639.859 108.358C639.859 102.333 641.424 96.8724 644.566 91.9771C647.702 87.0817 651.974 84.6341 657.37 84.6341C660.635 84.6341 663.3 85.699 665.372 87.8349C667.443 89.9707 668.478 93.1715 668.478 97.4373C668.478 103.462 666.907 108.922 663.771 113.818C660.635 118.713 656.363 121.161 650.968 121.161ZM644.566 157.311C657.24 157.311 668.666 154.581 678.834 149.121C689.001 143.661 696.968 136.035 702.746 126.244C708.518 116.454 711.407 105.41 711.407 93.1068C711.407 84.1987 709.394 76.3791 705.381 69.6656C701.363 62.9522 695.779 57.745 688.624 54.0382C681.47 50.3373 673.185 48.4839 663.771 48.4839C651.221 48.4839 639.859 51.2434 629.692 56.7683C619.525 62.2932 611.523 69.9481 605.686 79.7387C599.849 89.5294 596.931 100.579 596.931 112.876C596.931 121.79 598.937 129.604 602.956 136.318C606.969 143.031 612.558 148.215 619.713 151.851C626.868 155.493 635.152 157.311 644.566 157.311Z" fill="#333333"/>
<path d="M605.969 49.8017H557.392L523.689 89.7176L536.681 16.6641H494.882L470.217 155.993H512.016L519.547 113.629L538.187 155.993H588.082L556.827 103.274L605.969 49.8017Z" fill="#333333"/>
<path d="M427.289 102.897C426.283 108.546 424.058 112.941 420.605 116.077C417.151 119.213 413.167 120.784 408.649 120.784C404.759 120.784 401.682 119.625 399.423 117.301C397.163 114.977 396.034 111.682 396.034 107.416C396.034 105.533 396.157 104.027 396.41 102.897C397.416 97.2489 399.641 92.8595 403.094 89.7176C406.548 86.5815 410.532 85.0105 415.05 85.0105C418.939 85.0105 422.017 86.1696 424.276 88.4937C426.536 90.8178 427.665 94.1128 427.665 98.3786C427.665 100.261 427.536 101.768 427.289 102.897ZM403.377 64.2995L411.849 16.6641H370.051L345.386 155.993H387.185L389.82 141.495C391.574 146.391 394.681 150.25 399.14 153.075C403.594 155.899 409.278 157.311 416.18 157.311C424.464 157.311 432.308 155.146 439.715 150.815C447.117 146.485 453.46 140.213 458.732 131.987C464.004 123.767 467.646 114.071 469.652 102.897C470.529 98.3786 470.97 93.7362 470.97 88.9644C470.97 76.2907 467.705 66.3706 461.179 59.2158C454.648 52.0611 446.052 48.4838 435.385 48.4838C428.477 48.4838 422.299 49.8959 416.839 52.7201C411.379 55.5443 406.889 59.4041 403.377 64.2995Z" fill="#333333"/>
<path d="M228.657 49.8018L255.016 150.721L218.49 206.829H264.242L359.889 49.8018H313.76L285.518 103.65L275.162 49.8018H228.657Z" fill="#333333"/>
<path d="M222.255 82.5629L228.092 49.8018H140.541L134.327 84.4457H174.243L126.984 123.232L121.148 155.993H211.146L217.36 121.349H173.113L222.255 82.5629Z" fill="#333333"/>
<path d="M66.3575 157.311C77.525 157.311 87.1921 155.463 95.3529 151.757C103.508 148.056 109.757 142.937 114.087 136.412C118.418 129.886 120.583 122.543 120.583 114.383C120.583 107.228 118.888 101.173 115.499 96.2133C112.11 91.2591 108.062 87.2699 103.355 84.2574C98.6479 81.2448 92.717 78.0441 85.5623 74.655C79.2842 71.6425 74.7066 69.1007 71.8176 67.0295C68.9287 64.9584 67.4872 62.5402 67.4872 59.7807C67.4872 57.7743 68.1756 56.1445 69.5583 54.8853C70.9351 53.6321 72.6943 53.0025 74.8302 53.0025C77.2131 53.0025 79.0959 53.6615 80.4786 54.9795C81.8613 56.2975 82.5497 58.1509 82.5497 60.5338C82.5497 61.0339 82.4203 62.0401 82.1732 63.5463H127.173C127.42 61.0398 127.549 59.2806 127.549 58.2744C127.549 50.496 125.384 43.7473 121.053 38.0341C116.723 32.3209 110.757 27.961 103.167 24.9485C95.5706 21.9359 86.945 20.4297 77.2778 20.4297C66.481 20.4297 56.8786 22.189 48.4707 25.7016C40.0568 29.2142 33.5022 34.392 28.7952 41.2349C24.0881 48.0778 21.7346 56.2033 21.7346 65.6174C21.7346 72.7722 23.4291 78.7325 26.8182 83.5042C30.2073 88.276 34.1906 92.0417 38.7741 94.8012C43.3576 97.5607 49.2238 100.45 56.3785 103.462C62.9037 106.222 67.646 108.61 70.5938 110.617C73.5416 112.629 75.0185 115.136 75.0185 118.148C75.0185 120.284 74.2653 121.914 72.7591 123.044C71.2528 124.173 69.37 124.738 67.1106 124.738C63.4685 124.738 60.862 123.797 59.2969 121.914C57.7259 120.031 57.1316 117.148 57.5082 113.253H13.0736C12.8206 115.765 12.697 117.648 12.697 118.901C12.697 131.451 17.5571 140.995 27.2889 147.52C37.0149 154.045 50.0416 157.311 66.3575 157.311Z" fill="#333333"/>
<mask id="mask1_19_2" style="mask-type:alpha" maskUnits="userSpaceOnUse" x="12" y="13" width="781" height="194">
<path d="M744.162 157.499C749.434 157.499 754.2 156.399 758.471 154.204C762.737 152.01 766.061 149.062 768.45 145.355C770.833 141.654 772.028 137.606 772.028 133.211C772.028 128.192 770.204 124.079 766.567 120.878C762.925 117.677 757.906 116.077 751.505 116.077C746.233 116.077 741.432 117.177 737.101 119.372C732.771 121.573 729.382 124.55 726.934 128.315C724.486 132.081 723.262 136.159 723.262 140.554C723.262 145.579 725.11 149.656 728.817 152.792C732.518 155.934 737.637 157.499 744.162 157.499ZM746.609 13.8398L735.877 103.086H771.651L792.174 13.8398H746.609Z" fill="black"/>
<path d="M650.968 121.161C647.579 121.161 644.878 120.096 642.872 117.96C640.865 115.824 639.859 112.629 639.859 108.358C639.859 102.333 641.424 96.8724 644.566 91.9771C647.702 87.0817 651.974 84.6341 657.37 84.6341C660.635 84.6341 663.3 85.699 665.372 87.8349C667.443 89.9707 668.478 93.1715 668.478 97.4373C668.478 103.462 666.907 108.922 663.771 113.818C660.635 118.713 656.363 121.161 650.968 121.161ZM644.566 157.311C657.24 157.311 668.666 154.581 678.834 149.121C689.001 143.661 696.968 136.035 702.746 126.244C708.518 116.454 711.407 105.41 711.407 93.1068C711.407 84.1987 709.394 76.3791 705.381 69.6656C701.363 62.9522 695.779 57.745 688.624 54.0382C681.47 50.3373 673.185 48.4839 663.771 48.4839C651.221 48.4839 639.859 51.2434 629.692 56.7683C619.525 62.2932 611.523 69.9481 605.686 79.7387C599.849 89.5294 596.931 100.579 596.931 112.876C596.931 121.79 598.937 129.604 602.956 136.318C606.969 143.031 612.558 148.215 619.713 151.851C626.868 155.493 635.152 157.311 644.566 157.311Z" fill="black"/>
<path d="M605.969 49.8017H557.392L523.689 89.7176L536.681 16.6641H494.882L470.217 155.993H512.016L519.547 113.629L538.187 155.993H588.082L556.827 103.274L605.969 49.8017Z" fill="black"/>
<path d="M427.289 102.897C426.283 108.546 424.058 112.941 420.605 116.077C417.151 119.213 413.167 120.784 408.649 120.784C404.759 120.784 401.682 119.625 399.423 117.301C397.163 114.977 396.034 111.682 396.034 107.416C396.034 105.533 396.157 104.027 396.41 102.897C397.416 97.2489 399.641 92.8595 403.094 89.7176C406.548 86.5815 410.532 85.0105 415.05 85.0105C418.939 85.0105 422.017 86.1696 424.276 88.4937C426.536 90.8178 427.665 94.1128 427.665 98.3786C427.665 100.261 427.536 101.768 427.289 102.897ZM403.377 64.2995L411.849 16.6641H370.051L345.386 155.993H387.185L389.82 141.495C391.574 146.391 394.681 150.25 399.14 153.075C403.594 155.899 409.278 157.311 416.18 157.311C424.464 157.311 432.308 155.146 439.715 150.815C447.117 146.485 453.46 140.213 458.732 131.987C464.004 123.767 467.646 114.071 469.652 102.897C470.529 98.3786 470.97 93.7362 470.97 88.9644C470.97 76.2907 467.705 66.3706 461.179 59.2158C454.648 52.0611 446.052 48.4838 435.385 48.4838C428.477 48.4838 422.299 49.8959 416.839 52.7201C411.379 55.5443 406.889 59.4041 403.377 64.2995Z" fill="black"/>
<path d="M228.657 49.8018L255.016 150.721L218.49 206.829H264.242L359.889 49.8018H313.76L285.518 103.65L275.162 49.8018H228.657Z" fill="black"/>
<path d="M222.255 82.5629L228.092 49.8018H140.541L134.327 84.4457H174.243L126.984 123.232L121.148 155.993H211.146L217.36 121.349H173.113L222.255 82.5629Z" fill="black"/>
<path d="M66.3575 157.311C77.525 157.311 87.1921 155.463 95.3529 151.757C103.508 148.056 109.757 142.937 114.087 136.412C118.418 129.886 120.583 122.543 120.583 114.383C120.583 107.228 118.888 101.173 115.499 96.2133C112.11 91.2591 108.062 87.2699 103.355 84.2574C98.6479 81.2448 92.717 78.0441 85.5623 74.655C79.2842 71.6425 74.7066 69.1007 71.8176 67.0295C68.9287 64.9584 67.4872 62.5402 67.4872 59.7807C67.4872 57.7743 68.1756 56.1445 69.5583 54.8853C70.9351 53.6321 72.6943 53.0025 74.8302 53.0025C77.2131 53.0025 79.0959 53.6615 80.4786 54.9795C81.8613 56.2975 82.5497 58.1509 82.5497 60.5338C82.5497 61.0339 82.4203 62.0401 82.1732 63.5463H127.173C127.42 61.0398 127.549 59.2806 127.549 58.2744C127.549 50.496 125.384 43.7473 121.053 38.0341C116.723 32.3209 110.757 27.961 103.167 24.9485C95.5706 21.9359 86.945 20.4297 77.2778 20.4297C66.481 20.4297 56.8786 22.189 48.4707 25.7016C40.0568 29.2142 33.5022 34.392 28.7952 41.2349C24.0881 48.0778 21.7346 56.2033 21.7346 65.6174C21.7346 72.7722 23.4291 78.7325 26.8182 83.5042C30.2073 88.276 34.1906 92.0417 38.7741 94.8012C43.3576 97.5607 49.2238 100.45 56.3785 103.462C62.9037 106.222 67.646 108.61 70.5938 110.617C73.5416 112.629 75.0185 115.136 75.0185 118.148C75.0185 120.284 74.2653 121.914 72.7591 123.044C71.2528 124.173 69.37 124.738 67.1106 124.738C63.4685 124.738 60.862 123.797 59.2969 121.914C57.7259 120.031 57.1316 117.148 57.5082 113.253H13.0736C12.8206 115.765 12.697 117.648 12.697 118.901C12.697 131.451 17.5571 140.995 27.2889 147.52C37.0149 154.045 50.0416 157.311 66.3575 157.311Z" fill="black"/>
</mask>
<g mask="url(#mask1_19_2)">
<mask id="mask2_19_2" style="mask-type:luminance" maskUnits="userSpaceOnUse" x="0" y="0" width="800" height="215">
<path d="M0 0H800V215H0V0Z" fill="white"/>
</mask>
<g mask="url(#mask2_19_2)">
<mask id="mask3_19_2" style="mask-type:luminance" maskUnits="userSpaceOnUse" x="153" y="107" width="480" height="6">
<path d="M153.64 110H632.36Z" fill="black"/>
<path d="M153.64 110H632.36" stroke="url(#paint0_linear_19_2)" stroke-width="4.52548"/>
</mask>
<g mask="url(#mask3_19_2)">
<path d="M153.64 110H632.36" stroke="url(#paint1_linear_19_2)" stroke-width="4.52548"/>
</g>
<mask id="mask4_19_2" style="mask-type:luminance" maskUnits="userSpaceOnUse" x="234" y="108" width="318" height="4">
<path d="M234.05 110H551.95Z" fill="black"/>
<path d="M234.05 110H551.95" stroke="url(#paint2_linear_19_2)" stroke-width="3.68782"/>
</mask>
<g mask="url(#mask4_19_2)">
<path d="M234.05 110H551.95" stroke="url(#paint3_linear_19_2)" stroke-width="3.68782"/>
</g>
<mask id="mask5_19_2" style="mask-type:luminance" maskUnits="userSpaceOnUse" x="109" y="46" width="37" height="38">
<path d="M127.528 46.75C137.601 46.75 145.779 54.9279 145.779 65.0001C145.779 75.0723 137.601 83.2502 127.528 83.2502C117.456 83.2502 109.278 75.0723 109.278 65.0001C109.278 54.9279 117.456 46.75 127.528 46.75Z" fill="url(#paint4_radial_19_2)"/>
</mask>
<g mask="url(#mask5_19_2)">
<path d="M127.528 46.75C137.601 46.75 145.779 54.9279 145.779 65.0001C145.779 75.0723 137.601 83.2502 127.528 83.2502C117.456 83.2502 109.278 75.0723 109.278 65.0001C109.278 54.9279 117.456 46.75 127.528 46.75Z" fill="url(#paint5_radial_19_2)"/>
</g>
<mask id="mask6_19_2" style="mask-type:luminance" maskUnits="userSpaceOnUse" x="63" y="107" width="660" height="6">
<path d="M63.88 110H722.12Z" fill="black"/>
<path d="M63.88 110H722.12" stroke="url(#paint6_linear_19_2)" stroke-width="5.3066"/>
</mask>
<g mask="url(#mask6_19_2)">
<path d="M63.88 110H722.12" stroke="url(#paint7_linear_19_2)" stroke-width="5.3066"/>
</g>
<mask id="mask7_19_2" style="mask-type:luminance" maskUnits="userSpaceOnUse" x="720" y="67" width="55" height="56">
<path d="M747.721 67.8198C762.722 67.8198 774.901 79.9992 774.901 94.9999C774.901 110.001 762.722 122.18 747.721 122.18C732.72 122.18 720.541 110.001 720.541 94.9999C720.541 79.9992 732.72 67.8198 747.721 67.8198Z" fill="url(#paint8_radial_19_2)"/>
</mask>
<g mask="url(#mask7_19_2)">
<path d="M747.721 67.8198C762.722 67.8198 774.901 79.9992 774.901 94.9999C774.901 110.001 762.722 122.18 747.721 122.18C732.72 122.18 720.541 110.001 720.541 94.9999C720.541 79.9992 732.72 67.8198 747.721 67.8198Z" fill="url(#paint9_radial_19_2)"/>
</g>
</g>
</g>
</g>
</g>
<defs>
<linearGradient id="paint0_linear_19_2" x1="-nan" y1="-nan" x2="-nan" y2="-nan" gradientUnits="userSpaceOnUse">
<stop stop-color="white" stop-opacity="0"/>
<stop offset="0.15" stop-color="white" stop-opacity="0.5"/>
<stop offset="0.51" stop-color="white"/>
<stop offset="0.68" stop-color="white"/>
<stop offset="0.85" stop-color="white"/>
<stop offset="0.92" stop-color="white" stop-opacity="0.5"/>
<stop offset="1" stop-color="white" stop-opacity="0"/>
</linearGradient>
<linearGradient id="paint1_linear_19_2" x1="-nan" y1="-nan" x2="-nan" y2="-nan" gradientUnits="userSpaceOnUse">
<stop stop-color="white"/>
<stop offset="0.26" stop-color="white"/>
<stop offset="0.51" stop-color="white"/>
<stop offset="0.76" stop-color="white"/>
<stop offset="1" stop-color="white"/>
</linearGradient>
<linearGradient id="paint2_linear_19_2" x1="-nan" y1="-nan" x2="-nan" y2="-nan" gradientUnits="userSpaceOnUse">
<stop stop-color="white" stop-opacity="0"/>
<stop offset="0.15" stop-color="white" stop-opacity="0.5"/>
<stop offset="0.51" stop-color="white"/>
<stop offset="0.68" stop-color="white"/>
<stop offset="0.85" stop-color="white"/>
<stop offset="0.92" stop-color="white" stop-opacity="0.5"/>
<stop offset="1" stop-color="white" stop-opacity="0"/>
</linearGradient>
<linearGradient id="paint3_linear_19_2" x1="-nan" y1="-nan" x2="-nan" y2="-nan" gradientUnits="userSpaceOnUse">
<stop stop-color="white"/>
<stop offset="0.26" stop-color="white"/>
<stop offset="0.51" stop-color="white"/>
<stop offset="0.76" stop-color="white"/>
<stop offset="1" stop-color="white"/>
</linearGradient>
<radialGradient id="paint4_radial_19_2" cx="0" cy="0" r="1" gradientUnits="userSpaceOnUse" gradientTransform="translate(127.528 65.0001) scale(17.7647)">
<stop stop-color="white"/>
<stop offset="0.47" stop-color="white" stop-opacity="0.5"/>
<stop offset="0.91" stop-color="white" stop-opacity="0"/>
<stop offset="0.95" stop-color="white" stop-opacity="0"/>
<stop offset="1" stop-color="white" stop-opacity="0"/>
</radialGradient>
<radialGradient id="paint5_radial_19_2" cx="0" cy="0" r="1" gradientUnits="userSpaceOnUse" gradientTransform="translate(127.528 65.0001) scale(17.7647)">
<stop stop-color="white"/>
<stop offset="0.31" stop-color="white"/>
<stop offset="1" stop-color="white"/>
</radialGradient>
<linearGradient id="paint6_linear_19_2" x1="-nan" y1="-nan" x2="-nan" y2="-nan" gradientUnits="userSpaceOnUse">
<stop stop-color="white" stop-opacity="0"/>
<stop offset="0.15" stop-color="white" stop-opacity="0.5"/>
<stop offset="0.51" stop-color="white"/>
<stop offset="0.68" stop-color="white"/>
<stop offset="0.85" stop-color="white"/>
<stop offset="0.92" stop-color="white" stop-opacity="0.5"/>
<stop offset="1" stop-color="white" stop-opacity="0"/>
</linearGradient>
<linearGradient id="paint7_linear_19_2" x1="-nan" y1="-nan" x2="-nan" y2="-nan" gradientUnits="userSpaceOnUse">
<stop stop-color="white"/>
<stop offset="0.26" stop-color="white"/>
<stop offset="0.51" stop-color="white"/>
<stop offset="0.76" stop-color="white"/>
<stop offset="1" stop-color="white"/>
</linearGradient>
<radialGradient id="paint8_radial_19_2" cx="0" cy="0" r="1" gradientUnits="userSpaceOnUse" gradientTransform="translate(747.721 94.9999) scale(26.4572)">
<stop stop-color="white"/>
<stop offset="0.47" stop-color="white" stop-opacity="0.5"/>
<stop offset="0.91" stop-color="white" stop-opacity="0"/>
<stop offset="0.95" stop-color="white" stop-opacity="0"/>
<stop offset="1" stop-color="white" stop-opacity="0"/>
</radialGradient>
<radialGradient id="paint9_radial_19_2" cx="0" cy="0" r="1" gradientUnits="userSpaceOnUse" gradientTransform="translate(747.721 94.9999) scale(26.4572)">
<stop stop-color="white"/>
<stop offset="0.31" stop-color="white"/>
<stop offset="1" stop-color="white"/>
</radialGradient>
<clipPath id="clip0_19_2">
<rect width="800" height="215" fill="white"/>
</clipPath>
</defs>
</svg>
