<?xml version="1.0" encoding="utf-8"?>
<!-- Generator: Adobe Illustrator 25.0.0, SVG Export Plug-In . SVG Version: 6.00 Build 0)  -->
<svg version="1.1" id="Layer_1" xmlns="http://www.w3.org/2000/svg" xmlns:xlink="http://www.w3.org/1999/xlink" x="0px" y="0px"
	 viewBox="0 0 349 470" style="enable-background:new 0 0 349 470;" xml:space="preserve">
<style type="text/css">
	.st0{fill:url(#SVGID_1_);}
	.st1{fill:url(#SVGID_2_);}
	.st2{fill:url(#SVGID_3_);}
	.st3{fill:url(#SVGID_4_);}
	.st4{fill:url(#SVGID_5_);}
	.st5{fill:url(#SVGID_6_);}
	.st6{fill:url(#SVGID_7_);}
	.st7{fill:url(#SVGID_8_);}
	.st8{fill:url(#SVGID_9_);}
	.st9{fill:url(#SVGID_10_);}
	.st10{fill:url(#SVGID_11_);}
	.st11{fill:url(#SVGID_12_);}
	.st12{fill:url(#SVGID_13_);}
	.st13{fill:url(#SVGID_14_);}
	.st14{fill:url(#SVGID_15_);}
	.st15{fill:url(#SVGID_16_);}
	.st16{fill:url(#SVGID_17_);}
	.st17{fill:url(#SVGID_18_);}
	.st18{fill:url(#SVGID_19_);}
	.st19{fill:url(#SVGID_20_);}
	.st20{fill:url(#SVGID_21_);}
	.st21{fill:url(#SVGID_22_);}
	.st22{fill:url(#SVGID_23_);}
	.st23{fill:url(#SVGID_24_);}
	.st24{fill:url(#SVGID_25_);}
	.st25{fill:url(#SVGID_26_);}
	.st26{fill:url(#SVGID_27_);}
	.st27{fill:url(#SVGID_28_);}
	.st28{fill:url(#SVGID_29_);}
	.st29{fill:url(#SVGID_30_);}
	.st30{fill:url(#SVGID_31_);}
	.st31{fill:url(#SVGID_32_);}
	.st32{fill:url(#SVGID_33_);}
</style>
<g>
	<linearGradient id="SVGID_1_" gradientUnits="userSpaceOnUse" x1="214.6548" y1="-29.2818" x2="-76.0118" y2="162.7182">
		<stop  offset="0" style="stop-color:#C2A468"/>
		<stop  offset="0.176" style="stop-color:#947646"/>
		<stop  offset="0.1937" style="stop-color:#8E7143"/>
		<stop  offset="0.3249" style="stop-color:#634F2F"/>
		<stop  offset="0.4581" style="stop-color:#3F321E"/>
		<stop  offset="0.5919" style="stop-color:#231C11"/>
		<stop  offset="0.7262" style="stop-color:#100D07"/>
		<stop  offset="0.8617" style="stop-color:#040302"/>
		<stop  offset="1" style="stop-color:#000000"/>
	</linearGradient>
	<path class="st0" d="M116.8,54.6c-0.2-0.7-1.5-4.7-4.8-7.6c1.5-0.6,3-1.4,4.4-2.8c2.7-2.6,4.1-6.3,4.1-11c0-4.7-1.4-8.3-4.1-10.8
		c-3.9-3.6-9.2-3.4-10.1-3.3H82.6v52h4v-23l17.7,0v0c6.4,0,8.5,7.4,8.6,7.7l5.7,16l3.8-1.3L116.8,54.6z M86.6,44.1v-21h19.7l0.2,0
		c0,0,4.3-0.3,7.2,2.3c1.8,1.7,2.8,4.3,2.8,7.8c0,3.5-1,6.3-2.8,8.1c-2.9,2.8-7.1,2.8-7.2,2.8H86.6z"/>
</g>
<g>
	<g>
		<linearGradient id="SVGID_2_" gradientUnits="userSpaceOnUse" x1="233.42" y1="-0.8734" x2="-57.2466" y2="191.1266">
			<stop  offset="0" style="stop-color:#C2A468"/>
			<stop  offset="0.176" style="stop-color:#947646"/>
			<stop  offset="0.1937" style="stop-color:#8E7143"/>
			<stop  offset="0.3249" style="stop-color:#634F2F"/>
			<stop  offset="0.4581" style="stop-color:#3F321E"/>
			<stop  offset="0.5919" style="stop-color:#231C11"/>
			<stop  offset="0.7262" style="stop-color:#100D07"/>
			<stop  offset="0.8617" style="stop-color:#040302"/>
			<stop  offset="1" style="stop-color:#000000"/>
		</linearGradient>
		<path class="st1" d="M159.6,33.8v6.1c-3.1-4.3-7.8-7.1-13.1-7.1c-9.4,0-17.1,8.9-17.1,19.8s7.7,19.8,17.1,19.8
			c5.2,0,9.9-2.8,13.1-7.1v6.6h4V33.8H159.6z M146.6,68.3c-7.2,0-13.1-7.1-13.1-15.8s5.9-15.8,13.1-15.8c7.2,0,13.1,7.1,13.1,15.8
			S153.8,68.3,146.6,68.3z"/>
	</g>
</g>
<g>
	<g>
		<linearGradient id="SVGID_3_" gradientUnits="userSpaceOnUse" x1="241.5728" y1="11.4689" x2="-49.0939" y2="203.4689">
			<stop  offset="0" style="stop-color:#C2A468"/>
			<stop  offset="0.176" style="stop-color:#947646"/>
			<stop  offset="0.1937" style="stop-color:#8E7143"/>
			<stop  offset="0.3249" style="stop-color:#634F2F"/>
			<stop  offset="0.4581" style="stop-color:#3F321E"/>
			<stop  offset="0.5919" style="stop-color:#231C11"/>
			<stop  offset="0.7262" style="stop-color:#100D07"/>
			<stop  offset="0.8617" style="stop-color:#040302"/>
			<stop  offset="1" style="stop-color:#000000"/>
		</linearGradient>
		<path class="st2" d="M194,38v-4h-12.1V22.7l-4,1.9V34h-7.1v4h7.1v22.6c0,6.2,5.1,11.3,11.3,11.3h4.8v-4h-4.8c-4,0-7.3-3.3-7.3-7.3
			V38H194z"/>
	</g>
</g>
<g>
	<g>
		<linearGradient id="SVGID_4_" gradientUnits="userSpaceOnUse" x1="248.8407" y1="22.4718" x2="-41.826" y2="214.4718">
			<stop  offset="0" style="stop-color:#C2A468"/>
			<stop  offset="0.176" style="stop-color:#947646"/>
			<stop  offset="0.1937" style="stop-color:#8E7143"/>
			<stop  offset="0.3249" style="stop-color:#634F2F"/>
			<stop  offset="0.4581" style="stop-color:#3F321E"/>
			<stop  offset="0.5919" style="stop-color:#231C11"/>
			<stop  offset="0.7262" style="stop-color:#100D07"/>
			<stop  offset="0.8617" style="stop-color:#040302"/>
			<stop  offset="1" style="stop-color:#000000"/>
		</linearGradient>
		<rect x="200.9" y="33.8" class="st3" width="4" height="38.1"/>
	</g>
</g>
<g>
	<linearGradient id="SVGID_5_" gradientUnits="userSpaceOnUse" x1="234.5403" y1="0.8225" x2="-56.1264" y2="192.8226">
		<stop  offset="0" style="stop-color:#C2A468"/>
		<stop  offset="0.176" style="stop-color:#947646"/>
		<stop  offset="0.1937" style="stop-color:#8E7143"/>
		<stop  offset="0.3249" style="stop-color:#634F2F"/>
		<stop  offset="0.4581" style="stop-color:#3F321E"/>
		<stop  offset="0.5919" style="stop-color:#231C11"/>
		<stop  offset="0.7262" style="stop-color:#100D07"/>
		<stop  offset="0.8617" style="stop-color:#040302"/>
		<stop  offset="1" style="stop-color:#000000"/>
	</linearGradient>
	<ellipse class="st4" cx="203.3" cy="21.5" rx="3.1" ry="3.4"/>
</g>
<g>
	<g>
		<linearGradient id="SVGID_6_" gradientUnits="userSpaceOnUse" x1="257.8258" y1="36.0742" x2="-32.8409" y2="228.0742">
			<stop  offset="0" style="stop-color:#C2A468"/>
			<stop  offset="0.176" style="stop-color:#947646"/>
			<stop  offset="0.1937" style="stop-color:#8E7143"/>
			<stop  offset="0.3249" style="stop-color:#634F2F"/>
			<stop  offset="0.4581" style="stop-color:#3F321E"/>
			<stop  offset="0.5919" style="stop-color:#231C11"/>
			<stop  offset="0.7262" style="stop-color:#100D07"/>
			<stop  offset="0.8617" style="stop-color:#040302"/>
			<stop  offset="1" style="stop-color:#000000"/>
		</linearGradient>
		<path class="st5" d="M234.6,33.2h-3.2c-4.1,0-7.7,1.7-10.3,4.4v-3.9h-4v13.8v6v18.3h4V53.6v-6c0-5.7,4.6-10.3,10.3-10.3h3.2
			c5.7,0,10.3,4.6,10.3,10.3v23.6h4V47.6C249,39.7,242.5,33.2,234.6,33.2z"/>
	</g>
</g>
<g>
	<g>
		<linearGradient id="SVGID_7_" gradientUnits="userSpaceOnUse" x1="274.2444" y1="60.9301" x2="-16.4223" y2="252.9301">
			<stop  offset="0" style="stop-color:#C2A468"/>
			<stop  offset="0.176" style="stop-color:#947646"/>
			<stop  offset="0.1937" style="stop-color:#8E7143"/>
			<stop  offset="0.3249" style="stop-color:#634F2F"/>
			<stop  offset="0.4581" style="stop-color:#3F321E"/>
			<stop  offset="0.5919" style="stop-color:#231C11"/>
			<stop  offset="0.7262" style="stop-color:#100D07"/>
			<stop  offset="0.8617" style="stop-color:#040302"/>
			<stop  offset="1" style="stop-color:#000000"/>
		</linearGradient>
		<path class="st6" d="M286.8,32.7v6.7c-3.1-4-7.8-6.6-13.1-6.6c-9.4,0-17.1,8.3-17.1,18.5s7.7,18.5,17.1,18.5
			c5.2,0,9.9-2.6,13.1-6.6V74c0,5.6-4.6,10.2-10.2,10.2h-3.3l-0.1,0c-0.1,0-7.3,0.3-10.5-3.3l-3,2.6c3.8,4.3,10.7,4.7,13,4.7
			c0.3,0,0.6,0,0.7,0h3.3c7.8,0,14.2-6.4,14.2-14.2V32.7H286.8z M273.7,65.8c-7.2,0-13.1-6.5-13.1-14.5s5.9-14.5,13.1-14.5
			c7.2,0,13.1,6.5,13.1,14.5S280.9,65.8,273.7,65.8z"/>
	</g>
</g>
<g>
	<linearGradient id="SVGID_8_" gradientUnits="userSpaceOnUse" x1="258.6672" y1="37.3481" x2="-31.9994" y2="229.3481">
		<stop  offset="0" style="stop-color:#C2A468"/>
		<stop  offset="0.176" style="stop-color:#947646"/>
		<stop  offset="0.1937" style="stop-color:#8E7143"/>
		<stop  offset="0.3249" style="stop-color:#634F2F"/>
		<stop  offset="0.4581" style="stop-color:#3F321E"/>
		<stop  offset="0.5919" style="stop-color:#231C11"/>
		<stop  offset="0.7262" style="stop-color:#100D07"/>
		<stop  offset="0.8617" style="stop-color:#040302"/>
		<stop  offset="1" style="stop-color:#000000"/>
	</linearGradient>
	<path class="st7" d="M123.4,109.2c0-4.6,0.3-8.4,0.2-11.8h6.5l-0.2,6.2h0.2c3-4.4,7.7-7,14.2-7c9.7,0,16.9,7.4,16.9,18.4
		c0,13-8.8,19.4-18.2,19.4c-5.3,0-9.9-2.1-12.3-5.7h-0.2v22.4h-7.2V109.2z M130.6,118.9c0,1,0.2,1.9,0.3,2.7
		c1.3,4.6,5.7,7.7,10.9,7.7c7.7,0,12.2-5.7,12.2-14c0-7.2-4.2-13.4-11.9-13.4c-5,0-9.6,3.2-11,8.1c-0.2,0.8-0.5,1.8-0.5,2.7V118.9z"
		/>
</g>
<g>
	<linearGradient id="SVGID_9_" gradientUnits="userSpaceOnUse" x1="246.8575" y1="19.4695" x2="-43.8091" y2="211.4695">
		<stop  offset="0" style="stop-color:#C2A468"/>
		<stop  offset="0.176" style="stop-color:#947646"/>
		<stop  offset="0.1937" style="stop-color:#8E7143"/>
		<stop  offset="0.3249" style="stop-color:#634F2F"/>
		<stop  offset="0.4581" style="stop-color:#3F321E"/>
		<stop  offset="0.5919" style="stop-color:#231C11"/>
		<stop  offset="0.7262" style="stop-color:#100D07"/>
		<stop  offset="0.8617" style="stop-color:#040302"/>
		<stop  offset="1" style="stop-color:#000000"/>
	</linearGradient>
	<path class="st8" d="M114.6,134.3h-7.2v-5.6h-0.2c-2.4,3.6-7,5.7-12.3,5.7c-9.4,0-18.2-6.4-18.2-19.4c0-11,7.3-18.4,16.9-18.4
		c6.5,0,11.2,2.6,14.2,7h0.2l0-6.2h6.5c-0.2,3.4,0,7.2,0,11.8V134.3z M107.4,112.7c0-0.9-0.2-1.9-0.5-2.7c-1.4-4.9-6-8.1-11-8.1
		c-7.7,0-11.9,6.2-11.9,13.4c0,8.3,4.5,14,12.2,14c5.2,0,9.6-3.1,10.9-7.7c0.2-0.8,0.3-1.7,0.3-2.7V112.7z"/>
</g>
<g>
	<linearGradient id="SVGID_10_" gradientUnits="userSpaceOnUse" x1="282.1635" y1="72.9188" x2="-8.5032" y2="264.9188">
		<stop  offset="0" style="stop-color:#C2A468"/>
		<stop  offset="0.176" style="stop-color:#947646"/>
		<stop  offset="0.1937" style="stop-color:#8E7143"/>
		<stop  offset="0.3249" style="stop-color:#634F2F"/>
		<stop  offset="0.4581" style="stop-color:#3F321E"/>
		<stop  offset="0.5919" style="stop-color:#231C11"/>
		<stop  offset="0.7262" style="stop-color:#100D07"/>
		<stop  offset="0.8617" style="stop-color:#040302"/>
		<stop  offset="1" style="stop-color:#000000"/>
	</linearGradient>
	<path class="st9" d="M230.8,134.3h-7.2v-5.6h-0.2c-2.4,3.6-7,5.7-12.3,5.7c-9.4,0-18.2-6.4-18.2-19.4c0-11,7.3-18.4,16.9-18.4
		c6.5,0,11.2,2.6,14.2,7h0.2l-0.1-6.2h6.5L230.8,134.3z M223.6,112.7c0-0.9-0.2-1.9-0.5-2.7c-1.4-4.9-6-8.1-11-8.1
		c-7.7,0-11.9,6.2-11.9,13.4c0,8.3,4.5,14,12.2,14c5.2,0,9.6-3.1,10.9-7.7c0.2-0.8,0.3-1.7,0.3-2.7V112.7z"/>
</g>
<g>
	<linearGradient id="SVGID_11_" gradientUnits="userSpaceOnUse" x1="268.7501" y1="52.6125" x2="-21.9165" y2="244.6125">
		<stop  offset="0" style="stop-color:#C2A468"/>
		<stop  offset="0.176" style="stop-color:#947646"/>
		<stop  offset="0.1937" style="stop-color:#8E7143"/>
		<stop  offset="0.3249" style="stop-color:#634F2F"/>
		<stop  offset="0.4581" style="stop-color:#3F321E"/>
		<stop  offset="0.5919" style="stop-color:#231C11"/>
		<stop  offset="0.7262" style="stop-color:#100D07"/>
		<stop  offset="0.8617" style="stop-color:#040302"/>
		<stop  offset="1" style="stop-color:#000000"/>
	</linearGradient>
	<path class="st10" d="M179.2,84.3v13.2h10.4v5h-10.4v19.5c0,4.5,1.4,7,5.5,7c1.9,0,3.3-0.2,4.2-0.4l0.3,4.9
		c-1.4,0.5-3.6,0.9-6.4,0.9c-3.4,0-6.1-1-7.9-2.8c-2.1-1.9-2.8-5.1-2.8-9.4v-19.7h-6.2v-5h6.2v-9.2L179.2,84.3z"/>
</g>
<g>
	<linearGradient id="SVGID_12_" gradientUnits="userSpaceOnUse" x1="275.4585" y1="62.7682" x2="-15.2081" y2="254.7682">
		<stop  offset="0" style="stop-color:#C2A468"/>
		<stop  offset="0.176" style="stop-color:#947646"/>
		<stop  offset="0.1937" style="stop-color:#8E7143"/>
		<stop  offset="0.3249" style="stop-color:#634F2F"/>
		<stop  offset="0.4581" style="stop-color:#3F321E"/>
		<stop  offset="0.5919" style="stop-color:#231C11"/>
		<stop  offset="0.7262" style="stop-color:#100D07"/>
		<stop  offset="0.8617" style="stop-color:#040302"/>
		<stop  offset="1" style="stop-color:#000000"/>
	</linearGradient>
	<path class="st11" d="M244.3,87.3c2.9,0,4.7-1.8,4.6-4c0-2.3-1.7-4.1-4.5-4.1c-2.6,0-4.5,1.8-4.5,4.1
		C240,85.5,241.8,87.3,244.3,87.3z"/>
</g>
<g>
	<linearGradient id="SVGID_13_" gradientUnits="userSpaceOnUse" x1="290.3164" y1="85.2614" x2="-0.3503" y2="277.2614">
		<stop  offset="0" style="stop-color:#C2A468"/>
		<stop  offset="0.176" style="stop-color:#947646"/>
		<stop  offset="0.1937" style="stop-color:#8E7143"/>
		<stop  offset="0.3249" style="stop-color:#634F2F"/>
		<stop  offset="0.4581" style="stop-color:#3F321E"/>
		<stop  offset="0.5919" style="stop-color:#231C11"/>
		<stop  offset="0.7262" style="stop-color:#100D07"/>
		<stop  offset="0.8617" style="stop-color:#040302"/>
		<stop  offset="1" style="stop-color:#000000"/>
	</linearGradient>
	<rect x="240.9" y="97.5" class="st12" width="7.3" height="36.1"/>
</g>
<g>
	<linearGradient id="SVGID_14_" gradientUnits="userSpaceOnUse" x1="299.5139" y1="99.1855" x2="8.8473" y2="291.1855">
		<stop  offset="0" style="stop-color:#C2A468"/>
		<stop  offset="0.176" style="stop-color:#947646"/>
		<stop  offset="0.1937" style="stop-color:#8E7143"/>
		<stop  offset="0.3249" style="stop-color:#634F2F"/>
		<stop  offset="0.4581" style="stop-color:#3F321E"/>
		<stop  offset="0.5919" style="stop-color:#231C11"/>
		<stop  offset="0.7262" style="stop-color:#100D07"/>
		<stop  offset="0.8617" style="stop-color:#040302"/>
		<stop  offset="1" style="stop-color:#000000"/>
	</linearGradient>
	<path class="st13" d="M257.8,97.5h6.6l-0.1,6h0.2c2-3.4,6.6-6.8,13.2-6.8c5.5,0,14.1,3,14.1,15.4v21.6h-7.3v-20.8
		c0-5.8-2.4-10.7-9.3-10.7c-4.8,0-8.5,3.1-9.8,6.7c-0.3,0.8-0.5,1.9-0.5,3.1v21.7h-7.3V97.5z"/>
</g>
<g>
	<linearGradient id="SVGID_15_" gradientUnits="userSpaceOnUse" x1="229.3292" y1="-7.0665" x2="-61.3375" y2="184.9335">
		<stop  offset="0" style="stop-color:#C2A468"/>
		<stop  offset="0.176" style="stop-color:#947646"/>
		<stop  offset="0.1937" style="stop-color:#8E7143"/>
		<stop  offset="0.3249" style="stop-color:#634F2F"/>
		<stop  offset="0.4581" style="stop-color:#3F321E"/>
		<stop  offset="0.5919" style="stop-color:#231C11"/>
		<stop  offset="0.7262" style="stop-color:#100D07"/>
		<stop  offset="0.8617" style="stop-color:#040302"/>
		<stop  offset="1" style="stop-color:#000000"/>
	</linearGradient>
	<path class="st14" d="M68.1,124.9L68.1,124.9c-0.2,0.1-0.4,0.2-0.7,0.4c-0.8,0.5-1.8,1.1-3,1.7c-1.2,0.6-2.7,1.2-4.4,1.7
		s-3.7,0.8-6,0.8c-2.7,0-5.2-0.4-7.3-1.3c-2.2-0.9-4-2.2-5.4-3.9c-1.5-1.7-2.6-3.8-3.4-6.4c-0.8-2.6-1.2-5.5-1.2-8.8
		c0-3.3,0.4-6.3,1.2-8.9s2-4.8,3.5-6.6c1.5-1.8,3.3-3.2,5.4-4.1c2.1-0.9,4.4-1.4,7-1.4c2.4,0,4.4,0.3,6.1,0.8
		c1.7,0.5,3.1,1.1,4.3,1.7c1.2,0.6,2.1,1.2,2.9,1.7c0.2,0.1,0.4,0.3,0.6,0.4l0,0l1.5,1l2.9-4.9c0,0-3-2.7-5.3-3.7
		c-1-0.6-2.2-1.1-3.6-1.5c-1.3-0.4-2.8-0.8-4.4-1.1S55.6,82,53.9,82c-3.8,0-7.2,0.6-10.3,1.9c-3.1,1.2-5.8,3-8,5.4
		c-2.2,2.4-4,5.2-5.2,8.7c-1.2,3.4-1.9,7.3-1.9,11.6c0,4.2,0.6,8,1.7,11.2c1.1,3.3,2.8,6,4.9,8.2c2.1,2.2,4.7,3.9,7.7,5
		c3,1.1,6.4,1.7,10.1,1.7c2.2,0,4.2-0.2,6-0.5c1.8-0.4,3.4-0.8,4.9-1.3c1.4-0.5,2.6-1.1,3.5-1.6c0,0,2.7-1.5,4.6-3.1l-2.1-5.4
		C69.9,123.7,69.1,124.3,68.1,124.9z"/>
</g>
<g>
	<linearGradient id="SVGID_16_" gradientUnits="userSpaceOnUse" x1="283.3278" y1="74.6814" x2="-7.3389" y2="266.6814">
		<stop  offset="0" style="stop-color:#C2A468"/>
		<stop  offset="0.176" style="stop-color:#947646"/>
		<stop  offset="0.1937" style="stop-color:#8E7143"/>
		<stop  offset="0.3249" style="stop-color:#634F2F"/>
		<stop  offset="0.4581" style="stop-color:#3F321E"/>
		<stop  offset="0.5919" style="stop-color:#231C11"/>
		<stop  offset="0.7262" style="stop-color:#100D07"/>
		<stop  offset="0.8617" style="stop-color:#040302"/>
		<stop  offset="1" style="stop-color:#000000"/>
	</linearGradient>
	<path class="st15" d="M160,144.1l3,6.1l6.8,1c0.8,0.1,1.1,1.1,0.5,1.6l-4.9,4.8l1.2,6.7c0.1,0.8-0.7,1.4-1.4,1l-6.1-3.2l-6.1,3.2
		c-0.7,0.4-1.5-0.2-1.4-1l1.2-6.7l-4.9-4.8c-0.6-0.6-0.3-1.5,0.5-1.6l6.8-1l3-6.1C158.7,143.4,159.7,143.4,160,144.1z"/>
</g>
<g>
	<linearGradient id="SVGID_17_" gradientUnits="userSpaceOnUse" x1="292.4545" y1="88.4982" x2="1.7878" y2="280.4982">
		<stop  offset="0" style="stop-color:#C2A468"/>
		<stop  offset="0.176" style="stop-color:#947646"/>
		<stop  offset="0.1937" style="stop-color:#8E7143"/>
		<stop  offset="0.3249" style="stop-color:#634F2F"/>
		<stop  offset="0.4581" style="stop-color:#3F321E"/>
		<stop  offset="0.5919" style="stop-color:#231C11"/>
		<stop  offset="0.7262" style="stop-color:#100D07"/>
		<stop  offset="0.8617" style="stop-color:#040302"/>
		<stop  offset="1" style="stop-color:#000000"/>
	</linearGradient>
	<path class="st16" d="M190.1,144.1l3,6.1l6.8,1c0.8,0.1,1.1,1.1,0.5,1.6l-4.9,4.8l1.2,6.7c0.1,0.8-0.7,1.4-1.4,1l-6.1-3.2l-6.1,3.2
		c-0.7,0.4-1.5-0.2-1.4-1l1.2-6.7l-4.9-4.8c-0.6-0.6-0.3-1.5,0.5-1.6l6.8-1l3-6.1C188.7,143.4,189.7,143.4,190.1,144.1z"/>
</g>
<g>
	<linearGradient id="SVGID_18_" gradientUnits="userSpaceOnUse" x1="301.7663" y1="102.5952" x2="11.0996" y2="294.5952">
		<stop  offset="0" style="stop-color:#C2A468"/>
		<stop  offset="0.176" style="stop-color:#947646"/>
		<stop  offset="0.1937" style="stop-color:#8E7143"/>
		<stop  offset="0.3249" style="stop-color:#634F2F"/>
		<stop  offset="0.4581" style="stop-color:#3F321E"/>
		<stop  offset="0.5919" style="stop-color:#231C11"/>
		<stop  offset="0.7262" style="stop-color:#100D07"/>
		<stop  offset="0.8617" style="stop-color:#040302"/>
		<stop  offset="1" style="stop-color:#000000"/>
	</linearGradient>
	<path class="st17" d="M220.7,144.1l3,6.1l6.8,1c0.8,0.1,1.1,1.1,0.5,1.6l-4.9,4.8l1.2,6.7c0.1,0.8-0.7,1.4-1.4,1l-6.1-3.2l-6.1,3.2
		c-0.7,0.4-1.5-0.2-1.4-1l1.2-6.7l-4.9-4.8c-0.6-0.6-0.3-1.5,0.5-1.6l6.8-1l3-6.1C219.3,143.4,220.4,143.4,220.7,144.1z"/>
</g>
<g>
	<linearGradient id="SVGID_19_" gradientUnits="userSpaceOnUse" x1="310.9151" y1="116.4456" x2="20.2484" y2="308.4456">
		<stop  offset="0" style="stop-color:#C2A468"/>
		<stop  offset="0.176" style="stop-color:#947646"/>
		<stop  offset="0.1937" style="stop-color:#8E7143"/>
		<stop  offset="0.3249" style="stop-color:#634F2F"/>
		<stop  offset="0.4581" style="stop-color:#3F321E"/>
		<stop  offset="0.5919" style="stop-color:#231C11"/>
		<stop  offset="0.7262" style="stop-color:#100D07"/>
		<stop  offset="0.8617" style="stop-color:#040302"/>
		<stop  offset="1" style="stop-color:#000000"/>
	</linearGradient>
	<path class="st18" d="M250.8,144.1l3,6.1l6.8,1c0.8,0.1,1.1,1.1,0.5,1.6l-4.9,4.8l1.2,6.7c0.1,0.8-0.7,1.4-1.4,1l-6.1-3.2l-6.1,3.2
		c-0.7,0.4-1.5-0.2-1.4-1l1.2-6.7l-4.9-4.8c-0.6-0.6-0.3-1.5,0.5-1.6l6.8-1l3-6.1C249.5,143.4,250.5,143.4,250.8,144.1z"/>
</g>
<g>
	<linearGradient id="SVGID_20_" gradientUnits="userSpaceOnUse" x1="320.1379" y1="130.4079" x2="29.4713" y2="322.4079">
		<stop  offset="0" style="stop-color:#C2A468"/>
		<stop  offset="0.176" style="stop-color:#947646"/>
		<stop  offset="0.1937" style="stop-color:#8E7143"/>
		<stop  offset="0.3249" style="stop-color:#634F2F"/>
		<stop  offset="0.4581" style="stop-color:#3F321E"/>
		<stop  offset="0.5919" style="stop-color:#231C11"/>
		<stop  offset="0.7262" style="stop-color:#100D07"/>
		<stop  offset="0.8617" style="stop-color:#040302"/>
		<stop  offset="1" style="stop-color:#000000"/>
	</linearGradient>
	<path class="st19" d="M291,151.2l-6.8-1l-3-6.1c-0.2-0.4-0.5-0.5-0.9-0.5c-0.3,0-0.7,0.2-0.9,0.5l-3,6.1l-6.8,1
		c-0.8,0.1-1.1,1.1-0.5,1.6l4.9,4.8l-1.2,6.8c-0.1,0.6,0.4,1.1,0.9,1.1c0.1,0,0.3,0,0.5-0.1l6.1-3.2l6.1,3.2
		c0.1,0.1,0.3,0.1,0.5,0.1c0.5,0,1-0.5,0.9-1.1l-1.2-6.8l4.9-4.8C292.1,152.3,291.8,151.4,291,151.2z M285.9,156.9l-0.4,0.4l0.1,0.5
		l1.1,6.7l-6-3.2l-0.5-0.2v-16.5l3,6.1l0.2,0.5l0.5,0.1l6.7,1L285.9,156.9z"/>
</g>
<g>
	<linearGradient id="SVGID_21_" gradientUnits="userSpaceOnUse" x1="261.0883" y1="41.0132" x2="-29.5784" y2="233.0132">
		<stop  offset="0" style="stop-color:#C2A468"/>
		<stop  offset="0.176" style="stop-color:#947646"/>
		<stop  offset="0.1937" style="stop-color:#8E7143"/>
		<stop  offset="0.3249" style="stop-color:#634F2F"/>
		<stop  offset="0.4581" style="stop-color:#3F321E"/>
		<stop  offset="0.5919" style="stop-color:#231C11"/>
		<stop  offset="0.7262" style="stop-color:#100D07"/>
		<stop  offset="0.8617" style="stop-color:#040302"/>
		<stop  offset="1" style="stop-color:#000000"/>
	</linearGradient>
	<path class="st20" d="M50.5,177.8c0,0.5,0,1-0.1,1.4c0,0.4-0.1,0.7-0.2,0.9s-0.2,0.4-0.4,0.5c-0.1,0.1-0.3,0.2-0.5,0.2h-9.3v29.4
		c0,0.2-0.1,0.4-0.2,0.5c-0.1,0.2-0.3,0.3-0.6,0.4c-0.3,0.1-0.7,0.2-1.2,0.2c-0.5,0.1-1.1,0.1-1.8,0.1s-1.3,0-1.8-0.1
		c-0.5-0.1-0.9-0.1-1.2-0.2c-0.3-0.1-0.5-0.2-0.6-0.4c-0.1-0.1-0.2-0.3-0.2-0.5v-29.4h-9.3c-0.2,0-0.4-0.1-0.5-0.2
		c-0.1-0.1-0.2-0.3-0.3-0.5s-0.2-0.5-0.2-0.9c0-0.4-0.1-0.8-0.1-1.4c0-0.6,0-1,0.1-1.4c0-0.4,0.1-0.7,0.2-0.9
		c0.1-0.2,0.2-0.4,0.3-0.5c0.1-0.1,0.3-0.2,0.5-0.2h26.2c0.2,0,0.3,0.1,0.5,0.2c0.1,0.1,0.3,0.3,0.4,0.5c0.1,0.2,0.2,0.5,0.2,0.9
		C50.5,176.7,50.5,177.2,50.5,177.8z"/>
	<linearGradient id="SVGID_22_" gradientUnits="userSpaceOnUse" x1="272.6301" y1="58.4863" x2="-18.0366" y2="250.4863">
		<stop  offset="0" style="stop-color:#C2A468"/>
		<stop  offset="0.176" style="stop-color:#947646"/>
		<stop  offset="0.1937" style="stop-color:#8E7143"/>
		<stop  offset="0.3249" style="stop-color:#634F2F"/>
		<stop  offset="0.4581" style="stop-color:#3F321E"/>
		<stop  offset="0.5919" style="stop-color:#231C11"/>
		<stop  offset="0.7262" style="stop-color:#100D07"/>
		<stop  offset="0.8617" style="stop-color:#040302"/>
		<stop  offset="1" style="stop-color:#000000"/>
	</linearGradient>
	<path class="st21" d="M86.6,192.5c0,3-0.4,5.7-1.1,8.1c-0.8,2.4-1.9,4.4-3.4,6.1c-1.5,1.7-3.4,2.9-5.6,3.8
		c-2.2,0.9-4.8,1.3-7.7,1.3c-2.9,0-5.4-0.4-7.6-1.1c-2.2-0.7-3.9-1.9-5.4-3.4c-1.4-1.5-2.5-3.5-3.2-5.8s-1.1-5.1-1.1-8.3
		c0-2.9,0.4-5.6,1.1-8c0.8-2.4,1.9-4.4,3.4-6c1.5-1.7,3.4-2.9,5.6-3.8c2.2-0.9,4.8-1.3,7.8-1.3c2.8,0,5.3,0.4,7.4,1.1
		c2.2,0.7,3.9,1.9,5.4,3.4c1.4,1.5,2.5,3.4,3.3,5.8C86.2,186.6,86.6,189.4,86.6,192.5z M78.7,192.9c0-1.9-0.2-3.7-0.5-5.2
		c-0.3-1.6-0.8-2.9-1.6-4c-0.7-1.1-1.7-2-2.9-2.6c-1.2-0.6-2.8-0.9-4.6-0.9c-1.9,0-3.4,0.3-4.6,1c-1.2,0.7-2.2,1.6-3,2.7
		c-0.8,1.1-1.3,2.5-1.6,4c-0.3,1.5-0.5,3.1-0.5,4.9c0,2,0.2,3.8,0.5,5.4s0.8,2.9,1.5,4.1c0.7,1.1,1.7,2,2.9,2.6
		c1.2,0.6,2.8,0.9,4.6,0.9s3.4-0.3,4.6-1c1.2-0.7,2.2-1.6,3-2.8s1.3-2.5,1.6-4.1S78.7,194.7,78.7,192.9z"/>
	<linearGradient id="SVGID_23_" gradientUnits="userSpaceOnUse" x1="281.1278" y1="71.3509" x2="-9.5388" y2="263.3509">
		<stop  offset="0" style="stop-color:#C2A468"/>
		<stop  offset="0.176" style="stop-color:#947646"/>
		<stop  offset="0.1937" style="stop-color:#8E7143"/>
		<stop  offset="0.3249" style="stop-color:#634F2F"/>
		<stop  offset="0.4581" style="stop-color:#3F321E"/>
		<stop  offset="0.5919" style="stop-color:#231C11"/>
		<stop  offset="0.7262" style="stop-color:#100D07"/>
		<stop  offset="0.8617" style="stop-color:#040302"/>
		<stop  offset="1" style="stop-color:#000000"/>
	</linearGradient>
	<path class="st22" d="M118.3,185.8c0,2-0.3,3.9-1,5.4c-0.7,1.6-1.6,2.9-2.8,4c-1.2,1.1-2.8,1.9-4.6,2.5c-1.8,0.6-3.9,0.8-6.4,0.8
		h-3.1v11.6c0,0.2-0.1,0.4-0.2,0.5c-0.1,0.2-0.3,0.3-0.6,0.4c-0.3,0.1-0.7,0.2-1.1,0.2c-0.5,0.1-1.1,0.1-1.8,0.1
		c-0.7,0-1.3,0-1.8-0.1s-0.9-0.1-1.2-0.2s-0.5-0.2-0.6-0.4c-0.1-0.1-0.2-0.3-0.2-0.5v-32.8c0-0.9,0.2-1.5,0.7-2
		c0.5-0.4,1.1-0.7,1.8-0.7h8.7c0.9,0,1.7,0,2.5,0.1c0.8,0.1,1.7,0.2,2.9,0.4c1.1,0.2,2.2,0.6,3.4,1.2c1.1,0.6,2.1,1.3,2.9,2.2
		c0.8,0.9,1.4,1.9,1.8,3.1C118.1,183,118.3,184.3,118.3,185.8z M110.4,186.3c0-1.3-0.2-2.3-0.7-3.2c-0.5-0.8-1-1.4-1.7-1.8
		c-0.7-0.4-1.4-0.6-2.1-0.7c-0.7-0.1-1.5-0.2-2.3-0.2h-3.2v12.4h3.4c1.2,0,2.2-0.2,3-0.5c0.8-0.3,1.5-0.8,2-1.3
		c0.5-0.6,0.9-1.3,1.2-2.1C110.3,188.1,110.4,187.3,110.4,186.3z"/>
</g>
<g>
	<linearGradient id="SVGID_24_" gradientUnits="userSpaceOnUse" x1="403.7443" y1="256.9786" x2="113.0776" y2="448.9786">
		<stop  offset="0" style="stop-color:#C2A468"/>
		<stop  offset="0.176" style="stop-color:#947646"/>
		<stop  offset="0.1937" style="stop-color:#8E7143"/>
		<stop  offset="0.3249" style="stop-color:#634F2F"/>
		<stop  offset="0.4581" style="stop-color:#3F321E"/>
		<stop  offset="0.5919" style="stop-color:#231C11"/>
		<stop  offset="0.7262" style="stop-color:#100D07"/>
		<stop  offset="0.8617" style="stop-color:#040302"/>
		<stop  offset="1" style="stop-color:#000000"/>
	</linearGradient>
	<path class="st23" d="M166.2,419.3c0,2-0.3,3.8-0.9,5.3c-0.6,1.6-1.4,2.9-2.5,3.9c-1.1,1.1-2.5,1.9-4.1,2.4
		c-1.6,0.6-3.5,0.8-5.7,0.8h-2.7v11.4c0,0.2-0.1,0.4-0.2,0.5c-0.1,0.1-0.3,0.3-0.5,0.4c-0.3,0.1-0.6,0.2-1,0.2
		c-0.4,0.1-1,0.1-1.6,0.1c-0.6,0-1.2,0-1.6-0.1c-0.4-0.1-0.8-0.1-1-0.2c-0.3-0.1-0.4-0.2-0.5-0.4s-0.2-0.3-0.2-0.5V411
		c0-0.9,0.2-1.5,0.6-2c0.4-0.4,1-0.7,1.6-0.7h7.8c0.8,0,1.5,0,2.2,0.1c0.7,0.1,1.5,0.2,2.5,0.4c1,0.2,2,0.6,3,1.2
		c1,0.6,1.9,1.3,2.6,2.2c0.7,0.9,1.3,1.9,1.6,3.1C166,416.5,166.2,417.8,166.2,419.3z M159.2,419.8c0-1.3-0.2-2.3-0.6-3.1
		c-0.4-0.8-0.9-1.4-1.5-1.8c-0.6-0.4-1.2-0.6-1.9-0.7c-0.7-0.1-1.3-0.2-2-0.2h-2.8v12.2h3c1.1,0,2-0.2,2.7-0.5
		c0.7-0.3,1.3-0.8,1.8-1.3c0.5-0.6,0.8-1.2,1-2C159.1,421.6,159.2,420.8,159.2,419.8z"/>
</g>
<g>
	<linearGradient id="SVGID_25_" gradientUnits="userSpaceOnUse" x1="415.2881" y1="274.4547" x2="124.6214" y2="466.4547">
		<stop  offset="0" style="stop-color:#C2A468"/>
		<stop  offset="0.176" style="stop-color:#947646"/>
		<stop  offset="0.1937" style="stop-color:#8E7143"/>
		<stop  offset="0.3249" style="stop-color:#634F2F"/>
		<stop  offset="0.4581" style="stop-color:#3F321E"/>
		<stop  offset="0.5919" style="stop-color:#231C11"/>
		<stop  offset="0.7262" style="stop-color:#100D07"/>
		<stop  offset="0.8617" style="stop-color:#040302"/>
		<stop  offset="1" style="stop-color:#000000"/>
	</linearGradient>
	<path class="st24" d="M200.9,425.9c0,3-0.3,5.6-1,8c-0.7,2.3-1.7,4.3-3,6c-1.3,1.6-3,2.9-5,3.7c-2,0.9-4.3,1.3-6.8,1.3
		c-2.6,0-4.8-0.4-6.7-1.1c-1.9-0.7-3.5-1.8-4.8-3.3c-1.3-1.5-2.2-3.4-2.9-5.7s-1-5-1-8.2c0-2.9,0.3-5.5,1-7.8c0.7-2.3,1.7-4.3,3-5.9
		c1.3-1.6,3-2.9,5-3.7c2-0.9,4.3-1.3,6.9-1.3c2.5,0,4.7,0.4,6.6,1.1c1.9,0.7,3.5,1.8,4.8,3.3c1.3,1.5,2.2,3.4,2.9,5.7
		C200.6,420.1,200.9,422.8,200.9,425.9z M193.9,426.3c0-1.9-0.1-3.6-0.4-5.1c-0.3-1.5-0.7-2.9-1.4-4c-0.7-1.1-1.5-1.9-2.6-2.5
		c-1.1-0.6-2.4-0.9-4.1-0.9c-1.6,0-3,0.3-4.1,1c-1.1,0.7-2,1.6-2.7,2.7c-0.7,1.1-1.2,2.4-1.4,3.9c-0.3,1.5-0.4,3.1-0.4,4.8
		c0,2,0.1,3.7,0.4,5.3c0.3,1.6,0.7,2.9,1.4,4c0.6,1.1,1.5,2,2.6,2.5c1.1,0.6,2.4,0.9,4.1,0.9s3-0.3,4.1-1c1.1-0.7,2-1.6,2.7-2.7
		c0.7-1.1,1.2-2.5,1.4-4C193.7,429.7,193.9,428,193.9,426.3z"/>
</g>
<g>
	<linearGradient id="SVGID_26_" gradientUnits="userSpaceOnUse" x1="424.8971" y1="289.0016" x2="134.2304" y2="481.0016">
		<stop  offset="0" style="stop-color:#C2A468"/>
		<stop  offset="0.176" style="stop-color:#947646"/>
		<stop  offset="0.1937" style="stop-color:#8E7143"/>
		<stop  offset="0.3249" style="stop-color:#634F2F"/>
		<stop  offset="0.4581" style="stop-color:#3F321E"/>
		<stop  offset="0.5919" style="stop-color:#231C11"/>
		<stop  offset="0.7262" style="stop-color:#100D07"/>
		<stop  offset="0.8617" style="stop-color:#040302"/>
		<stop  offset="1" style="stop-color:#000000"/>
	</linearGradient>
	<path class="st25" d="M228.2,441.2c0,0.6,0,1-0.1,1.4c0,0.4-0.1,0.7-0.2,0.9c-0.1,0.2-0.2,0.4-0.3,0.5c-0.1,0.1-0.3,0.2-0.4,0.2
		h-19.5c-0.6,0-1-0.2-1.4-0.5c-0.4-0.4-0.6-0.9-0.6-1.8v-32.5c0-0.2,0.1-0.4,0.2-0.5c0.1-0.1,0.3-0.3,0.5-0.4c0.3-0.1,0.6-0.2,1-0.2
		c0.4-0.1,1-0.1,1.6-0.1c0.7,0,1.2,0,1.6,0.1c0.4,0.1,0.8,0.1,1,0.2c0.3,0.1,0.4,0.2,0.5,0.4c0.1,0.1,0.2,0.3,0.2,0.5v28.8h14.8
		c0.2,0,0.3,0.1,0.4,0.2c0.1,0.1,0.2,0.3,0.3,0.5c0.1,0.2,0.1,0.5,0.2,0.9C228.2,440.2,228.2,440.7,228.2,441.2z"/>
</g>
<g>
	<linearGradient id="SVGID_27_" gradientUnits="userSpaceOnUse" x1="434.9246" y1="304.1822" x2="144.2579" y2="496.1822">
		<stop  offset="0" style="stop-color:#C2A468"/>
		<stop  offset="0.176" style="stop-color:#947646"/>
		<stop  offset="0.1937" style="stop-color:#8E7143"/>
		<stop  offset="0.3249" style="stop-color:#634F2F"/>
		<stop  offset="0.4581" style="stop-color:#3F321E"/>
		<stop  offset="0.5919" style="stop-color:#231C11"/>
		<stop  offset="0.7262" style="stop-color:#100D07"/>
		<stop  offset="0.8617" style="stop-color:#040302"/>
		<stop  offset="1" style="stop-color:#000000"/>
	</linearGradient>
	<path class="st26" d="M259.2,441.6c0.2,0.7,0.3,1.2,0.4,1.6c0.1,0.4,0,0.7-0.2,0.9c-0.2,0.2-0.5,0.3-1,0.4c-0.5,0-1.1,0.1-2,0.1
		c-0.9,0-1.5,0-2,0c-0.5,0-0.9-0.1-1.1-0.2s-0.4-0.2-0.5-0.3c-0.1-0.1-0.2-0.3-0.3-0.6l-2.2-7.2H238l-2.1,7
		c-0.1,0.3-0.2,0.5-0.3,0.7c-0.1,0.2-0.3,0.3-0.5,0.4c-0.2,0.1-0.6,0.2-1,0.2c-0.4,0-1,0.1-1.8,0.1c-0.8,0-1.4,0-1.8-0.1
		c-0.4-0.1-0.7-0.2-0.9-0.4c-0.2-0.2-0.2-0.5-0.2-0.9s0.2-0.9,0.4-1.6l10.1-31.8c0.1-0.3,0.2-0.6,0.4-0.8s0.4-0.3,0.6-0.4
		c0.3-0.1,0.7-0.2,1.2-0.2c0.5,0,1.2,0,2.1,0c1,0,1.8,0,2.4,0c0.6,0,1.1,0.1,1.4,0.2c0.3,0.1,0.6,0.3,0.7,0.5
		c0.1,0.2,0.3,0.5,0.4,0.8L259.2,441.6z M244.1,415.3L244.1,415.3l-4.7,15.2h9.3L244.1,415.3z"/>
</g>
<g>
	<linearGradient id="SVGID_28_" gradientUnits="userSpaceOnUse" x1="442.6054" y1="315.81" x2="151.9387" y2="507.81">
		<stop  offset="0" style="stop-color:#C2A468"/>
		<stop  offset="0.176" style="stop-color:#947646"/>
		<stop  offset="0.1937" style="stop-color:#8E7143"/>
		<stop  offset="0.3249" style="stop-color:#634F2F"/>
		<stop  offset="0.4581" style="stop-color:#3F321E"/>
		<stop  offset="0.5919" style="stop-color:#231C11"/>
		<stop  offset="0.7262" style="stop-color:#100D07"/>
		<stop  offset="0.8617" style="stop-color:#040302"/>
		<stop  offset="1" style="stop-color:#000000"/>
	</linearGradient>
	<path class="st27" d="M288.8,441.7c0,0.4-0.1,0.8-0.2,1.1c-0.1,0.3-0.3,0.6-0.5,0.8c-0.2,0.2-0.5,0.4-0.8,0.5
		c-0.3,0.1-0.6,0.2-1,0.2h-2.8c-0.6,0-1.1-0.1-1.5-0.2c-0.4-0.1-0.8-0.4-1.2-0.7c-0.4-0.3-0.7-0.8-1.1-1.4c-0.3-0.6-0.7-1.3-1.1-2.3
		l-8.2-16.8c-0.5-1-1-2.1-1.4-3.2c-0.5-1.2-0.9-2.3-1.3-3.4h-0.1c0.1,1.3,0.1,2.7,0.2,4c0,1.3,0.1,2.7,0.1,4.1v18.8
		c0,0.2,0,0.4-0.1,0.5c-0.1,0.1-0.3,0.3-0.5,0.4c-0.2,0.1-0.5,0.2-0.9,0.2c-0.4,0.1-0.9,0.1-1.5,0.1c-0.6,0-1.1,0-1.5-0.1
		c-0.4-0.1-0.7-0.1-0.9-0.2c-0.2-0.1-0.4-0.2-0.5-0.4c-0.1-0.1-0.1-0.3-0.1-0.5V411c0-0.9,0.2-1.5,0.7-2c0.5-0.4,1-0.7,1.7-0.7h3.6
		c0.6,0,1.2,0.1,1.6,0.2c0.4,0.1,0.8,0.3,1.2,0.6c0.3,0.3,0.7,0.7,1,1.1c0.3,0.5,0.6,1.1,0.9,1.8l6.4,13.1c0.4,0.8,0.7,1.6,1.1,2.3
		c0.4,0.8,0.7,1.5,1.1,2.3c0.3,0.8,0.7,1.5,1,2.3c0.3,0.7,0.6,1.5,0.9,2.2h0c-0.1-1.3-0.1-2.6-0.1-4s0-2.7,0-4v-16.8
		c0-0.2,0.1-0.4,0.2-0.5s0.3-0.3,0.5-0.4c0.2-0.1,0.5-0.2,0.9-0.2c0.4,0,0.9-0.1,1.5-0.1c0.6,0,1.1,0,1.4,0.1c0.4,0,0.7,0.1,0.9,0.2
		c0.2,0.1,0.4,0.2,0.4,0.4c0.1,0.1,0.1,0.3,0.1,0.5V441.7z"/>
</g>
<g>
	<linearGradient id="SVGID_29_" gradientUnits="userSpaceOnUse" x1="451.08" y1="328.6396" x2="160.4133" y2="520.6396">
		<stop  offset="0" style="stop-color:#C2A468"/>
		<stop  offset="0.176" style="stop-color:#947646"/>
		<stop  offset="0.1937" style="stop-color:#8E7143"/>
		<stop  offset="0.3249" style="stop-color:#634F2F"/>
		<stop  offset="0.4581" style="stop-color:#3F321E"/>
		<stop  offset="0.5919" style="stop-color:#231C11"/>
		<stop  offset="0.7262" style="stop-color:#100D07"/>
		<stop  offset="0.8617" style="stop-color:#040302"/>
		<stop  offset="1" style="stop-color:#000000"/>
	</linearGradient>
	<path class="st28" d="M321.5,425.8c0,3.3-0.4,6.1-1.2,8.4c-0.8,2.3-1.9,4.2-3.4,5.7c-1.5,1.5-3.3,2.6-5.4,3.3s-4.6,1-7.5,1h-7.9
		c-0.6,0-1-0.2-1.4-0.5c-0.4-0.4-0.6-0.9-0.6-1.8v-31.2c0-0.8,0.2-1.4,0.6-1.8c0.4-0.4,0.9-0.5,1.4-0.5h8.4c2.9,0,5.4,0.4,7.5,1.1
		c2,0.7,3.8,1.9,5.2,3.3c1.4,1.5,2.5,3.3,3.2,5.4C321.1,420.5,321.5,423,321.5,425.8z M314.5,426.1c0-1.7-0.2-3.3-0.5-4.7
		c-0.4-1.5-0.9-2.7-1.8-3.8c-0.8-1.1-1.8-1.9-3.1-2.5c-1.3-0.6-2.9-0.9-5-0.9h-3.4v24.4h3.5c1.8,0,3.4-0.3,4.6-0.8
		c1.3-0.5,2.3-1.3,3.1-2.3c0.8-1,1.5-2.3,1.9-3.9C314.3,429.9,314.5,428.1,314.5,426.1z"/>
</g>
<g>
	<linearGradient id="SVGID_30_" gradientUnits="userSpaceOnUse" x1="350.452" y1="176.3" x2="59.7853" y2="368.3">
		<stop  offset="0" style="stop-color:#C2A468"/>
		<stop  offset="0.176" style="stop-color:#947646"/>
		<stop  offset="0.1937" style="stop-color:#8E7143"/>
		<stop  offset="0.3249" style="stop-color:#634F2F"/>
		<stop  offset="0.4581" style="stop-color:#3F321E"/>
		<stop  offset="0.5919" style="stop-color:#231C11"/>
		<stop  offset="0.7262" style="stop-color:#100D07"/>
		<stop  offset="0.8617" style="stop-color:#040302"/>
		<stop  offset="1" style="stop-color:#000000"/>
	</linearGradient>
	<polygon class="st29" points="84.6,264.4 84.6,452.2 67.9,452.2 67.9,288.4 38.6,300.4 33,285.6 	"/>
</g>
<g>
	<linearGradient id="SVGID_31_" gradientUnits="userSpaceOnUse" x1="346.3679" y1="170.1171" x2="55.7012" y2="362.1171">
		<stop  offset="0" style="stop-color:#C2A468"/>
		<stop  offset="0.176" style="stop-color:#947646"/>
		<stop  offset="0.1937" style="stop-color:#8E7143"/>
		<stop  offset="0.3249" style="stop-color:#634F2F"/>
		<stop  offset="0.4581" style="stop-color:#3F321E"/>
		<stop  offset="0.5919" style="stop-color:#231C11"/>
		<stop  offset="0.7262" style="stop-color:#100D07"/>
		<stop  offset="0.8617" style="stop-color:#040302"/>
		<stop  offset="1" style="stop-color:#000000"/>
	</linearGradient>
	<path class="st30" d="M120.6,233.6c0,0-12,17.8-12,56c0,28.7,12,46,12,46v116.7h-17.3V236l-18.7,7.7l-58.4,24.1l-5.8-15.3
		l100.2-41.3V233.6z"/>
</g>
<g>
	<linearGradient id="SVGID_32_" gradientUnits="userSpaceOnUse" x1="359.0086" y1="189.2538" x2="68.342" y2="381.2538">
		<stop  offset="0" style="stop-color:#C2A468"/>
		<stop  offset="0.176" style="stop-color:#947646"/>
		<stop  offset="0.1937" style="stop-color:#8E7143"/>
		<stop  offset="0.3249" style="stop-color:#634F2F"/>
		<stop  offset="0.4581" style="stop-color:#3F321E"/>
		<stop  offset="0.5919" style="stop-color:#231C11"/>
		<stop  offset="0.7262" style="stop-color:#100D07"/>
		<stop  offset="0.8617" style="stop-color:#040302"/>
		<stop  offset="1" style="stop-color:#000000"/>
	</linearGradient>
	<path class="st31" d="M214.6,179.8c-55.2,0-100,47-100,104.9c0,57.9,44.8,104.9,100,104.9c55.2,0,100-47,100-104.9
		C314.5,226.7,269.8,179.8,214.6,179.8z M214.6,373.6c-46.3,0-84-39.9-84-88.9c0-49,37.7-88.9,84-88.9c46.3,0,84,39.9,84,88.9
		C298.5,333.7,260.9,373.6,214.6,373.6z"/>
</g>
<g>
	<linearGradient id="SVGID_33_" gradientUnits="userSpaceOnUse" x1="359.0086" y1="189.2538" x2="68.342" y2="381.2538">
		<stop  offset="0" style="stop-color:#C2A468"/>
		<stop  offset="0.176" style="stop-color:#947646"/>
		<stop  offset="0.1937" style="stop-color:#8E7143"/>
		<stop  offset="0.3249" style="stop-color:#634F2F"/>
		<stop  offset="0.4581" style="stop-color:#3F321E"/>
		<stop  offset="0.5919" style="stop-color:#231C11"/>
		<stop  offset="0.7262" style="stop-color:#100D07"/>
		<stop  offset="0.8617" style="stop-color:#040302"/>
		<stop  offset="1" style="stop-color:#000000"/>
	</linearGradient>
	<path class="st32" d="M214.6,215.7c-36.3,0-65.8,30.9-65.8,69c0,38.1,29.5,69,65.8,69c36.3,0,65.8-30.9,65.8-69
		C280.3,246.6,250.9,215.7,214.6,215.7z M214.6,337.7c-27.4,0-49.8-23.8-49.8-53c0-29.2,22.3-53,49.8-53c27.5,0,49.8,23.8,49.8,53
		C264.3,313.9,242,337.7,214.6,337.7z"/>
</g>
</svg>
