<svg width="125" height="125" viewBox="0 0 125 125" fill="none" xmlns="http://www.w3.org/2000/svg">
<g clip-path="url(#clip0_25_160)">
<mask id="mask0_25_160" style="mask-type:luminance" maskUnits="userSpaceOnUse" x="0" y="0" width="125" height="125">
<path d="M125 0H0V125H125V0Z" fill="white"/>
</mask>
<g mask="url(#mask0_25_160)">
<mask id="mask1_25_160" style="mask-type:luminance" maskUnits="userSpaceOnUse" x="-1" y="6" width="128" height="109">
<path d="M-0.549194 6.72363H126.049V114.276H-0.549194V6.72363Z" fill="white"/>
</mask>
<g mask="url(#mask1_25_160)">
<path d="M108.731 11.5422C108.731 12.1359 108.395 12.6569 107.903 12.9146L107.896 12.909C107.89 12.9146 107.89 12.9202 107.885 12.9258C107.862 12.9594 107.846 12.993 107.84 13.021C106.406 17.7713 106.104 22.6615 106.076 23.2609C106.143 25.5968 104.317 34.6492 103.942 36.4585C103.936 36.5201 103.914 36.5874 103.897 36.6378C101.898 42.5364 100.805 48.7991 100.345 51.8072V51.8128C100.306 52.0593 100.272 52.2777 100.245 52.4794C100.25 52.4794 100.256 52.485 100.262 52.485C100.048 53.0676 99.4938 53.4821 98.8384 53.4821C97.9982 53.4821 97.3209 52.8043 97.3209 51.964C97.3209 51.8296 97.3372 51.7007 97.3713 51.5775C97.3764 51.5831 97.382 51.5831 97.3876 51.5831C97.3937 51.5439 97.3993 51.5047 97.4044 51.4655C97.8587 48.4013 98.9723 41.993 101.062 35.7807C101.913 31.6579 103.197 24.7118 103.118 23.3393C103.118 23.2889 103.107 23.2329 103.118 23.1825C103.124 22.9528 103.393 17.5136 105.029 12.1023C105.04 12.0743 105.051 12.0407 105.056 12.0015C105.252 11.4749 105.589 10.9148 106.054 10.4778C106.065 10.4666 106.076 10.461 106.082 10.4498C106.177 10.3658 106.277 10.2874 106.384 10.2146C106.619 10.0745 106.888 9.99609 107.179 9.99609C108.037 9.99609 108.731 10.6907 108.731 11.5422Z" fill="black"/>
<path d="M32.1367 29.7309C32.0807 29.7589 32.0191 29.7869 31.9574 29.8093C29.1342 30.8904 24.5408 22.9752 24.5016 22.8856C24.4736 22.8352 24.4512 22.7904 24.4344 22.74C24.1879 22.0061 24.0478 21.3395 23.9806 20.7177V20.7065C24.7088 18.8748 24.3167 17.3679 24.3167 17.3679C24.1487 17.4632 23.9806 17.564 23.8294 17.6704C23.7734 17.7208 23.7061 17.7712 23.6277 17.8217C23.5269 17.8777 23.4372 17.9449 23.3588 18.0177C22.6306 18.6283 22.2721 19.575 22.1152 20.264C22.2441 25.7761 27.4201 31.3442 27.745 31.6971C27.3808 31.4954 22.048 28.2968 21.1013 20.785C20.3339 22.303 20.2051 23.625 20.2051 23.6474C20.1939 23.7427 20.1771 23.8435 20.1435 23.9387C21.7903 29.9269 25.9692 33.7585 25.9692 33.8873C25.8852 33.8985 25.7844 33.8705 25.6947 33.8201C21.6951 31.3162 20.0762 27.4622 19.4656 25.3896C19.3256 25.8937 19.2584 26.5043 19.1688 27.1653L19.0903 27.7983C19.0623 28.0112 19.0287 28.2296 19.0119 28.4369V28.4481C20.6084 32.8342 24.748 35.9376 24.748 36.0664C24.6584 36.0776 24.5632 36.0664 24.4736 36.016C23.4989 35.5454 20.754 33.9882 18.9615 30.7616C19.1071 32.8062 20.2611 34.862 20.782 35.7079C20.8101 35.7471 20.8325 35.7863 20.8549 35.8199C20.8885 35.8367 20.9221 35.8535 20.9557 35.8703C21.2022 36.1392 21.359 36.5033 21.359 36.9011C21.359 37.7413 20.6756 38.4247 19.8354 38.4247C19.5721 38.4247 19.3256 38.3575 19.1127 38.2399C19.0679 38.2175 19.0231 38.1894 18.9839 38.1614C18.9391 38.1278 18.8887 38.0886 18.8495 38.0494C18.8214 38.0214 18.7934 37.999 18.7654 37.971L18.7598 37.9654C18.715 37.9206 18.6758 37.8757 18.6366 37.8197C18.631 37.8085 18.6198 37.7973 18.6142 37.7861C18.6086 37.7749 18.5974 37.7637 18.5862 37.7525C18.5862 37.7413 18.575 37.7301 18.5694 37.7189C18.547 37.6909 18.519 37.6517 18.4909 37.6069C18.4853 37.6069 18.4853 37.6013 18.4797 37.5957C17.914 36.7274 15.959 33.5232 15.9758 30.263C15.9086 29.3836 16.0934 27.8935 16.1606 27.3894L16.2447 26.79C16.4071 25.4792 16.5752 24.118 17.3034 22.9864C17.505 21.6644 18.3901 17.7208 22.1096 15.2673C23.1516 14.5055 25.213 13.3123 26.6638 14.2814C27.28 14.6959 27.9242 15.581 27.4817 17.4632C27.4425 17.6536 27.3696 17.8217 27.2632 17.9673C27.2408 17.9953 26.4566 19.3061 27.196 21.642C27.6497 22.3758 28.7533 23.9107 29.7672 25.1543L31.7614 27.4678C31.7614 27.4678 33.2962 28.9859 32.1367 29.7309Z" fill="black"/>
<path d="M109.647 74.3875C109.647 75.0933 109.188 75.6815 108.554 75.8831C108.476 75.9055 108.403 75.9224 108.325 75.9336C108.269 75.9392 108.213 75.9448 108.157 75.9448C108.106 75.9448 108.006 75.9448 107.854 75.9392H107.849C104.717 75.8831 80.4283 74.7908 50.6273 56.0475C44.1517 52.8714 33.3629 47.5497 31.996 46.575V46.5863C31.9176 46.5246 24.1929 40.9061 19.4202 38.4806C19.3474 38.4414 19.2746 38.4022 19.2018 38.3686C19.1962 38.3686 19.1962 38.3686 19.1911 38.363C18.7648 38.0997 18.4847 37.6291 18.4847 37.0914C18.4847 36.2679 19.1513 35.6013 19.9748 35.6013C20.3053 35.6013 20.6022 35.7077 20.8487 35.887C20.8487 35.8926 20.8543 35.8926 20.8543 35.8982C20.8599 35.9038 20.8716 35.9038 20.8767 35.9094C25.8734 38.4694 33.4021 43.9535 33.7382 44.1887C33.7662 44.2167 33.7998 44.2391 33.8278 44.2671C34.7241 44.8889 45.4625 50.2218 51.9997 53.4259C52.0445 53.4483 52.0837 53.4763 52.1342 53.4931C79.7505 70.892 103.037 72.7686 107.412 72.9647H107.451C107.463 72.9529 107.468 72.9423 107.473 72.9305C107.658 72.8582 107.865 72.8129 108.078 72.8129C108.947 72.8129 109.647 73.5192 109.647 74.3875Z" fill="black"/>
<path d="M102.511 55.5267C102.085 56.2269 101.177 56.4454 100.477 56.0084C99.8382 55.6163 99.0316 55.269 98.1129 54.9721C98.0631 54.9553 98.0126 54.9441 97.9678 54.9273C92.9369 53.3252 84.7136 53.0003 81.4254 53.0227C81.3526 53.0227 81.2854 53.0227 81.2075 53.0115C55.8711 49.4432 45.2446 41.0519 44.1131 40.1108C44.0901 40.0884 44.0627 40.0716 44.0291 40.038C40.6232 36.7442 35.9178 27.1765 35.7217 26.7675C34.2149 23.625 32.0638 20.8634 32.0353 20.8465C31.9064 20.6673 31.7893 20.4992 31.6717 20.3536C31.8056 21.2779 32.0353 22.3814 32.3215 23.4401C33.2284 26.3866 33.89 29.1483 31.9568 29.8877C30.7189 30.3638 29.1448 29.1091 27.7617 27.5406C27.7556 27.5406 27.7556 27.535 27.7556 27.535C27.6827 27.451 27.6043 27.3669 27.5377 27.2829C27.5315 27.2773 27.5265 27.2717 27.5203 27.2605C27.3528 27.0196 27.2576 26.7227 27.2576 26.4034C27.2576 25.552 27.9466 24.8686 28.798 24.8686C29.1448 24.8686 29.4646 24.9806 29.7223 25.1767C29.7386 25.1935 29.7498 25.2159 29.7671 25.2327C29.7671 25.2215 29.761 25.2159 29.761 25.2103V25.2047C29.6831 24.9246 29.5823 24.5997 29.4809 24.258C27.5993 17.2391 29.156 16.4884 29.817 16.1747C31.5093 15.3513 33.0721 17.2391 34.3997 19.0596C34.4614 19.138 36.7356 22.0453 38.3825 25.4792C38.4324 25.5688 43.0039 34.9012 46.0507 37.8813C47.3061 38.9176 57.3493 46.6424 81.51 50.065C82.6528 50.0762 90.9881 50.0818 97.2559 51.6615L100.113 52.5578C100.824 52.8323 101.463 53.1515 102.029 53.4933C102.729 53.919 102.942 54.8265 102.511 55.5267Z" fill="black"/>
<path d="M29.7671 25.2328C29.7503 25.216 29.7391 25.1936 29.7223 25.1768C29.7391 25.188 29.7503 25.1992 29.7615 25.2048V25.2104C29.7615 25.216 29.7671 25.2216 29.7671 25.2328Z" fill="black"/>
<path d="M20.8773 35.9096C20.8716 35.904 20.8604 35.904 20.8548 35.8984C20.8548 35.8928 20.8492 35.8928 20.8492 35.8872C20.8604 35.8928 20.8716 35.8984 20.8773 35.9096Z" fill="black"/>
<path d="M109.457 75.3225C109.261 75.5578 108.998 75.7314 108.706 75.8042C108.628 75.8266 108.556 75.8446 108.477 75.8552C108.426 75.8608 108.371 75.867 108.314 75.867C108.264 75.867 108.163 75.867 108.006 75.8608C107.245 75.7549 106.662 75.104 106.662 74.3086C106.662 73.6761 107.031 73.1322 107.564 72.8857H107.603C107.614 72.8745 107.62 72.8633 107.625 72.8521C113.524 65.1442 113.524 56.9433 113.485 55.7726C112.017 50.3389 111.418 31.2545 111.39 30.4366C111.39 30.3812 111.39 30.3078 111.395 30.2518C111.832 26.0505 111.469 22.9914 111.418 22.5433C109.726 15.614 108.438 13.5245 107.923 12.914L107.917 12.9084C107.911 12.914 107.911 12.9196 107.905 12.9252C107.693 13.0316 107.452 13.0932 107.2 13.0932C106.342 13.0932 105.648 12.3986 105.648 11.5415C105.648 11.127 105.81 10.7517 106.074 10.4772C106.085 10.466 106.096 10.4604 106.102 10.4492C106.197 10.3652 106.298 10.2873 106.405 10.2151C106.847 9.9064 107.373 9.71538 107.984 9.75459C109.759 9.87223 111.759 11.4183 114.308 21.9215C114.314 21.9607 114.325 22.0005 114.325 22.0509C114.353 22.1853 114.84 25.5682 114.347 30.4473C114.393 31.9541 115.025 50.479 116.386 55.1228C116.414 55.218 116.437 55.3306 116.437 55.4488C116.465 55.8739 117.008 65.9845 109.457 75.3225Z" fill="black"/>
<path d="M106.728 107.09C104.879 110.423 102.347 112.456 99.2099 113.14C98.4038 113.319 97.5971 113.398 96.8073 113.398C91.8554 113.399 87.3068 110.407 86.1702 109.6C86.1254 109.566 86.0912 109.538 86.0581 109.516C86.0184 109.5 85.9736 109.483 85.9349 109.466C85.5478 109.197 85.2952 108.748 85.2952 108.239C85.2952 107.404 85.9679 106.732 86.8031 106.732C86.9594 106.732 87.1107 106.754 87.2507 106.799C87.2507 106.799 87.2563 106.805 87.2619 106.805C87.3129 106.822 87.3571 106.845 87.4081 106.867C87.4585 106.883 87.5084 106.906 87.5588 106.939C87.593 106.957 87.6316 106.979 87.6658 107.007C87.6708 107.012 87.682 107.018 87.6882 107.023C87.6988 107.029 87.7101 107.034 87.7157 107.04C87.7655 107.085 93.4804 111.342 98.583 110.233C99.4574 110.031 100.274 109.684 101.02 109.18C100.622 109.208 100.213 109.23 99.7929 109.23C97.8996 109.23 93.7263 108.256 93.7263 107.975C93.7263 107.975 99.379 108.592 102.527 107.886C103.093 107.69 103.698 107.331 103.949 106.474C103.166 106.636 101.989 106.676 101.115 106.676C98.8798 106.676 94.0456 105.455 94.0456 105.175C94.0904 104.945 100.807 106.345 104.313 105.315C104.313 105.315 104.968 105.096 105.108 104.933C105.479 104.687 105.658 103.875 105.658 103.875C104.733 104.144 103.68 104.261 102.577 104.261C99.8427 104.261 94.1632 102.552 94.1632 102.272C94.2304 102.043 103.272 104.184 106.252 102.206C106.907 101.708 106.739 100.935 106.582 100.2C106.582 100.2 106.111 99.9363 104.633 100.816C103.4 101.545 100.42 101.735 96.9416 99.96C96.9365 99.9544 96.9242 99.9544 96.9186 99.9482C96.801 99.8978 96.6895 99.8367 96.5663 99.7695C96.2307 99.5281 96.0117 99.1365 96.0117 98.6878C96.0117 97.954 96.606 97.3602 97.3337 97.3602C97.7768 97.3602 98.1689 97.5792 98.4092 97.9092L98.4092 97.9142C98.4092 97.9366 98.4266 97.9652 98.4652 97.9993C98.4994 98.0324 98.5548 98.0772 98.6338 98.122C99.4623 98.6206 101.243 99.1365 102.42 98.974C102.42 98.974 103.799 98.9566 104.504 98.6093C105.104 98.3124 106.313 98.0043 107.114 98.0043L107.165 98.0043C108.806 97.876 109.321 99.0243 109.422 99.2926C109.433 99.3151 109.433 99.3263 109.433 99.3313C109.445 99.3425 109.445 99.3543 109.445 99.3543C110.308 102.901 108.23 105.802 106.728 107.09Z" fill="black"/>
<path d="M103.516 98.2004C103.516 98.2004 101.684 98.3628 99.729 97.8923C99.5111 97.8419 98.4131 97.7075 98.4131 97.9091C98.4131 97.9371 98.4355 97.9713 98.486 98.0161C98.598 98.2122 98.6652 98.4469 98.6652 98.6877C98.6652 99.4221 98.0709 100.015 97.3376 100.015C97.2026 100.015 97.0682 99.993 96.9455 99.9599C96.9399 99.9543 96.9281 99.9543 96.9225 99.9481C96.8055 99.8977 96.6929 99.8367 96.5702 99.7695C95.8476 99.3773 95.102 98.895 94.3463 98.3125C93.859 97.9321 93.6517 97.2991 93.8309 96.6992C94.0096 96.1166 94.5255 95.6914 95.1417 95.6461C95.5949 95.6068 99.5783 95.3211 101.992 96.2062C102.211 96.2459 103.432 96.4532 104.575 95.5905C104.535 95.5788 104.418 95.5059 104.228 95.4505C104.149 95.4219 104.082 95.3883 104.009 95.3491C104.004 95.3491 103.197 94.9127 101.892 94.4584C101.847 94.436 101.785 94.408 101.734 94.3856C101.724 94.375 99.4998 93.3661 94.2673 93.1029C94.0494 93.0979 93.8309 93.025 93.6292 92.9236C93.6292 92.9236 93.1139 92.666 91.9487 92.4201C90.778 92.173 88.9681 91.9154 86.3582 91.9154C85.2435 91.9154 83.9215 92.0051 82.5323 92.0953C76.6841 92.4706 68.6569 92.9748 60.8256 88.4874C52.3334 83.6201 42.5304 77.0041 39.5559 73.0997C35.6346 69.5819 29.047 64.3169 25.2826 62.586C25.1762 62.5468 25.0754 62.507 24.9857 62.4566C24.42 62.2101 23.9326 62.0589 23.5349 62.0197C22.7115 61.9301 22.1233 61.1962 22.2129 60.384C22.2913 59.5611 23.0195 58.9724 23.843 59.062C23.955 59.0732 24.0726 59.0844 24.1959 59.1068C24.2071 59.1068 24.2239 59.1124 24.2407 59.1124L24.2575 59.118L27.2096 60.2383L27.2208 60.2439C32.8001 63.0951 40.6034 70.03 41.6565 70.9822C41.7349 71.0551 41.8021 71.1223 41.8637 71.2119C44.0372 74.1701 52.6303 80.3594 62.3101 85.9055C69.3621 89.9443 76.5608 89.49 82.3474 89.1146C83.7865 89.0249 85.1482 88.9353 86.3582 88.9353C91.2933 88.9353 93.8191 89.7699 94.6991 90.1452C99.9479 90.4314 102.424 91.4279 102.956 91.6632C104.177 92.1001 105.034 92.5202 105.32 92.6776C106.244 93.0132 106.782 93.5123 107.101 93.9878C108.311 96.2963 105.382 97.9544 103.516 98.2004Z" fill="black"/>
<path d="M88.3077 108.239C88.3077 109.068 87.6355 109.741 86.8065 109.741C86.5824 109.741 86.3696 109.69 86.1791 109.606L86.1735 109.606C86.1287 109.566 86.0951 109.538 86.0615 109.516C86.0223 109.5 85.9775 109.483 85.9388 109.466C85.9326 109.466 85.9326 109.466 85.927 109.46C70.8472 102.856 50.2385 97.635 50.0312 97.574C28.5599 92.9528 12.4437 79.3122 9.69881 76.8867C9.48595 76.7018 9.35711 76.5786 9.30669 76.5338C9.25067 76.4839 9.20026 76.4279 9.15544 76.3663C9.00419 76.1254 8.91457 75.8392 8.91456 75.5367C8.91456 74.6802 9.60916 73.98 10.4718 73.98C11.004 73.98 11.4745 74.2483 11.7546 74.6634C11.7546 74.6858 11.7602 74.7082 11.7602 74.7306C11.7826 74.753 11.8106 74.7754 11.8386 74.7978L11.8386 74.8034C14.8188 77.374 30.5373 90.3256 50.7034 94.6773C50.9611 94.7446 71.9451 100.066 87.2546 106.8C87.2546 106.8 87.2602 106.805 87.2658 106.805C87.3162 106.822 87.3616 106.844 87.4115 106.867C87.4395 106.872 87.4619 106.883 87.4843 106.895C87.5123 106.906 87.5403 106.922 87.5627 106.94C87.5963 106.957 87.6299 106.979 87.6641 107.001C88.0557 107.275 88.3077 107.723 88.3077 108.239Z" fill="black"/>
<path d="M25.4723 45.6621C25.4723 46.7209 24.6153 47.5779 23.551 47.5779C23.3829 47.5779 23.2205 47.5555 23.0636 47.5163C23.0636 47.5051 23.058 47.4995 23.058 47.4883C23.0524 47.4939 23.0412 47.5051 23.0412 47.5107C19.4953 51.1182 10.7735 61.3973 11.5689 74.6621C11.5689 74.6845 11.5745 74.7069 11.5745 74.7294C11.5969 74.7518 11.6249 74.7742 11.653 74.7966V74.8022C11.7706 75.0206 11.8378 75.2727 11.8378 75.536C11.8378 76.3931 11.1432 77.0877 10.2805 77.0877C10.0005 77.0877 9.73717 77.0148 9.5131 76.886C9.30584 76.7012 9.1714 76.5779 9.12098 76.5331C9.07057 76.4883 9.02015 76.4379 8.98094 76.3819C8.79048 76.1522 8.67845 75.8665 8.64484 75.5584C7.11558 57.1232 21.9489 44.3681 22.5819 43.8304C23.03 43.4663 23.6462 43.3878 24.1728 43.6231C24.464 43.7576 24.7385 44.0096 24.985 44.3793V44.3849C25.1362 44.5978 25.2707 44.8499 25.3995 45.1412C25.4499 45.3036 25.4723 45.4829 25.4723 45.6621Z" fill="black"/>
<path d="M27.21 60.1817C27.21 60.2041 27.2044 60.2209 27.1988 60.2377C27.0419 60.9772 26.3865 61.5261 25.6079 61.5261C24.706 61.5261 23.9778 60.7979 23.9778 59.896C23.9778 59.6103 24.0506 59.3415 24.1851 59.1062C24.1963 59.1062 24.2131 59.1118 24.2299 59.1118V59.0278C24.1514 52.457 23.6473 49.1408 23.2384 47.5107C23.2384 47.5051 23.2328 47.4939 23.2328 47.4883L23.216 47.5051C22.4037 47.281 21.8099 46.5416 21.8099 45.6621C21.8099 44.5978 22.667 43.7407 23.7313 43.7407C24.2971 43.7407 24.8068 43.9872 25.1598 44.3793V44.3849C25.311 44.5978 25.4454 44.8499 25.5743 45.1411C26.6106 47.4771 27.1596 52.3113 27.2044 59.5711V59.5823C27.21 59.7784 27.21 59.9801 27.21 60.1817Z" fill="black"/>
</g>
</g>
</g>
<defs>
<clipPath id="clip0_25_160">
<rect width="125" height="125" fill="white"/>
</clipPath>
</defs>
</svg>
