<svg width="125" height="125" viewBox="0 0 125 125" fill="none" xmlns="http://www.w3.org/2000/svg">
<g clip-path="url(#clip0_25_2)">
<mask id="mask0_25_2" style="mask-type:luminance" maskUnits="userSpaceOnUse" x="0" y="0" width="125" height="125">
<path d="M125 0H0V125H125V0Z" fill="white"/>
</mask>
<g mask="url(#mask0_25_2)">
<mask id="mask1_25_2" style="mask-type:luminance" maskUnits="userSpaceOnUse" x="11" y="-2" width="114" height="136">
<path d="M11.6285 -1.51685H124.372V133.017H11.6285V-1.51685Z" fill="white"/>
</mask>
<g mask="url(#mask1_25_2)">
<path d="M81.9442 25.3055C81.514 29.3538 81.0034 33.0734 80.7485 36.8119C80.3629 42.4803 80.1545 48.161 79.8693 53.8361C79.8201 54.8204 79.7926 55.8067 79.7016 56.7863C79.587 58.0114 79.0129 58.5069 77.7983 58.2368C72.8461 57.1388 67.8342 57.5386 62.847 57.6589C60.668 57.711 58.4984 58.2331 56.3288 58.5665C49.9119 59.5519 43.6485 61.1596 37.5007 63.2326C36.7162 63.4969 35.9668 63.8844 35.1682 64.0824C34.414 64.27 33.9024 63.9848 33.7091 63.1C32.6575 58.2984 30.702 53.8342 28.5239 49.4571C26.6688 45.7271 24.8043 42.0028 22.9654 38.2652C22.4756 37.2714 22.234 36.1695 23.045 35.2761C23.8465 34.3931 24.9095 34.1449 26.1582 34.4017C30.5447 35.3008 34.6632 36.8469 38.4595 39.2325C39.4268 39.8398 40.1857 39.5405 40.8167 38.6973C42.3126 36.6973 43.8314 34.7134 45.2885 32.684C46.702 30.7162 48.0426 28.6953 49.4287 26.7077C50.541 25.1122 51.1293 25.0933 52.6168 26.3022C55.7442 28.8441 58.145 31.9962 60.3809 35.297C60.9162 36.0871 61.569 36.2444 62.2682 35.566C66.3023 31.657 71.0687 28.774 75.8002 25.8427C77.0545 25.0648 78.3203 24.3022 79.6059 23.5783C81.0602 22.7598 81.9631 23.5651 81.9442 25.3055ZM79.6524 26.4177C79.3416 26.4774 79.2156 26.4689 79.1303 26.5229C76.1696 28.4253 73.1208 30.2065 70.2824 32.2756C67.5377 34.2766 64.9996 36.5618 62.3942 38.7484C61.063 39.8654 60.7703 39.8275 59.7006 38.45C57.3586 35.4334 54.9958 32.432 52.6045 29.4542C51.7291 28.3647 51.3709 28.4007 50.5438 29.5168C48.198 32.6783 45.9204 35.8919 43.5007 38.9957C42.7295 39.9857 41.6343 40.7427 40.6139 41.5092C40.3107 41.7356 39.7044 41.7821 39.3283 41.6504C37.7641 41.099 36.2454 40.4168 34.6878 39.8417C31.9621 38.8356 29.2259 37.8541 26.4765 36.9189C26.161 36.8119 25.6172 36.9578 25.3794 37.1909C25.2345 37.333 25.387 37.9052 25.5443 38.215C26.7048 40.5125 28.018 42.7399 29.0611 45.0876C31.3008 50.1317 33.4268 55.2278 35.5481 60.324C35.8598 61.0734 36.2084 61.2098 36.919 60.9777C38.6433 60.415 40.3666 59.8323 42.1213 59.3756C45.8153 58.4131 49.496 57.3529 53.243 56.6565C56.8442 55.9867 60.5164 55.6779 64.1658 55.3008C67.2573 54.9806 70.361 54.8394 73.4524 55.3756C74.7836 55.6068 76.1138 55.8408 77.6685 56.1137C77.2222 46.1336 78.5126 36.3458 79.6524 26.4177Z" fill="black"/>
<path d="M61.4221 66.2462C66.9417 66.1884 71.927 67.9611 76.4964 70.899C80.612 73.5461 83.5841 77.2818 85.6125 81.6949C87.5178 85.8436 88.1194 90.27 87.5074 94.7958C86.5457 101.907 83.0924 107.606 77.3179 111.83C71.783 115.879 65.5016 117.734 58.7001 117.007C50.9445 116.18 44.3666 112.922 39.5925 106.486C35.477 100.94 33.9232 94.7323 34.8905 87.9554C35.5385 83.4135 37.3955 79.3045 40.4159 75.8114C45.4997 69.9289 51.9526 66.7446 59.7186 66.251C60.2842 66.215 60.8536 66.2462 61.4221 66.2462ZM61.423 114.616C64.9237 114.489 68.3193 113.954 71.5452 112.418C79.3169 108.718 84.0265 102.806 85.0564 94.1487C85.585 89.7006 85.0185 85.3462 82.8546 81.4561C79.1473 74.792 73.513 70.4926 65.8939 69.1529C59.1227 67.962 52.7162 69.0383 47.0383 73.043C41.0137 77.2922 37.423 83.0667 37.169 90.576C37.0914 92.8659 37.206 95.2534 37.7792 97.4533C38.6091 100.642 40.1525 103.569 42.3808 106.099C44.6916 108.724 47.332 110.952 50.4689 112.433C53.8986 114.052 57.6144 114.659 61.423 114.616Z" fill="black"/>
<path d="M57.5689 90.7996C57.5594 91.548 56.6783 92.0407 55.6542 91.8512C52.2918 91.2259 48.9379 90.5438 45.5746 89.928C44.1534 89.6722 42.7134 89.53 41.2828 89.3311C41.0838 89.3027 40.8848 89.2553 40.6954 89.189C40.1932 89.0184 39.4827 88.8953 39.2932 88.3837C39.17 88.0748 39.278 87.8597 39.4069 87.7015C39.4542 87.6542 39.4827 87.6257 39.4827 87.6257L40.0985 87.0194C40.3069 86.8204 40.5911 86.7257 40.8848 86.7636C41.548 86.8678 42.7702 87.0573 43.3766 87.171C47.5263 87.9194 51.676 88.6679 55.8257 89.4258C55.9014 89.4353 55.9678 89.4353 56.0341 89.4542C56.7162 89.6722 57.5879 89.6816 57.5689 90.7996Z" fill="black"/>
<path d="M61.4524 87.5823C61.2326 87.3956 61.1313 87.0991 61.1862 86.8158C61.7035 84.1668 62.1611 81.7784 62.6414 79.3956C62.8442 78.3952 63.0934 77.4042 63.3406 76.4132C63.5064 75.7452 63.7982 75.1341 64.6377 75.317C65.4714 75.4979 65.6846 76.181 65.5368 76.9058C64.829 80.3866 64.0825 83.8599 63.3406 87.3331C63.2033 87.9764 62.8044 88.4255 62.1355 88.1612L61.4524 87.5823Z" fill="black"/>
<path d="M63.4259 91.6705C63.4382 92.9902 62.7674 93.732 61.5556 93.7387C60.3164 93.7453 59.2998 92.814 59.3103 91.6799C59.3226 90.4047 60.0398 89.6117 61.207 89.5871C62.72 89.5549 63.4126 90.2057 63.4259 91.6705Z" fill="black"/>
</g>
</g>
</g>
<defs>
<clipPath id="clip0_25_2">
<rect width="125" height="125" fill="white"/>
</clipPath>
</defs>
</svg>
