<svg width="125" height="125" viewBox="0 0 125 125" fill="none" xmlns="http://www.w3.org/2000/svg">
<g clip-path="url(#clip0_25_402)">
<mask id="mask0_25_402" style="mask-type:luminance" maskUnits="userSpaceOnUse" x="0" y="0" width="125" height="125">
<path d="M125 0H0V125H125V0Z" fill="white"/>
</mask>
<g mask="url(#mask0_25_402)">
<path d="M65.741 42.8265C65.566 40.9065 63.1202 40.2515 61.6808 40.0369L61.5447 40.0143L61.4103 40.0199C60.4384 40.0425 59.4614 40.0312 58.4958 40.003C60.2859 39.4496 61.5622 39.0148 61.6858 38.9696L61.975 38.8397C63.0756 38.1903 65.645 36.6656 65.0521 34.5987C64.7646 33.6161 63.8713 33.0514 62.7418 32.7408C62.7193 32.4472 62.6289 32.1648 62.4708 31.9164C61.2171 28.1554 55.0053 28.3587 54.2825 28.3926L54.1023 28.4095C53.8759 28.449 53.4981 28.5111 53.052 28.5733C53.3005 28.0763 53.4473 27.6471 53.5043 27.4608L53.6229 27.0881L53.5495 26.7097C53.0012 23.7281 51.3912 22.5083 50.1381 22.0113C47.0548 20.7972 42.9211 22.6495 40.3178 24.1572C40.1201 22.5986 39.578 21.345 38.3695 20.8989C37.3926 20.5374 36.2852 21.1756 35.4268 21.904C34.6983 22.5196 34.1398 23.2932 33.6593 24.1121C33.1341 24.9987 32.1346 26.0547 31.4004 26.6815C27.0748 29.409 24.8391 32.5714 24.0547 33.8646V33.8702C24.0547 33.8702 24.0547 33.8759 24.0485 33.8759C24.0033 33.9606 23.6532 34.6495 23.4448 35.6208C23.4448 35.6265 23.4448 35.6321 23.4386 35.6378C22.5689 39.8788 20.0678 41.7875 19.5534 42.1489C15.6625 43.6397 6.69437 46.2939 3.59976 47.1974C3.58338 47.2031 3.56588 47.2087 3.55459 47.2143C1.88304 47.7339 2.66291 49.236 2.66291 49.236C3.03562 50.6817 4.53831 50.2017 4.53831 50.2017C7.7628 49.2586 16.893 46.5593 20.8404 45.0233L21.0787 44.9047C21.2645 44.7974 25.5399 42.1658 26.6348 35.683C27.0753 34.9087 28.9891 31.8994 33.168 29.2905L33.343 29.1606C33.6429 28.9121 36.2965 26.6533 36.9747 24.3492C37.0758 24.3549 37.833 25.778 37.2 27.5624C37.0588 27.986 36.1784 30.2618 32.2819 33.6613C31.6444 34.2204 31.4919 35.1973 32.0115 35.8693C32.5643 36.5865 33.6028 36.6769 34.2861 36.0896C39.5272 31.538 40.2381 28.4547 40.3059 28.1159L40.3291 27.9351C40.3291 27.9069 40.3347 27.8843 40.3347 27.8561C42.5766 26.337 46.8509 24.0895 48.9799 24.9422C49.2396 25.0438 49.9862 25.3318 50.3696 26.8735C50.3645 26.8791 50.3645 26.8791 50.3645 26.8848C50.1437 27.3874 49.4378 27.4551 49.1278 26.9977C49.0764 26.9243 49.0205 26.8453 48.964 26.7549C48.8116 26.3596 48.5744 26.0377 48.3372 25.8231C48.3372 25.8231 45.5069 28.2401 44.8806 28.6297L44.7846 28.6919C44.0612 29.217 43.7631 30.098 44.0505 30.8716C44.5644 32.2947 46.3156 32.4472 49.4491 32.2213C49.6129 32.2044 53.34 31.7244 54.5259 31.5323C55.7338 31.4928 57.6211 31.6848 58.6991 32.2044C57.8407 32.3851 56.4798 32.6109 54.3333 32.8538L48.8618 33.3394C48.0549 33.4072 47.4557 34.1187 47.5229 34.9263C47.5907 35.8072 48.3367 36.4849 49.2057 36.4849C49.2509 36.4849 49.2961 36.4849 49.3413 36.4792C51.5499 36.3041 53.3789 36.1347 54.9093 35.9597L59.388 35.5587C59.9697 35.5418 60.6016 35.5813 61.1437 35.6434C60.9687 35.762 60.7603 35.897 60.5112 36.0444C59.5343 36.3776 54.0628 38.1959 49.9523 38.9526C49.2007 39.0882 48.6467 39.7263 48.6354 40.4943V40.5338C48.6241 41.539 49.3588 42.3861 50.3527 42.5103C52.6911 42.804 57.0496 43.2557 61.3301 43.171C61.4323 43.188 61.5339 43.2049 61.6356 43.2275C61.1951 43.4421 60.579 43.6962 59.7381 43.9955C59.0323 44.1084 55.2097 44.6562 49.8501 44.3908H49.7767C49.308 44.3908 48.8562 44.5941 48.5563 44.9668C48.5399 44.9894 47.716 45.9268 45.4685 47.3216C43.2209 48.7165 39.5503 50.5687 33.8581 52.404C33.8349 52.4097 31.8076 52.997 28.7915 52.997L28.2787 53.0026L27.8603 53.3019C27.8213 53.3358 23.3036 56.5377 4.53831 64.054C3.00794 64.6695 3.55007 66.0248 3.55007 66.0248C3.9448 67.4648 5.00589 67.2333 5.35093 67.1147H5.35601L5.41305 67.0921C5.42434 67.0865 5.43507 67.0808 5.45201 67.0746H5.46387C21.937 60.485 27.7417 57.125 29.2783 56.1424C32.4802 56.0803 34.6481 55.4535 34.7842 55.4139C44.6604 52.229 48.964 48.9028 50.4035 47.5645C56.2878 47.796 60.2345 47.1071 60.4039 47.0732L60.6524 47.011C63.4082 46.051 65.9336 44.8708 65.741 42.8265Z" fill="black"/>
<path d="M101.684 50.7241C101.847 50.5835 101.998 50.4479 102.142 50.3141C102.496 49.9871 102.795 49.6856 103.052 49.4083C103.904 48.4878 104.258 47.8666 104.349 47.6888L104.654 47.0986L104.443 46.4684C104.237 45.8546 103.584 44.5332 101.684 44.1994C101.401 44.1497 101.092 44.1226 100.751 44.1226C100.714 44.1226 100.674 44.122 100.635 44.1243C99.7609 44.139 98.7964 44.3304 97.8381 44.61C97.4845 44.7116 97.1327 44.8274 96.7894 44.9482C95.4155 45.431 94.142 46.0302 93.2904 46.4633C92.7455 46.74 92.3722 46.9501 92.2531 47.0173C92.2508 47.0196 92.2457 47.0201 92.2429 47.023C91.1671 47.5894 90.11 48.0598 89.0958 48.4506C88.7389 48.5895 88.3899 48.7154 88.0466 48.8317C86.7895 49.2626 85.6115 49.5715 84.5493 49.7917C84.1862 49.8685 83.8349 49.9357 83.5006 49.9928C82.9613 50.0837 82.4638 50.1503 82.0132 50.2023C82.592 49.2123 83.0873 48.2727 83.5006 47.3838C83.9456 46.4266 84.2952 45.5254 84.5493 44.6817C85.2275 42.4251 85.2253 40.5661 84.5493 39.0735C84.5177 38.9945 84.4804 38.9177 84.4409 38.8409C84.1834 38.336 83.8598 37.9159 83.5006 37.5725C82.6248 36.7238 81.5434 36.3121 80.7042 36.1563C80.467 36.1139 80.249 36.0919 80.061 36.0845L79.6544 36.0699L78.7051 36.0354L78.4578 37.3709C77.9473 40.1375 76.6953 42.4274 75.8099 43.7781C75.4507 44.3253 75.1514 44.7156 74.9854 44.9262C74.9114 44.9708 74.8374 45.0182 74.7601 45.0651C73.7193 45.7004 72.6497 46.4091 71.6124 47.1291C71.2589 47.3742 70.9076 47.6216 70.5637 47.8666C69.301 48.7674 68.1258 49.6511 67.1557 50.3982C66.7728 50.6953 66.4187 50.9697 66.1064 51.2148C65.2182 51.9128 64.654 52.3775 64.5823 52.4368L64.3445 52.6797C64.1045 52.9863 63.8148 53.3104 63.4839 53.6464C63.1688 53.9689 62.8176 54.3009 62.4341 54.6443C61.4493 55.5252 60.2515 56.4728 58.9374 57.443C58.5964 57.6954 58.2451 57.9507 57.8882 58.2054C56.8791 58.9282 55.8169 59.655 54.7411 60.3721C54.3915 60.6054 54.0403 60.8358 53.6919 61.0656C52.5703 61.8003 51.4516 62.513 50.3708 63.1889C50.0167 63.4114 49.6649 63.6294 49.321 63.8417C48.1904 64.5403 47.1237 65.1852 46.1739 65.7544C45.8079 65.9724 45.4561 66.1802 45.1269 66.3761C43.2978 67.4576 42.108 68.1307 42.0831 68.1459C25.7828 76.0028 11.6435 82.9131 7.65895 84.8659C6.38723 85.7248 7.01292 87.2224 7.01292 87.2224C7.0773 87.3404 7.15184 87.4376 7.2309 87.5189C7.8374 88.148 8.80475 87.8086 8.80475 87.8086C12.4353 86.0292 26.8269 78.994 43.5361 70.9339C43.8032 70.7854 46.1665 69.4493 49.321 67.5366C49.6604 67.3288 50.0116 67.1153 50.3708 66.8957C51.4245 66.2468 52.5455 65.5477 53.6919 64.8125C54.0403 64.59 54.3893 64.3641 54.7411 64.1342C55.7926 63.4538 56.8514 62.749 57.8882 62.0363C58.2423 61.7913 58.5913 61.5484 58.9374 61.3062C60.1702 60.4376 61.355 59.5663 62.4341 58.7175C62.7984 58.4307 63.1468 58.1478 63.4839 57.8682C64.5077 57.0223 65.4017 56.2063 66.1064 55.449C66.325 55.2141 66.5249 54.9859 66.7056 54.7657C66.8016 54.6866 66.9558 54.5624 67.1557 54.402C67.839 53.8543 69.074 52.8801 70.5637 51.7688C70.9003 51.5169 71.2515 51.2566 71.6124 50.9968C72.6125 50.265 73.6888 49.5099 74.7601 48.7973C75.1113 48.5646 75.4631 48.3387 75.8099 48.1185C76.1538 47.9005 76.4971 47.6888 76.8342 47.4883L77.0494 47.359L77.2126 47.1737C77.2945 47.0772 78.4967 45.684 79.6544 43.4196C80.0215 42.7046 80.3851 41.9005 80.7042 41.0246C80.8629 40.596 81.0091 40.1482 81.1424 39.6857C81.3327 39.8314 81.5083 40.0223 81.6399 40.2747C81.9494 40.8806 82.2882 42.4567 80.7042 45.9314C80.4196 46.5514 80.0757 47.2353 79.6544 47.9858C79.1456 48.8989 78.5267 49.9109 77.7796 51.0313L76.2842 53.28L78.979 53.4748C78.979 53.4748 79.2173 53.494 79.6544 53.494H79.6951C79.9718 53.494 80.3106 53.4861 80.7042 53.4686C81.4541 53.4341 82.3994 53.3545 83.5006 53.1862C83.8372 53.1365 84.1862 53.0784 84.5493 53.0111C85.6115 52.8084 86.7895 52.5311 88.0466 52.1454C88.3899 52.0359 88.7389 51.9224 89.0958 51.7987C90.1055 51.4526 91.1592 51.0313 92.2429 50.5247C92.5902 50.3683 92.9392 50.1978 93.2904 50.0193C93.4463 49.9403 93.6022 49.8612 93.7603 49.7771C94.3561 49.4427 95.5148 48.8464 96.7894 48.3195C97.1327 48.1784 97.4845 48.0389 97.8381 47.9129C98.8404 47.5572 99.84 47.2929 100.635 47.2703C100.669 47.268 100.702 47.268 100.733 47.268C100.702 47.3025 100.669 47.3364 100.635 47.3714C100.058 47.9751 99.1696 48.7843 97.8381 49.7274C97.5167 49.9578 97.1677 50.1955 96.7894 50.4406C95.8164 51.0691 94.661 51.7417 93.2904 52.4391C92.9533 52.6125 92.6072 52.7853 92.2429 52.9586C91.2908 53.4189 90.2433 53.887 89.0958 54.3597C88.7564 54.5009 88.4046 54.642 88.0466 54.7832C87.4423 55.021 86.811 55.2581 86.1559 55.4959L85.7448 55.6438L85.4675 55.9849C84.9757 56.5942 84.5691 57.6632 85.0474 58.6701C85.6584 59.9497 87.1758 60.1598 88.0466 60.1971C88.2171 60.2016 88.3656 60.2016 88.474 60.2016C88.6672 60.2016 88.8727 60.1971 89.0958 60.1841C89.2562 60.1773 89.4267 60.1672 89.6051 60.1525C89.9615 60.1451 90.8458 60.0762 92.2429 59.6425C92.5654 59.5465 92.9115 59.4274 93.2904 59.2839C94.2725 58.9152 95.4409 58.3883 96.7894 57.6356C97.126 57.4453 97.4766 57.2448 97.8381 57.0274C98.6947 56.5101 99.6146 55.9064 100.6 55.2067C100.613 55.2067 100.625 55.209 100.635 55.209C100.657 55.2113 100.677 55.2141 100.694 55.2163C100.686 55.2881 100.669 55.3869 100.635 55.5185C100.476 56.1193 99.9371 57.3882 98.143 59.7143C98.1255 59.7391 98.0289 59.8611 97.8381 60.044C97.6178 60.2569 97.2762 60.5512 96.7894 60.868C96.0174 61.3706 94.8784 61.9319 93.2904 62.3176C92.9612 62.3995 92.6122 62.4734 92.2429 62.5355C91.323 62.6942 90.2789 62.7931 89.0958 62.7981C88.7564 62.8004 88.408 62.7931 88.0466 62.7784C87.8506 62.7705 87.6484 62.7609 87.4451 62.7484L86.7296 62.701L86.2276 63.2138C85.7821 63.6638 85.4009 64.5149 85.7871 65.4359C86.1062 66.2 86.8042 66.7127 88.0466 67.0222C88.3577 67.1007 88.7095 67.1656 89.0958 67.217C89.9519 67.3361 90.991 67.3932 92.2429 67.3977C92.3225 67.4 92.4022 67.4 92.4806 67.4L92.7822 67.3977C92.8155 67.3977 92.9957 67.3949 93.2904 67.3734C93.9873 67.3186 95.3234 67.1532 96.7894 66.6427C97.1327 66.5241 97.4845 66.3857 97.8381 66.2225C98.3435 65.9927 98.8483 65.7149 99.3357 65.3834C99.3656 65.3636 99.4046 65.3416 99.4571 65.319C99.6672 65.5172 99.897 65.8069 99.8529 66.0768C99.8253 66.2446 99.605 66.977 97.8381 68.0742C97.5365 68.2623 97.1881 68.4594 96.7894 68.6694C96.4675 68.8355 96.1134 69.0094 95.7198 69.1901C95.7131 69.1952 94.9061 69.5538 93.2904 69.6673C92.9883 69.687 92.6563 69.7 92.2949 69.7H92.2429C91.2558 69.6972 90.2043 69.6006 89.0958 69.4126C88.7513 69.3578 88.4029 69.2912 88.0466 69.2138C87.8483 69.1726 87.6484 69.128 87.4474 69.0811L86.75 68.9151L86.1678 69.3335C85.6285 69.7187 85.1829 70.5008 85.3986 71.3795C85.6285 72.3146 86.401 72.9437 88.0466 73.4141C88.3634 73.505 88.7123 73.5914 89.0958 73.6716C89.6323 73.7823 90.2365 73.8862 90.9147 73.9828C91.0977 74.0223 91.563 74.1115 92.2429 74.1708C92.5501 74.2008 92.9014 74.2228 93.2904 74.2324C93.4311 74.2352 93.5796 74.238 93.7298 74.238C94.2256 74.238 94.7254 74.2154 95.2206 74.1731C95.3234 74.2894 95.4109 74.4041 95.4555 74.4899C95.3172 74.6367 94.8174 75.0399 93.2904 75.4426C92.9832 75.5244 92.6371 75.6069 92.2429 75.6837C91.9165 75.7498 91.5602 75.8147 91.1671 75.8768C91.1643 75.8768 90.9017 75.9158 90.4245 75.9158C90.0756 75.9158 89.63 75.8966 89.0958 75.8316C88.7767 75.7949 88.4255 75.743 88.0466 75.669C87.064 75.4787 85.8854 75.1483 84.5493 74.5944C84.211 74.4549 83.8615 74.2996 83.5006 74.1285C83.1612 73.9658 82.8128 73.7897 82.4559 73.5965L82.0109 73.3593L81.5134 73.4209C81.5033 73.4209 81.2288 73.4559 80.7042 73.505C80.4247 73.5327 80.0757 73.5621 79.6544 73.5965C78.7147 73.6716 77.4255 73.7575 75.8099 73.8292C75.4755 73.8444 75.1243 73.8597 74.7601 73.8721C73.808 73.9065 72.7553 73.9359 71.6124 73.9534C71.2718 73.9585 70.9223 73.9625 70.5637 73.9658C69.4992 73.9754 68.3613 73.9754 67.1557 73.9658C66.8123 73.9602 66.4628 73.9557 66.1064 73.9483C65.8862 73.9455 65.6609 73.9427 65.4361 73.9382C65.2379 73.8913 65.0177 73.8693 64.7799 73.8693C64.4038 73.8693 63.9713 73.9257 63.4839 74.0426C63.1592 74.1194 62.808 74.2183 62.4341 74.3465C61.4391 74.6808 60.2713 75.1958 58.9374 75.8842C58.5992 76.057 58.2474 76.2428 57.8882 76.4376C54.5751 78.252 50.3731 81.001 45.3793 84.6372C33.4391 93.3298 18.3049 103.903 11.0297 108.984C10.1409 109.605 9.40899 110.12 8.80475 110.54C7.87411 111.399 8.43656 112.433 8.43656 112.433C8.47552 112.504 8.51787 112.571 8.55967 112.632C9.35195 113.804 10.2945 113.32 10.4108 113.255L10.4181 113.252C10.4209 113.248 10.4232 113.248 10.4232 113.248C11.1184 112.76 11.94 112.186 12.8306 111.564C20.1136 106.477 35.2682 95.8907 47.2333 87.1806C51.9644 83.7359 55.4831 81.459 58.0763 79.9518C58.3761 79.7778 58.663 79.6146 58.9374 79.4622C60.4272 78.6275 61.5707 78.0781 62.4341 77.7172C62.8452 77.5438 63.1914 77.4157 63.4839 77.3168C64.0899 77.1135 64.4586 77.0463 64.654 77.026L65.1538 77.0819C65.4757 77.0893 65.7947 77.0938 66.1064 77.0989C66.4628 77.1039 66.8123 77.109 67.1557 77.1113C68.3613 77.1237 69.4964 77.1231 70.5637 77.113C70.9223 77.1107 71.2718 77.1062 71.6124 77.1011C72.7536 77.0864 73.8029 77.0599 74.7601 77.0249C75.1243 77.0125 75.4727 76.9972 75.8099 76.9853C77.3933 76.9159 78.678 76.834 79.6544 76.7578C80.0582 76.7278 80.4094 76.6985 80.7042 76.6702C80.9865 76.6431 81.2215 76.6211 81.405 76.6013C82.1318 76.9746 82.8326 77.2942 83.5006 77.5636C83.8598 77.7093 84.211 77.8431 84.5493 77.9617C85.8735 78.4254 87.0544 78.6998 88.0466 78.8607C88.4255 78.9206 88.7739 78.9647 89.0958 78.994C89.6176 79.0437 90.0631 79.0607 90.4245 79.0607C91.1592 79.0607 91.5924 78.994 91.6567 78.9839C91.8476 78.9539 92.043 78.9229 92.2429 78.8879C92.5851 78.8286 92.9364 78.7591 93.2904 78.6823C95.6283 78.1701 98.0831 77.222 98.5535 75.1834C98.8128 74.0641 98.3655 73.0996 97.8381 72.4044C97.6873 72.2085 97.5337 72.0351 97.3857 71.8849C97.5388 71.8103 97.6924 71.7386 97.8381 71.6641C98.9545 71.1101 99.8846 70.5431 100.635 69.957C101.035 69.6447 101.387 69.3256 101.684 69.0037C102.401 68.2295 102.822 67.4225 102.958 66.5783C103.159 65.332 102.711 64.0992 101.684 63.0969C101.649 63.0602 101.615 63.028 101.578 62.993C101.501 62.9218 101.439 62.8546 101.382 62.8004C101.226 62.6372 100.983 62.3915 100.635 62.2238C100.516 62.1668 100.387 62.1199 100.244 62.0877C100.457 61.8652 100.585 61.7043 100.635 61.6371C100.647 61.6224 100.655 61.6122 100.657 61.6072C101.033 61.1198 101.375 60.6528 101.684 60.2067C102.434 59.123 102.983 58.163 103.342 57.3069V57.3041C103.956 55.8415 104.01 54.6816 103.537 53.7216C103.31 53.2585 102.968 52.8824 102.535 52.6034C102.281 52.4397 101.996 52.3103 101.684 52.2189C101.36 52.1246 101.008 52.0681 100.635 52.0585C100.58 52.054 100.526 52.0534 100.472 52.0534C100.263 52.0534 100.093 52.0675 99.9783 52.0777C100.21 51.91 100.426 51.7473 100.635 51.5858C101.021 51.2865 101.369 50.9991 101.684 50.7241Z" fill="black"/>
</g>
<mask id="mask1_25_402" style="mask-type:alpha" maskUnits="userSpaceOnUse" x="6" y="36" width="99" height="78">
<path d="M100.637 51.5828C100.428 51.7466 100.207 51.9104 99.9817 52.0741C100.094 52.0685 100.263 52.0516 100.472 52.0516C100.523 52.0516 100.58 52.0516 100.637 52.0572C101.009 52.0685 101.359 52.125 101.687 52.2153C101.997 52.3113 102.279 52.4356 102.534 52.5993C102.969 52.8817 103.307 53.2544 103.539 53.7175C103.748 54.141 103.849 54.6097 103.849 55.1179C103.849 55.7673 103.685 56.4902 103.341 57.3034C102.985 58.1617 102.433 59.1217 101.687 60.206C101.376 60.6521 101.031 61.1208 100.658 61.6064C100.653 61.6121 100.648 61.6234 100.637 61.6347C100.585 61.7024 100.456 61.8662 100.247 62.0865C100.388 62.1203 100.518 62.1655 100.637 62.222C100.981 62.3914 101.223 62.6342 101.381 62.798C101.438 62.8545 101.5 62.9222 101.58 62.99C101.613 63.0295 101.647 63.0578 101.687 63.0973C102.709 64.0968 103.161 65.3335 102.957 66.5759C102.822 67.423 102.404 68.2305 101.687 69.0042C101.387 69.3255 101.038 69.6423 100.637 69.9585C99.8857 70.5402 98.9533 71.1105 97.8408 71.6639C97.6934 71.7373 97.5421 71.8108 97.3834 71.8842C97.5365 72.0366 97.6878 72.2061 97.8408 72.4037C98.3655 73.0983 98.8127 74.0639 98.5529 75.1821C98.0837 77.2207 95.6277 78.1694 93.2893 78.6833C92.9335 78.7567 92.5834 78.8245 92.2451 78.8866C92.0413 78.9205 91.8487 78.9543 91.6573 78.9826C91.5889 78.9939 91.1609 79.0616 90.4268 79.0616C90.0648 79.0616 89.6187 79.0441 89.094 78.9939C88.7716 78.9656 88.4271 78.9205 88.0488 78.8583C87.0543 78.7002 85.8746 78.4235 84.5481 77.9599C84.2087 77.8419 83.8586 77.7063 83.5029 77.5652C82.8314 77.2941 82.1306 76.9716 81.4021 76.5995C81.2214 76.6215 80.9837 76.6441 80.7013 76.6667C80.4082 76.6955 80.0581 76.7237 79.6572 76.7576C78.6797 76.8305 77.3933 76.9157 75.8115 76.9835C75.4727 76.9948 75.122 77.0117 74.7611 77.023C73.8006 77.0569 72.7502 77.0851 71.6101 77.1021C71.2712 77.1077 70.9217 77.1077 70.5659 77.1128C69.498 77.1247 68.363 77.1247 67.1545 77.1077C66.81 77.1077 66.4593 77.1021 66.1041 77.0964C65.7936 77.0902 65.4767 77.0851 65.1549 77.0795L64.6523 77.023C64.4603 77.0451 64.0881 77.1128 63.4839 77.3167C63.1902 77.4127 62.8458 77.5426 62.4335 77.7176C61.569 78.0785 60.4294 78.6268 58.9385 79.4626C58.6613 79.615 58.3738 79.7788 58.074 79.9482C55.4825 81.456 51.9638 83.7318 47.2315 87.1765C35.2648 95.8894 20.1147 106.478 12.83 111.566C11.9428 112.188 11.1183 112.758 10.4243 113.249H10.4181L10.4124 113.254C10.2944 113.317 9.35135 113.803 8.56075 112.628C8.52066 112.566 8.47605 112.503 8.43595 112.43C8.43595 112.43 8.37892 112.323 8.32866 112.154V112.148L8.2897 111.431V111.425L6.91124 86.8603C6.81015 86.3628 6.77627 85.4598 7.65722 84.8669C11.6441 82.913 25.7844 76.0009 42.0819 68.1458C42.1096 68.1289 43.2955 67.4568 45.1257 66.3726C45.4589 66.1806 45.809 65.9717 46.1761 65.7509C47.1242 65.1861 48.1915 64.5373 49.321 63.8421C49.6654 63.6281 50.0156 63.4079 50.3713 63.1876C51.4499 62.51 52.568 61.7984 53.6924 61.0643C54.0419 60.8328 54.3915 60.6013 54.7416 60.3697C55.8146 59.6526 56.8773 58.9241 57.8882 58.2012C58.2439 57.9471 58.5997 57.693 58.9385 57.4445C60.2537 56.4732 61.4504 55.5245 62.4335 54.6436C62.817 54.2991 63.1677 53.9659 63.4839 53.644C63.8176 53.3109 64.1056 52.9833 64.3422 52.6784L64.5851 52.4356C64.6523 52.3791 65.217 51.9104 66.1041 51.2158C66.4198 50.9673 66.7699 50.6963 67.1545 50.397C68.1258 49.6515 69.301 48.7649 70.5659 47.8671C70.9098 47.6186 71.2594 47.3701 71.6101 47.1273C72.6486 46.4101 73.7159 45.6986 74.7611 45.0661C74.8346 45.0153 74.9136 44.9701 74.987 44.9249C75.1508 44.716 75.4501 44.3263 75.8115 43.7786C76.6981 42.4233 77.9455 40.1362 78.4594 37.3691L78.7028 36.0364L79.6572 36.0703L80.0638 36.0816C80.2501 36.0929 80.4641 36.1154 80.7013 36.155C81.5427 36.3131 82.6276 36.7197 83.5029 37.5724C83.8586 37.9169 84.1805 38.3347 84.4403 38.8373C84.4804 38.9164 84.5199 38.9955 84.5481 39.0745C85.2258 40.5654 85.2258 42.4233 84.5481 44.6821C84.294 45.5235 83.9433 46.427 83.5029 47.3814C83.0855 48.2736 82.5937 49.2111 82.012 50.1993C82.4632 50.1485 82.9607 50.0807 83.5029 49.9904C83.8366 49.9339 84.1862 49.8661 84.5481 49.7927C85.6098 49.5725 86.7889 49.2619 88.0488 48.8327C88.3876 48.7141 88.7383 48.5899 89.094 48.4487C90.11 48.0591 91.166 47.5903 92.2451 47.02C92.2451 47.02 92.2496 47.02 92.2496 47.0143C92.3739 46.9466 92.7472 46.7376 93.2893 46.4609C94.1426 46.0317 95.4188 45.4275 96.7905 44.9475C97.1355 44.8289 97.4851 44.7103 97.8408 44.6087C98.7946 44.3263 99.7609 44.14 100.637 44.123H100.749C101.094 44.123 101.404 44.1456 101.687 44.1964C103.585 44.5296 104.24 45.851 104.442 46.4666L104.651 47.099L104.346 47.6863C104.255 47.8671 103.905 48.4882 103.053 49.4087C102.793 49.6854 102.494 49.9847 102.144 50.3122C101.997 50.4478 101.845 50.5833 101.687 50.7245C101.371 50.9955 101.021 51.2835 100.637 51.5828Z" fill="#EC1C23"/>
</mask>
<g mask="url(#mask1_25_402)">
<mask id="mask2_25_402" style="mask-type:luminance" maskUnits="userSpaceOnUse" x="-43" y="7" width="180" height="122">
<path d="M-42.092 7.18213H136.356V128.595H-42.092V7.18213Z" fill="white"/>
</mask>
<g mask="url(#mask2_25_402)">
<path d="M58.6218 43.1761V80.6672C58.6218 80.9552 58.3846 81.1923 58.0966 81.1923C57.8086 81.1923 57.5714 80.9552 57.5714 80.6672V43.1761C57.5714 42.8881 57.8086 42.6509 58.0966 42.6509C58.3902 42.6509 58.6218 42.8881 58.6218 43.1761Z" fill="black"/>
<path d="M62.8175 43.1761V84.3378C62.8175 84.6258 62.586 84.863 62.2924 84.863C62.0044 84.863 61.7728 84.6258 61.7728 84.3378V43.1761C61.7728 42.8881 62.0044 42.6509 62.2924 42.6509C62.586 42.6509 62.8175 42.8881 62.8175 43.1761Z" fill="black"/>
<path d="M58.6218 16.7647V43.1762C58.6218 43.4698 58.3846 43.7014 58.0966 43.7014C57.8029 43.7014 57.5714 43.4698 57.5714 43.1762V16.7647C57.5714 16.4767 57.8086 16.2395 58.0966 16.2395C58.3846 16.2395 58.6218 16.4767 58.6218 16.7647Z" fill="black"/>
<path d="M62.8176 20.0005V43.1762C62.8176 43.4699 62.5804 43.7014 62.2924 43.7014C62.0044 43.7014 61.7672 43.4699 61.7672 43.1762V20.0005C61.7672 19.7069 61.9987 19.4753 62.2924 19.4753C62.5804 19.4753 62.8176 19.7069 62.8176 20.0005Z" fill="black"/>
<path d="M97.8747 47.22V70.8757C97.8747 71.1637 97.637 71.4009 97.349 71.4009C97.0553 71.4009 96.8243 71.1637 96.8243 70.8757V47.1692C96.8464 46.9038 97.0722 46.6948 97.349 46.6948C97.637 46.6948 97.8747 46.932 97.8747 47.22Z" fill="black"/>
<path d="M97.8747 13.5288V47.2759C97.8465 47.5413 97.6262 47.7503 97.349 47.7503C97.0553 47.7503 96.8243 47.5131 96.8243 47.2194V13.5288C96.8243 13.2408 97.0615 13.0037 97.349 13.0037C97.637 13.0037 97.8747 13.2408 97.8747 13.5288Z" fill="black"/>
<path d="M101.978 47.9352C101.959 47.9376 101.938 47.9396 101.918 47.9391C101.628 47.9423 101.391 47.7097 101.388 47.4205L101.053 14.5666C101.051 14.2761 101.286 14.0435 101.572 14.0369C101.861 14.0343 102.099 14.2664 102.102 14.5561L102.438 47.4094C102.44 47.6793 102.239 47.9031 101.978 47.9352Z" fill="black"/>
<path d="M101.508 69.0938C101.263 69.0462 101.079 68.8273 101.085 68.5679L101.559 46.8863C101.566 46.5966 101.806 46.3666 102.094 46.3725C102.386 46.3832 102.614 46.6191 102.608 46.9085L102.134 68.5907C102.128 68.8799 101.887 69.1099 101.598 69.1037C101.566 69.1028 101.538 69.0995 101.508 69.0938Z" fill="black"/>
<path d="M19.9837 39.1432C19.6935 39.1432 19.4591 38.9082 19.4591 38.6186V36.1717C19.4591 35.8814 19.6935 35.6465 19.9837 35.6465C20.2734 35.6465 20.5083 35.8814 20.5083 36.1717V38.6186C20.5083 38.9082 20.2734 39.1432 19.9837 39.1432Z" fill="black"/>
<path d="M23.1308 50.1571C22.8411 50.1571 22.6062 49.9227 22.6062 49.6325V25.5058C22.6062 25.2161 22.8411 24.9812 23.1308 24.9812C23.4205 24.9812 23.6554 25.2161 23.6554 25.5058V49.6325C23.6554 49.9227 23.4205 50.1571 23.1308 50.1571Z" fill="black"/>
<path d="M27.5023 58.0241C27.212 58.0241 26.9777 57.7898 26.9777 57.4995V20.6115C26.9777 20.3213 27.212 20.0869 27.5023 20.0869C27.792 20.0869 28.0258 20.3213 28.0258 20.6115V57.4995C28.0258 57.7898 27.792 58.0241 27.5023 58.0241Z" fill="black"/>
<path d="M31.8731 61.6964C31.5829 61.6964 31.3485 61.4614 31.3485 61.1717V17.4637C31.3485 17.1741 31.5829 16.9397 31.8731 16.9397C32.1628 16.9397 32.3977 17.1741 32.3977 17.4637V61.1717C32.3977 61.4614 32.1628 61.6964 31.8731 61.6964Z" fill="black"/>
<path d="M36.7674 65.3676C36.4777 65.3676 36.2428 65.1332 36.2428 64.8429V15.0163C36.2428 14.7266 36.4777 14.4917 36.7674 14.4917C37.0577 14.4917 37.292 14.7266 37.292 15.0163V64.8429C37.292 65.1332 37.0577 65.3676 36.7674 65.3676Z" fill="black"/>
<path d="M40.7893 67.9902C40.499 67.9902 40.2646 67.7553 40.2646 67.4656V13.9672C40.2646 13.6775 40.499 13.4426 40.7893 13.4426C41.0795 13.4426 41.3139 13.6775 41.3139 13.9672V67.4656C41.3139 67.7553 41.0795 67.9902 40.7893 67.9902Z" fill="black"/>
<path d="M53.5523 14.1411C53.2626 14.1411 53.0277 14.3766 53.0277 14.6657V76.0678V77.0984V79.1782C53.0277 79.3414 53.1017 79.486 53.2158 79.5825C53.3072 79.6593 53.4264 79.7028 53.5523 79.7028C53.842 79.7028 54.0769 79.4702 54.0769 79.1782V76.3682V75.5138V14.6657C54.0769 14.3766 53.842 14.1411 53.5523 14.1411Z" fill="black"/>
<path d="M44.9851 13.0054C44.6954 13.0054 44.46 13.2403 44.46 13.53V70.874C44.46 71.1632 44.6954 71.3986 44.9851 71.3986C45.2748 71.3986 45.5103 71.1632 45.5103 70.874V13.53C45.5103 13.2403 45.2748 13.0054 44.9851 13.0054Z" fill="black"/>
<path d="M66.7519 23.3215C66.4622 23.3215 66.2273 23.5542 66.2273 23.8461V73.5954V75.6848V90.631C66.2273 90.9201 66.4622 91.1556 66.7519 91.1556C67.0422 91.1556 67.2765 90.9201 67.2765 90.631V74.9123V73.583V23.8461C67.2765 23.5542 67.0422 23.3215 66.7519 23.3215Z" fill="black"/>
<path d="M71.4734 35.21C71.1837 35.21 70.9482 35.4421 70.9482 35.7346V73.5018V76.0232V97.0999C70.9482 97.3885 71.1837 97.624 71.4734 97.624C71.7631 97.624 71.998 97.3885 71.998 97.0999V75.345V73.4595V35.7346C71.998 35.4421 71.7631 35.21 71.4734 35.21Z" fill="black"/>
<path d="M76.3677 23.3215C76.078 23.3215 75.8425 23.5542 75.8425 23.8461V47.6159V53.1235V73.2272V78.2966V90.631C75.8425 90.9201 76.078 91.1556 76.3677 91.1556C76.658 91.1556 76.8923 90.9201 76.8923 90.631V75.9011V73.1352V53.0987V45.5615V23.8461C76.8923 23.5542 76.658 23.3215 76.3677 23.3215Z" fill="black"/>
<path d="M80.214 19.4741C79.9238 19.4741 79.6888 19.7096 79.6888 19.9987V73.7597V75.6023V84.3378C79.6888 84.6281 79.9238 84.863 80.214 84.863C80.5032 84.863 80.7381 84.6281 80.7381 84.3378V75.4262V74.225V19.9987C80.7381 19.7096 80.5032 19.4741 80.214 19.4741Z" fill="black"/>
<path d="M84.7599 16.1531C84.4696 16.1531 84.2341 16.388 84.2341 16.6777V54.4127V59.8277V62.409V66.6528V68.845V73.0442V75.2985V76.197V80.6655C84.2341 80.9558 84.4696 81.1907 84.7599 81.1907C85.049 81.1907 85.2839 80.9558 85.2839 80.6655V75.8503V75.4617V73.3017V69.0427V66.8482V62.4282V59.8148V53.9903V16.6777C85.2839 16.388 85.049 16.1531 84.7599 16.1531Z" fill="black"/>
<path d="M88.9546 14.2302C88.6649 14.2302 88.4316 14.4629 88.4316 14.7548V52.5887V59.2726V62.1656V67.0278V69.3295V73.8009V75.3132V76.7024V79.1787C88.4316 79.47 88.6649 79.7027 88.9546 79.7027C89.2465 79.7027 89.4792 79.47 89.4792 79.1787V76.1964V75.0732V73.863V69.2974V67.0035V61.9477V58.914V52.0692V14.7548C89.4792 14.4629 89.2465 14.2302 88.9546 14.2302Z" fill="black"/>
<path d="M93.5022 13.0054C93.2125 13.0054 92.9775 13.2403 92.9775 13.53V50.0701V57.2656V60.498V66.2733V68.3001V69.0472V74.1968C92.9775 74.36 93.0515 74.5062 93.1678 74.6028C93.2593 74.6774 93.3762 74.7214 93.5022 74.7214C93.7913 74.7214 94.0268 74.4865 94.0268 74.1968V68.6412V67.7037V65.8526V59.6736V56.6575V49.3569V13.53C94.0268 13.2403 93.7913 13.0054 93.5022 13.0054Z" fill="black"/>
<path d="M49.88 13.7915V13.5301C49.88 13.2398 49.6446 13.0049 49.3554 13.0049C49.0657 13.0049 48.8308 13.2398 48.8308 13.5301V13.7915V64.4415V66.2734V68.2996V69.0473V74.1969C48.8308 74.3601 48.9048 74.5063 49.0211 74.6029C49.1126 74.6769 49.2295 74.722 49.3554 74.722C49.6446 74.722 49.88 74.486 49.88 74.1969V68.6412V67.7038V65.8521V63.7638V13.7915Z" fill="black"/>
</g>
</g>
</g>
<defs>
<clipPath id="clip0_25_402">
<rect width="125" height="125" fill="white"/>
</clipPath>
</defs>
</svg>
